<mxfile host="app.diagrams.net" modified="2020-11-19T09:54:51.686Z" agent="5.0 (Windows NT 10.0; Win64; x64) AppleWebKit/537.36 (KHTML, like Gecko) Chrome/86.0.4240.198 Safari/537.36" etag="S4q8UIcCP9NcvlEJ3Kbu" version="13.9.7" type="github">
  <diagram id="ZZi5S_7-byeD8kXweDa2" name="Page-1">
    <mxGraphModel dx="-232" dy="762" grid="1" gridSize="10" guides="1" tooltips="1" connect="1" arrows="1" fold="1" page="1" pageScale="1" pageWidth="827" pageHeight="1169" math="0" shadow="0">
      <root>
        <mxCell id="0" />
        <mxCell id="1" parent="0" />
        <mxCell id="0QNcCdAJWwaXXV1TvUmI-1" value="Azure" style="rounded=1;whiteSpace=wrap;html=1;dashed=1;verticalAlign=top;" vertex="1" parent="1">
          <mxGeometry x="1910" y="240" width="1040" height="260" as="geometry" />
        </mxCell>
        <mxCell id="0QNcCdAJWwaXXV1TvUmI-2" value="Kubernetes Cluster" style="rounded=1;whiteSpace=wrap;html=1;dashed=1;verticalAlign=top;" vertex="1" parent="1">
          <mxGeometry x="2230" y="270" width="710" height="220" as="geometry" />
        </mxCell>
        <mxCell id="0QNcCdAJWwaXXV1TvUmI-3" value="Kubernetes Namespace" style="rounded=1;whiteSpace=wrap;html=1;dashed=1;verticalAlign=top;" vertex="1" parent="1">
          <mxGeometry x="2270" y="330" width="170" height="150" as="geometry" />
        </mxCell>
        <mxCell id="0QNcCdAJWwaXXV1TvUmI-4" value="Kubernetes Namespace" style="rounded=1;whiteSpace=wrap;html=1;dashed=1;verticalAlign=top;" vertex="1" parent="1">
          <mxGeometry x="2470" y="330" width="460" height="150" as="geometry" />
        </mxCell>
        <mxCell id="0QNcCdAJWwaXXV1TvUmI-5" value="Azure" style="rounded=1;whiteSpace=wrap;html=1;dashed=1;verticalAlign=top;" vertex="1" parent="1">
          <mxGeometry x="1880" y="10" width="770" height="180" as="geometry" />
        </mxCell>
        <mxCell id="0QNcCdAJWwaXXV1TvUmI-6" value="Shared" style="rounded=1;whiteSpace=wrap;html=1;dashed=1;verticalAlign=top;" vertex="1" parent="1">
          <mxGeometry x="2080" y="40" width="560" height="120" as="geometry" />
        </mxCell>
        <mxCell id="0QNcCdAJWwaXXV1TvUmI-7" value="Webhook" style="edgeStyle=orthogonalEdgeStyle;rounded=0;orthogonalLoop=1;jettySize=auto;html=1;strokeWidth=2;entryX=0;entryY=0.5;entryDx=0;entryDy=0;" edge="1" parent="1" source="0QNcCdAJWwaXXV1TvUmI-8" target="0QNcCdAJWwaXXV1TvUmI-41">
          <mxGeometry relative="1" as="geometry">
            <mxPoint x="1880" y="110" as="targetPoint" />
          </mxGeometry>
        </mxCell>
        <mxCell id="0QNcCdAJWwaXXV1TvUmI-8" value="GitHub" style="rounded=1;whiteSpace=wrap;html=1;verticalAlign=top;" vertex="1" parent="1">
          <mxGeometry x="1680" y="70" width="130" height="80" as="geometry" />
        </mxCell>
        <mxCell id="0QNcCdAJWwaXXV1TvUmI-9" value="" style="shape=image;html=1;verticalAlign=top;verticalLabelPosition=bottom;labelBackgroundColor=#ffffff;imageAspect=0;aspect=fixed;image=https://cdn4.iconfinder.com/data/icons/ionicons/512/icon-social-github-128.png" vertex="1" parent="1">
          <mxGeometry x="1730" y="110" width="30" height="30" as="geometry" />
        </mxCell>
        <mxCell id="0QNcCdAJWwaXXV1TvUmI-10" value="" style="edgeStyle=orthogonalEdgeStyle;rounded=0;orthogonalLoop=1;jettySize=auto;html=1;strokeWidth=2;entryX=0;entryY=0.5;entryDx=0;entryDy=0;entryPerimeter=0;" edge="1" parent="1" source="0QNcCdAJWwaXXV1TvUmI-11" target="0QNcCdAJWwaXXV1TvUmI-14">
          <mxGeometry relative="1" as="geometry">
            <Array as="points">
              <mxPoint x="2260" y="110" />
              <mxPoint x="2260" y="110" />
            </Array>
          </mxGeometry>
        </mxCell>
        <mxCell id="0QNcCdAJWwaXXV1TvUmI-11" value="API Management" style="rounded=1;whiteSpace=wrap;html=1;verticalAlign=top;" vertex="1" parent="1">
          <mxGeometry x="2100" y="70" width="130" height="80" as="geometry" />
        </mxCell>
        <mxCell id="0QNcCdAJWwaXXV1TvUmI-12" value="" style="aspect=fixed;html=1;points=[];align=center;image;fontSize=12;image=img/lib/mscae/API_Management.svg;" vertex="1" parent="1">
          <mxGeometry x="2140" y="97.99999999999994" width="50" height="42" as="geometry" />
        </mxCell>
        <mxCell id="0QNcCdAJWwaXXV1TvUmI-13" value="" style="edgeStyle=orthogonalEdgeStyle;rounded=0;orthogonalLoop=1;jettySize=auto;html=1;strokeWidth=2;" edge="1" parent="1" source="0QNcCdAJWwaXXV1TvUmI-14" target="0QNcCdAJWwaXXV1TvUmI-18">
          <mxGeometry relative="1" as="geometry" />
        </mxCell>
        <mxCell id="0QNcCdAJWwaXXV1TvUmI-14" value="Jenkins" style="rounded=1;whiteSpace=wrap;html=1;verticalAlign=top;" vertex="1" parent="1">
          <mxGeometry x="2300" y="70" width="130" height="80" as="geometry" />
        </mxCell>
        <mxCell id="0QNcCdAJWwaXXV1TvUmI-15" value="" style="aspect=fixed;html=1;points=[];align=center;image;fontSize=12;image=img/lib/mscae/VM_Linux.svg;" vertex="1" parent="1">
          <mxGeometry x="2350" y="110" width="30" height="27.6" as="geometry" />
        </mxCell>
        <mxCell id="0QNcCdAJWwaXXV1TvUmI-16" value="Authenticate webhook" style="text;html=1;strokeColor=none;fillColor=none;align=center;verticalAlign=middle;whiteSpace=wrap;rounded=0;" vertex="1" parent="1">
          <mxGeometry x="2020" y="160" width="70" height="10" as="geometry" />
        </mxCell>
        <mxCell id="0QNcCdAJWwaXXV1TvUmI-17" value="Commit" style="text;html=1;strokeColor=none;fillColor=none;align=center;verticalAlign=middle;whiteSpace=wrap;rounded=0;" vertex="1" parent="1">
          <mxGeometry x="1710" y="160" width="70" height="10" as="geometry" />
        </mxCell>
        <mxCell id="0QNcCdAJWwaXXV1TvUmI-18" value="CI" style="rounded=1;whiteSpace=wrap;html=1;verticalAlign=middle;fillColor=#d5e8d4;strokeColor=#82b366;" vertex="1" parent="1">
          <mxGeometry x="2500" y="95" width="130" height="30" as="geometry" />
        </mxCell>
        <mxCell id="0QNcCdAJWwaXXV1TvUmI-19" value="" style="edgeStyle=orthogonalEdgeStyle;rounded=0;orthogonalLoop=1;jettySize=auto;html=1;strokeWidth=2;" edge="1" parent="1" source="0QNcCdAJWwaXXV1TvUmI-20" target="0QNcCdAJWwaXXV1TvUmI-22">
          <mxGeometry relative="1" as="geometry" />
        </mxCell>
        <mxCell id="0QNcCdAJWwaXXV1TvUmI-20" value="External User" style="shape=umlActor;verticalLabelPosition=bottom;verticalAlign=top;html=1;outlineConnect=0;" vertex="1" parent="1">
          <mxGeometry x="1680" y="400" width="30" height="60" as="geometry" />
        </mxCell>
        <mxCell id="0QNcCdAJWwaXXV1TvUmI-21" style="edgeStyle=orthogonalEdgeStyle;rounded=0;orthogonalLoop=1;jettySize=auto;html=1;entryX=0;entryY=0.5;entryDx=0;entryDy=0;strokeWidth=2;" edge="1" parent="1" source="0QNcCdAJWwaXXV1TvUmI-22" target="0QNcCdAJWwaXXV1TvUmI-45">
          <mxGeometry relative="1" as="geometry" />
        </mxCell>
        <mxCell id="0QNcCdAJWwaXXV1TvUmI-22" value="Browser" style="rounded=1;whiteSpace=wrap;html=1;verticalAlign=top;" vertex="1" parent="1">
          <mxGeometry x="1750" y="390" width="130" height="80" as="geometry" />
        </mxCell>
        <mxCell id="0QNcCdAJWwaXXV1TvUmI-23" value="" style="aspect=fixed;perimeter=ellipsePerimeter;html=1;align=center;shadow=0;dashed=0;fontColor=#4277BB;labelBackgroundColor=#ffffff;fontSize=12;spacingTop=3;image;image=img/lib/ibm/users/browser.svg;" vertex="1" parent="1">
          <mxGeometry x="1800" y="425" width="30" height="30" as="geometry" />
        </mxCell>
        <mxCell id="0QNcCdAJWwaXXV1TvUmI-24" value="" style="edgeStyle=orthogonalEdgeStyle;rounded=0;orthogonalLoop=1;jettySize=auto;html=1;strokeWidth=2;" edge="1" parent="1" source="0QNcCdAJWwaXXV1TvUmI-25" target="0QNcCdAJWwaXXV1TvUmI-27">
          <mxGeometry relative="1" as="geometry" />
        </mxCell>
        <mxCell id="0QNcCdAJWwaXXV1TvUmI-25" value="NGINX Security WAF" style="rounded=1;whiteSpace=wrap;html=1;verticalAlign=top;" vertex="1" parent="1">
          <mxGeometry x="2090" y="390" width="130" height="80" as="geometry" />
        </mxCell>
        <mxCell id="0QNcCdAJWwaXXV1TvUmI-26" value="" style="edgeStyle=orthogonalEdgeStyle;rounded=0;orthogonalLoop=1;jettySize=auto;html=1;strokeWidth=2;" edge="1" parent="1" source="0QNcCdAJWwaXXV1TvUmI-27" target="0QNcCdAJWwaXXV1TvUmI-30">
          <mxGeometry relative="1" as="geometry" />
        </mxCell>
        <mxCell id="0QNcCdAJWwaXXV1TvUmI-27" value="NGINX Ingress Controller" style="rounded=1;whiteSpace=wrap;html=1;verticalAlign=top;" vertex="1" parent="1">
          <mxGeometry x="2290" y="390" width="130" height="80" as="geometry" />
        </mxCell>
        <mxCell id="0QNcCdAJWwaXXV1TvUmI-28" value="" style="shape=image;html=1;verticalAlign=top;verticalLabelPosition=bottom;labelBackgroundColor=#ffffff;imageAspect=0;aspect=fixed;image=https://cdn4.iconfinder.com/data/icons/logos-brands-5/24/nginx-128.png" vertex="1" parent="1">
          <mxGeometry x="2340" y="430" width="30" height="30" as="geometry" />
        </mxCell>
        <mxCell id="0QNcCdAJWwaXXV1TvUmI-29" value="" style="edgeStyle=orthogonalEdgeStyle;rounded=0;orthogonalLoop=1;jettySize=auto;html=1;strokeWidth=2;" edge="1" parent="1" source="0QNcCdAJWwaXXV1TvUmI-30" target="0QNcCdAJWwaXXV1TvUmI-33">
          <mxGeometry relative="1" as="geometry" />
        </mxCell>
        <mxCell id="0QNcCdAJWwaXXV1TvUmI-30" value="Kubernetes Ingress" style="rounded=1;whiteSpace=wrap;html=1;verticalAlign=top;" vertex="1" parent="1">
          <mxGeometry x="2490" y="390" width="130" height="80" as="geometry" />
        </mxCell>
        <mxCell id="0QNcCdAJWwaXXV1TvUmI-31" value="" style="html=1;dashed=0;whitespace=wrap;fillColor=#2875E2;strokeColor=#ffffff;points=[[0.005,0.63,0],[0.1,0.2,0],[0.9,0.2,0],[0.5,0,0],[0.995,0.63,0],[0.72,0.99,0],[0.5,1,0],[0.28,0.99,0]];shape=mxgraph.kubernetes.icon;prIcon=ing;aspect=fixed;" vertex="1" parent="1">
          <mxGeometry x="2540" y="430" width="30" height="28.8" as="geometry" />
        </mxCell>
        <mxCell id="0QNcCdAJWwaXXV1TvUmI-32" value="" style="edgeStyle=orthogonalEdgeStyle;rounded=0;orthogonalLoop=1;jettySize=auto;html=1;strokeWidth=2;" edge="1" parent="1" source="0QNcCdAJWwaXXV1TvUmI-33" target="0QNcCdAJWwaXXV1TvUmI-35">
          <mxGeometry relative="1" as="geometry" />
        </mxCell>
        <mxCell id="0QNcCdAJWwaXXV1TvUmI-33" value="Kubernetes Service" style="rounded=1;whiteSpace=wrap;html=1;verticalAlign=top;" vertex="1" parent="1">
          <mxGeometry x="2640" y="390" width="130" height="80" as="geometry" />
        </mxCell>
        <mxCell id="0QNcCdAJWwaXXV1TvUmI-34" value="" style="html=1;dashed=0;whitespace=wrap;fillColor=#2875E2;strokeColor=#ffffff;points=[[0.005,0.63,0],[0.1,0.2,0],[0.9,0.2,0],[0.5,0,0],[0.995,0.63,0],[0.72,0.99,0],[0.5,1,0],[0.28,0.99,0]];shape=mxgraph.kubernetes.icon;prIcon=svc;aspect=fixed;" vertex="1" parent="1">
          <mxGeometry x="2690" y="430" width="30" height="28.8" as="geometry" />
        </mxCell>
        <mxCell id="0QNcCdAJWwaXXV1TvUmI-35" value="Kubernetes Pod" style="rounded=1;whiteSpace=wrap;html=1;verticalAlign=top;" vertex="1" parent="1">
          <mxGeometry x="2790" y="390" width="130" height="80" as="geometry" />
        </mxCell>
        <mxCell id="0QNcCdAJWwaXXV1TvUmI-36" value="" style="html=1;dashed=0;whitespace=wrap;fillColor=#2875E2;strokeColor=#ffffff;points=[[0.005,0.63,0],[0.1,0.2,0],[0.9,0.2,0],[0.5,0,0],[0.995,0.63,0],[0.72,0.99,0],[0.5,1,0],[0.28,0.99,0]];shape=mxgraph.kubernetes.icon;prIcon=pod" vertex="1" parent="1">
          <mxGeometry x="2840" y="416.29999999999995" width="30" height="48" as="geometry" />
        </mxCell>
        <mxCell id="0QNcCdAJWwaXXV1TvUmI-37" value="" style="html=1;dashed=0;whitespace=wrap;fillColor=#2875E2;strokeColor=#ffffff;points=[[0.005,0.63,0],[0.1,0.2,0],[0.9,0.2,0],[0.5,0,0],[0.995,0.63,0],[0.72,0.99,0],[0.5,1,0],[0.28,0.99,0]];shape=mxgraph.kubernetes.icon;prIcon=ns;aspect=fixed;" vertex="1" parent="1">
          <mxGeometry x="2685" y="357.1" width="30" height="28.8" as="geometry" />
        </mxCell>
        <mxCell id="0QNcCdAJWwaXXV1TvUmI-38" value="" style="html=1;dashed=0;whitespace=wrap;fillColor=#2875E2;strokeColor=#ffffff;points=[[0.005,0.63,0],[0.1,0.2,0],[0.9,0.2,0],[0.5,0,0],[0.995,0.63,0],[0.72,0.99,0],[0.5,1,0],[0.28,0.99,0]];shape=mxgraph.kubernetes.icon;prIcon=ns;aspect=fixed;" vertex="1" parent="1">
          <mxGeometry x="2340" y="357.1" width="30" height="28.8" as="geometry" />
        </mxCell>
        <mxCell id="0QNcCdAJWwaXXV1TvUmI-39" value="" style="aspect=fixed;html=1;points=[];align=center;image;fontSize=12;image=img/lib/mscae/Kubernetes.svg;dashed=1;" vertex="1" parent="1">
          <mxGeometry x="2570" y="292" width="30" height="28.8" as="geometry" />
        </mxCell>
        <mxCell id="0QNcCdAJWwaXXV1TvUmI-40" value="" style="edgeStyle=orthogonalEdgeStyle;rounded=0;orthogonalLoop=1;jettySize=auto;html=1;entryX=0;entryY=0.5;entryDx=0;entryDy=0;strokeWidth=2;" edge="1" parent="1" source="0QNcCdAJWwaXXV1TvUmI-41" target="0QNcCdAJWwaXXV1TvUmI-11">
          <mxGeometry relative="1" as="geometry" />
        </mxCell>
        <mxCell id="0QNcCdAJWwaXXV1TvUmI-41" value="App Gateway" style="rounded=1;whiteSpace=wrap;html=1;verticalAlign=top;" vertex="1" parent="1">
          <mxGeometry x="1900" y="70" width="130" height="80" as="geometry" />
        </mxCell>
        <mxCell id="0QNcCdAJWwaXXV1TvUmI-42" value="" style="aspect=fixed;html=1;points=[];align=center;image;fontSize=12;image=img/lib/mscae/Application_Gateway.svg;" vertex="1" parent="1">
          <mxGeometry x="1942.5" y="96.5" width="45" height="45" as="geometry" />
        </mxCell>
        <mxCell id="0QNcCdAJWwaXXV1TvUmI-43" value="" style="shape=image;html=1;verticalAlign=top;verticalLabelPosition=bottom;labelBackgroundColor=#ffffff;imageAspect=0;aspect=fixed;image=https://cdn4.iconfinder.com/data/icons/logos-brands-5/24/nginx-128.png" vertex="1" parent="1">
          <mxGeometry x="2140" y="428.79999999999995" width="30" height="30" as="geometry" />
        </mxCell>
        <mxCell id="0QNcCdAJWwaXXV1TvUmI-44" value="" style="edgeStyle=orthogonalEdgeStyle;rounded=0;orthogonalLoop=1;jettySize=auto;html=1;strokeWidth=2;" edge="1" parent="1" source="0QNcCdAJWwaXXV1TvUmI-45">
          <mxGeometry relative="1" as="geometry">
            <mxPoint x="2090" y="430" as="targetPoint" />
          </mxGeometry>
        </mxCell>
        <mxCell id="0QNcCdAJWwaXXV1TvUmI-45" value="Silverline" style="rounded=1;whiteSpace=wrap;html=1;verticalAlign=top;" vertex="1" parent="1">
          <mxGeometry x="1920" y="390" width="130" height="80" as="geometry" />
        </mxCell>
        <mxCell id="0QNcCdAJWwaXXV1TvUmI-46" value="" style="edgeStyle=orthogonalEdgeStyle;rounded=0;orthogonalLoop=1;jettySize=auto;html=1;strokeWidth=2;" edge="1" parent="1" source="0QNcCdAJWwaXXV1TvUmI-47" target="0QNcCdAJWwaXXV1TvUmI-49">
          <mxGeometry relative="1" as="geometry" />
        </mxCell>
        <mxCell id="0QNcCdAJWwaXXV1TvUmI-47" value="Internal User" style="shape=umlActor;verticalLabelPosition=bottom;verticalAlign=top;html=1;outlineConnect=0;" vertex="1" parent="1">
          <mxGeometry x="2020" y="530" width="30" height="60" as="geometry" />
        </mxCell>
        <mxCell id="0QNcCdAJWwaXXV1TvUmI-48" style="edgeStyle=orthogonalEdgeStyle;rounded=0;orthogonalLoop=1;jettySize=auto;html=1;entryX=0.5;entryY=1;entryDx=0;entryDy=0;strokeWidth=2;" edge="1" parent="1" source="0QNcCdAJWwaXXV1TvUmI-49" target="0QNcCdAJWwaXXV1TvUmI-25">
          <mxGeometry relative="1" as="geometry" />
        </mxCell>
        <mxCell id="0QNcCdAJWwaXXV1TvUmI-49" value="Browser" style="rounded=1;whiteSpace=wrap;html=1;verticalAlign=top;" vertex="1" parent="1">
          <mxGeometry x="2090" y="520" width="130" height="80" as="geometry" />
        </mxCell>
        <mxCell id="0QNcCdAJWwaXXV1TvUmI-50" value="" style="aspect=fixed;perimeter=ellipsePerimeter;html=1;align=center;shadow=0;dashed=0;fontColor=#4277BB;labelBackgroundColor=#ffffff;fontSize=12;spacingTop=3;image;image=img/lib/ibm/users/browser.svg;" vertex="1" parent="1">
          <mxGeometry x="2140" y="555" width="30" height="30" as="geometry" />
        </mxCell>
        <mxCell id="0QNcCdAJWwaXXV1TvUmI-51" value="" style="shape=image;verticalLabelPosition=bottom;labelBackgroundColor=#ffffff;verticalAlign=top;aspect=fixed;imageAspect=0;image=data:image/png,iVBORw0KGgoAAAANSUhEUgAAAggAAAF1CAYAAACNqBLhAAAgAElEQVR4Xuy9CZRlZ3Ue+p353Kmq526puzWrhUASCGMjOwZjLBuCDR7wEOfh5SFOVuzEcd57fknWi1fit+IMz85z3ovJwhlsPMXxAB4wGAMGE5mYGBAgkISQWmpJ9Nxd861775nf+vb+/1unqqtVmtXd9ZdUq7urzj33//c59+xv7/3tb3tN0zRwX84CzgLOAs4CzgLOAs4CLQt4DiC4+8FZwFnAWcBZwFnAWWCjBRxAcPeEs4CzgLOAs4CzgLPABRZwAMHdFM4CzgLOAs4CzgLOAg4guHvAWcBZwFnAWcBZwFlgawu4DMLWNnJHOAs4CzgLOAs4C2w7CziAsO0uuduws4CzgLOAs4CzwNYWcABhaxu5I5wFnAWcBZwFnAW2nQUcQNh2l9xt2FnAWcBZwFnAWWBrCziAsLWN3BHOAs4CzgLOAs4C284CDiBsu0vuNuws4CzgLOAs4CywtQUcQNjaRu4IZwFnAWcBZwFngW1nAQcQtt0ldxt2FnAWcBZwFnAW2NoCDiBsbSN3hLOAs4CzgLOAs8C2s4ADCNvukrsNOws4CzgLOAs4C2xtAQcQtraRO8JZwFnAWcBZwFlg21nAAYRtd8ndhp0FnAWcBZwFnAW2toADCFvbyB3hLOAs4CzgLOAssO0s4ADCtrvkbsPOAs4CzgLOAs4CW1vAAYStbeSOcBZwFnAWcBZwFth2FnAAYdtdcrdhZwFnAWcBZwFnga0t4ADC1jZyRzgLOAs4CzgLOAtsOws4gLDtLrnbsLOAs4CzgLOAs8DWFnAAYWsbuSOcBZwFnAWcBZwFtp0FHEDYdpfcbdhZwFnAWcBZwFlgaws4gLC1jdwRzgLOAs4CzgLOAtvOAg4gbLtL7jbsLOAs4CzgLOAssLUFHEDY2kbuCGcBZwFnAWcBZ4FtZwEHELbdJXcbdhZwFnAWcBZwFtjaAg4gbG0jd4SzgLOAs4CzgLPAtrOAAwjb7pK7DTsLOAs4CzgLOAtsbQEHELa2kTvCWcBZwFnAWcBZYNtZwAGEbXfJ3YadBZwFnAWcBZwFtraAAwhb28gd4SzgLOAs4CzgLLDtLOAAwra75G7DzgLOAs4CzgLOAltbwAGErW3kjnAWcBZwFnAWcBbYdhZwAGHbXXK3YWcBZwFnAWcBZ4GtLeAAwtY2ckc4CzgLOAs4CzgLbDsLOICw7S6527CzgLOAs4CzgLPA1hZwAGFrG7kjnAWcBZwFnAWcBbadBRxA2HaX3G3YWcBZwFnAWcBZYGsLOICwtY3cEdvCAo3Zpfe87LYG4D/lmez7bXbQ87OGZ7aRzdbzUqzjma3aHe0s4CzwwlnAAYQXzrbuzC+SBdqu7aIu7SL+bw0W0KXz60K3/pSuk780b9o+rvVjOet0XdM3tO9nf7v2imbt6Ke04Ma9PpUdNq5HTrzuBRfu0q5D3mcDfroYnNr0fZ5iFzzevsbBkRfpA+PexlngaVrAAYSnaSh32KVtganD2ujnnqbXaYwH9DZ6e2+9H506e/M+zUXOv+XbNhvdeQN4W77qmV+EiwCYp5O3eFrAy55oAzK4WH5kS1DzDBHGMzz8mdvPvcJZYBtbwAGEbXzxr8itXwQgbOVILoiIWz/Y9JQtgMBcAB2fdX4XZgu2sPRWi3suF+oiob798ca8yZYO/KnWssV7rcukmPNsmsR4mjjpYlmM52Iu91pnAWeBNQs4gODuhkvTAs8yE6Dx/prrYJr8Aoe9cccmS9DmDbR91FMtZdMo+ylAyoXGtol8vojlDQs3NovBudDWyp6OI52exvzFa4DGBzzd7bM282YOnj+zJ9wK9Mj7K6yaXq1n6PGf4eGX5n3uVuUscAlbwAGES/jibOulPWvPVU9r2uqjDKdgM39rDbxJGWGzaHfj9djKB04XsqHcv3YeXZT6+Y0AwXpgzzhzc6QFCC3eA//6lGthOYPA4CJfm4Kc6cqeDgrZcGKL0dov3Yi4BCDwq8X5eIYe/xkevq0/Tm7zzgLPxgIOIDwbq7nXvPAWeA4A4cLFbYi8NwEG1n9tDIA3zT4IoFAHNwUgm/hI67i3BBtb7HUz579xnVuClQ3ru5jbf0Zmv+DgNjJYewf7U7VDvQkF0xRoNnj8TffUOsYBhBf+Y+jeYXtbwAGE7X39L+3dXzy0fYp128h0owts/bvledY5mXU/bxUnNvWaNlOxWdfDhS+4wCFvkdFob1AJlCyVrH/RZqe4IFC/SPZCjtuQjZAfbWLZdSDpKUgKPB3X2irqyNnWX0b91/q9XBwgXACuHEC4tD+zbnVXlAUcQLiiLqfbjNbw+aWOeysneoHF5AWbR8LTY9W7mvNfGIszSl77atMXL3J9LgYWpmUERt2Gn7AO0Xhomhqex9+1423yDFiaaCDNEk0DTzokNhYjLs5nWOfUNwC1C0CV2VbtqfW5GgubNsVWcvwmNtoEuFmLebKRC9e7aZbBfQycBZwFnhcLOIDwvJjRneSFsMAWfnPTt7Ru2zqTi5cIxG9Og2h1NA0COqGm5bzoaH2Nd9uOcWNJYj1MuND52Z9Yh7aBnnfhXmRtdlU2Kl/7tyTrm0ZohgQITW1LHgYEEDQQIHBfpCDIO3AfdgU2kieQWNtcI2CCL1ACY3u9dv/2TwEB7YSNAQhtSNR+TVXXCDxPwMoUREkWw1hvQ5Jnnb3rDW2gF6uRvBA3ojuns8A2tYADCNv0wl/q26bfWeeINsTkF1v/hmBXD9vEu/P8lfFvbScYotbod10060+PtdFxu7CwLoqVBRivKU6MTlndIX9lufs2v9GO6+uyQhAE4kDpqOW/xhd5BAEzfHXDc+jv+M8w9BEIQDBZghqomwr0p4IMfEIeeTF8Ah2JxDUbMX0fAg3f19LAlDwIVPIydehtM9o18yytw9XWhu5B21rcsRmw8i0XgR0V9muaMbkAd2zOsbTHTzMkl/pd7dbnLHB5WcABhMvrem2b1dLB8Ft8jvEw9Adtx2yDyHUE/fYBggKaaXQt8TadZABUHpCjQU5H7DUIPSBCgxBAIO9ZSyKBb11UHhrPgx+ECBmYt7MNdLXiSQ35judrKnG4Fd2rH0g0zvR7VVcoGv5ZI4pC3Ze8TgsIEY9dn0jfcL0tvDDuWqJvAgWG7maxdOZiKNvKaP49PVO7zdHyENaOKaoSRaXrD2TtmmXR3RHocH8N/LpB2Hjwag++IJ8GPt879FAGQOYBZdOg4v4ITjwPMc9priHPJrutzfVhViHQi1cS5Jj3CXx/rWRhEZZcM57Io2kN6DH3ygshNrVtPnVuo84C6y3gAIK7Iy5JCxR1Iw5WI14TDNNJtyJaLbCbFLpxDFKOp0OjHxSHQkevifWyrMRZB2GAOgCKukZeVeK46fjDoIE6JPHiaCp1Pr4Xi1P3/VAjfJMhEH/e+KjFyRsHKZlwRuQe8qKALwd5KKsKZV2h4fvDR5XlCH0PSRjJedXR10CWA3kOZhOqIkeZF/pd5qjKElVVaURvQJPPDdc1irl5VOfnkMzMwt+5A+gk00yDEAd9YgYfURgjDCMEQQgvCBGEIYI4gZfEQBwCUbSWcpEyBZA3lXxXkj5hxoI7ILZpkOelXAO/8RB5PuIwRIEGVegJwON6DRECXGsYeALCwiAQgMBz1JXCD5/XpfFQNrUCC15vzxN7EZDINeH1lLZNln58IPAQBOvrDTbjcUne2G5RzgKXkQUcQLiMLtZ2WmpJf2Aq5lIXl8hT090GA0zNMa2xm9w3fYkE1TYdrxl2jXLhIQ6UZ19VDYq8QoUaQWyiURESYjRew2d6v/EQNJE4bNb6Jcr16HA9cU6M6enQSKITpymvq4XLoLkB/U/rCw2QV/CyApO5RYyWVjBeXUU5HsOva3h5gcmxY8C586iWV7A6P4/h3DyW585jaX4eqysrGK0OxZEKUGga9NOe/DkZjcSBJnGCMIrEdllVIq8KASZe6GHQ62PP7r3YvXsfuv0ZRGmKdGYH+vv3w9u/B82+PWh2zMKLAnhRhM5ggN6uHYh3zsCb7aGm0zdkQe6fe1/OxqgCD1EQIfR8RLUHj6USX9gRAoz8IIBvnHhdl2IPMSOPkVqI/l0wnrnu5FdoNoUAQTMkLGfQvvJzm3FgOca2nFqQ6LII2+lR4fb6AlrAAYQX0Lju1M/eAvQPkjU3Ebl4DwMA2jVtdSLr+O0oWYNnWh8eMkbXtTqsoFISYuoH9O2oygZFoTAkSAJTv2CEWkmkSnAQ+hH8GihKRsqeRNyS1qZjEqTiIS8Lk0GQegP8qkJYsz7vIzt9BvlojLhqMDkzj8njJ+HPreDkgw/i3MmTWJybw2RlGV5TIqpqlAtDRFWDpG6Qeh66YYROFEq635dshkbORV2irEokfowoCNAwCpeShfITah4X+GgCD5XXoKwLKbcwGmfsLlF7Q3ADFD6QBR5Gfo0sDlAnIZokwuz+g9h16BrM3HAYvZtvQLRvB5JeD71duxH0B0A3wThpUMc+fLFLAK8JELD84PuSXRhnE0RxgigMBSDJZZTSAPkQ/NFauYCYS3IBkv1ZAwiWEyI7M1hLSj72eF4rw/dQ8KD3nXZUbMZm3HgHPfv71L3SWeBKtoADCFfy1b2c91YCda4sBIna6SUCdcqWXGjBAf8UXy21bvrBErUXoIKHsQEIrO/Hngcm0GPTqS8BvZQy6Es9AQ2KQ8RzTQl9tZQXtAOgritBLkEYaRTLFDkzHMwccA3ZBFhcAZaGOPZXn8Xjn74Xx48eRZRl6C9n2DE3waBokGcZmrpEGIUIwwCNVyKsfXSDGJ0wgV8wYq4RNCx7aMQspRKCljgSm5ArUJalgJ+YpQrPQzbJkOeZAJgwjRGmCfwoAPdQ5AWaokSVl/CKArGJxFnvL7waYxTImRWJlDORNwFWshorXoVsJkLR7yLuz2Df4Wux69Ah7Lr+MPbedgO8w/uAmRk0vT4Qx2JEZgTqmsCkllKGkCTF+fMaMhNkwB8duQAuvXa2M0JIl2Z9yjFVcFCyoiL+XTs72BVBUBYawGBvectLtUJWFnjoDXXxyZ2X80fGrd1Z4Pm2gAMIz7dF3fmeFwvUeY2K6XivEc4AHZ4XkmRoyG8mkjTc+ylAEOKbSYPTDZAUSAdIBxIw1W7IdI0fYEKn2DTImhoRSYrk2EmEbYh3UH5BxXR6U6IscoR1hQ7r9l4o50JRAeMJ8geO4iv/89N49LP34dzRR1FOFnBtvgM7gxj1ZIJsuIKuH2DWC9BMCgEUcRIhThMETOnTSVYNauvADflPnWQte2Bdng5XeAAECQQEZSHONw5C+IGPityFihkUaVsQRy/nMK0WWiKh1Qg+iLl8eZ2WZCrJNvBQOQdJiH4ojjmrCyzXBVYmGaqSoA2I0hj+TAeTNMTg8FW48eu+Fnu+/i7glpuAQU8AHYJAIvmCQMBjjwjLCxrXk1dQZ6XsPYxDBWeGXyFcA/2BvF47N3hpNSNgfqWdEgRSvG5WDsLegRuTB9PEgQMIz8uH1J3kireAAwhX/CW+PDdIZ8kSACvZrGHLV6DcAmHHt+YnCHeO/lD4AgwQlYRgo05xVBLhV5KKlzg1DJB7HlabGnlToxOEdMFCtCNIkIQF35OMetbUbetiWcJjueGJEzj5qU/hV//dO9FZmWB2ucBgUmJQAYMwxs60i2ZpjL2s9dORFzn8JBCnWlcFAhITvUbKE0VZTPUYmPqPmJ2Q92ek7UuELU2O3AbJj1UpGQQS/ej+SbKU5kXfQxiEiOJYMhPMLozGY5RZDo/dHKGHmvwFr5GyS00QYAmCvo9QSi9KBG3KCpPJBGHgY3e3j5h2D3yUZY2qoJ08KYvkxQSjYoIJGsz5NR5vCjwWNthz5x34zu//mzj05m8GSJoMQzQsM7A8Aog9aGfaW0ijwppQIqViPNu6QpBm2ifN9bCZhmm5Qc0jnSgXjJywIKFVVdhKJvvy/MS4VTsLPP8WcADh+bepO+PzYAEl/zXi9NlhYJnrEt0KLU0jSokmjUMnSGDngTgJhrlM/TOsjAgN+AvWvUsENQEA6+WeHE92QcmUdawhKDkMrPenXgg/L1ENJ8BwgupLD+PcPZ/AsXs/i4XHn8TqqTPY5SWIJwV2+yn2D2bRTzsS6U9KlhA8cbJ0aHEaCy5hiYJEO9EuMC2WIojEqJobFeesOzNqB9N9MivAnVsnyj/ZGUAugoAMFUuQ9D7BgmXzSxslI3mWX1hOADMS5DSqdgL5DRaM0IYCsAioWLpgt8EkR7k6kdeSg5GE5D1wraWAHRIQ2YmxXBY4PR7hzGiIxapAZ+duhHt3YjLTxzVf9VW45e3fge4tN8PvpfDTRABLlhco4gB+xN6GUoWfTNungLSGdjKiTUZMwnZx0p4FsxskNvJ6+Z6UTaTtcuNXK5vgGAjPwwfUnWJbWMABhG1xmS+vTUpLIqhTwKifbXGMVrUnQD3gWk++AoS1zgZGxPR+4uSkvU/JerVvyHvkE9Afk21vAIWcOQqEnFgXuabe2eFwfgHLn78fT378LxGdncfo6OMYHnsS/miIgRdgEHawuzNAwlS8tEVW8n514CHzKhQkB5JDEJEfABRFLp0GEcsBTPITLEj6gy2BCnjYFsndqEgS+Q3qzC0Jj/siZ4ElgKYkF4IEwQjsDiiLUtowaSZ2aKAu4bMlMSQBU5UXCV7YaknSIFP9bN8sCy1T8L2FBGlsSgcsqfyikA4F2onrIaiq2I0QevAjgqwSTV4j9CKkaVdK/KPhEMMsw8gH5r0Go24KHNiDHa84gv4N1+DAK2/HzjtfiXj3TqAXS1skswg0PvM1BEIRM0KCqpgloV6CB5/7kg4GD1VYo/A9rDKrUdfoRZEQOwk11mUSNpQaHEC4vJ4HbrUvnQUcQHjpbO/e+SIW4AN83JAfUEoaWlLfTCG3RHamDtS2vEk6nhG6Cu+o3zXsNyHNac/92gwFG5+vZSBQlKjPzmP+oaOYu//LWP3sF3D8rz4jP9uFALMVsCtNsbPTNYCgQUnCn9T66Xw1TS6ZgMCTVHrpmb59iYYb2YeAHj8Sh81MiDhuq/lgNQ6seqEOUxDewBQsCS+vVnIkz8s2QqO+KPV92Sz3y24MPbeINpl6vWRlRO5YmYIkMAo8MboCEqgTtBCceFxfJZmYim2JdMBCAK0lE5FB2xbTykdcekhItESAlCSFshFSYRlHmC8nOJ2t4AwmmK8qxPv24Ka7vhrdW1+GvXfcir2vuh3+7lkg8VGxlGSaRIVjQhTVsPOikVKJmCYEqrBB7gGjmoCIACFGYkpDtvPBNjG0kwqb9TW4D6OzgLPAJom3Zlrsc+ZxFrg0LMCH+aiuMGGqH0DCHnvhGDAyZNlB1yk1aDNBUJyadDDUAgzotPIiF1IbU+LsUmByQbsdlI8gIsh0wOMM46OP48Tnvogz//NerH7uARSPHUd/UmA2iLCr10dMoqQV6TFzEAgMJFpnPV9kEUhubJQIKWCBJQBNmSsfgi2H6u/9mmtU0qXpmzB/rrX3aZlBvLphJBhexBTmqLIh92DcvaX4m3kHRmVaShM2y6IETOYDeFrbEjhtIRRSoIInISyaLELte5IRIQBTmSS1NwEQcx5x7SGoAJ/fNQmfIQJx3JVkVKih0MSetEQuTkY4v7yMVXZWRCkG1x5CctvL0bn5Brz89XchfM3L2WqCJrIghW2dLIWECCRbQ/El6kxTFZNckkBEqcgjoVrjGilzDRYoPNIvBxAujc+5W8WlbwGXQbj0r9G2WyEf6yKDzBY5NIj9UACC9PrTqVntfabNfU+cVMmYU35uonmqJBY5O+CQxgnSMJL+SIoRRZEvYj75ydP4yif/CmcefAjjBx/G3BcfxOT4KRxsItzQ24k9UQK/rJDVFcrIQxFHktIWRj6dpHAj2CSpIknS/y8yxEBIEFKrQ5dpCB4dLDAJ6Hp9hDU5EEa3ueW21lLjbTemLD0VhNLBUUJYtN7ODGOaOkZzx9hpzvaw6blFXMIw/6Z3l82o2Hfgmqn8qIdKl4NqREl5RsDalB0hlQH54hXjPvm6SCJ/Pa/ns13TyFCzWyIr0dQESDHm8wKnsjHC/QeQ3ngIw1sOYu+dL8Mtb/oGxAf3owl95NSIYJuqH6kIVZ4L9yGMYkwKhTRpGE9LJJp1aQMEBTUOIGy7x4nb8HOwgAMIz8F47qUvnAWMsq4q6pqaMsl76gRZR2fWWWcrlD5nHNRS72ddnhmEKIpEQXAyGQmHYZB0EbJ+zRa94Rir93wSD7zvT/DEPX+JYHEJfc/Hjl6KHd0uYvIE8hIpo1b28pc1SgIDsvhFD0Gjf3GlnsIF+bc4TTorG7mbsQjGgVcewYy27gWVL0qNU4dlphrauZFWHZJEynbMK5BJuhlUCGgjSOAZ27MkBQaITsNaDC2ZFjp8c2qr9MisAkmBtK8CEu5UBZUsniAwCIS/oakQzeJoh4WQIOVbQRNnNRAY6TobBF4lACriT7JSeh89P1bgRQXIIMHjc+dwf3ke5YE9uO0td+OON9+NwWtfjWa2hybSEgevNUmeAkgkm6BZA3ZwsGVTvgTZ8KdqjbVZl8pk0VrQC3f/ujM7C1wJFnAA4Uq4ilfgHoSQz2xBCxyoYJEvfAJR3xWVQEaWWlpgqj/2I+2dJyGwLpBwwBIhRl6jmTTApz+HD73r3Tj6sXuwZ1zgpv4O7O90EHisqVdS1+bhjFIJDnwCCrYSckaAsBr56wAROyEkEjdiTkbOmVG21N39WoYWCVgwUbeciaTBhq9dG8NsQYCWToxDNv5Lg2AFHzI0qe3cjR8UR2+jY+P4bOwsxEchXWo2RjIPJvvAdSpCYUbAaCNI6YNETi2X8JvcCckcmAyGdH/Ykg6Fq6Zrqg0ZlMqG3Af5ELSdNGmK8FPkAylbKvmzgvMpgIKDq5IECyfOYNeuPUgP7ceXzpzEZ08+jrzfxYE7XoE3/MD3Yd/rvxbetQektMCulMq0SAYkJBBRmmFXunerobgG2JRt0uqPdQDhCnxyuC09nxZwAOH5tKY71/NmgWkbvOTTdegSGfRWpY+ZAzp0Rq/iOMkDYAaBUT95BxLB1qhXVpA99hUsfPJefPxXfxvz9x/FPj/BrVcfwkwcoy4m8Mj2LysUWSYaAxQuiuNYOQUsWRi1RCH6NUydewhrDxFLCSxbmF3LMukw2X7nNzKjQOr2U42GAImk5z3UJC+aboHptEqjNqjRvr6XRrvKMBANCOFdrkkOW+6FDYrF37eugs24CD9gSt9XJQAFHBppSyeIoDKCGL63vKPJPrTElozz5R65Fso08+/SqmlKDrI+M8DJFixUV1nnVFBDIaY4VNNINmAc1Kg4tpp2GRfwmxBVwcwNMGlqzFcFvpydx02v+2t41Tu+C+ldr0b30D6gE0mJiYaRWQ4h53Fqo6SCgfaX7YJxAOF5+5C6E13xFnAA4Yq/xJfnBm1aWqJrkguNZr86NBLkK9Oyp62Q0ilfA2VWoxvFwMISRo8dw9xf/CWe+Nh/x+nP3Y/BqMKeoIOdSQ9NQXGiBmEnwaTIZD7DjpkZmWuQTcYYj1ZRMoMQhtIqqF/KgSC3wBYZRGthmoKnE9fhQdpWaUcl618YpbMuL4lvCxCsMqAN5qcFgrWSgGYY1P2KFoJBANM/WyUNe7UtGNC1aSaAwKTNG7AZCQspLLBon9eeT0GMljdsFkIzB7bUYECNrJF6E1qiEDlqEVXS1lORUK40E+T7YikUsYcq8kSp0stKpE2MFDE6fiKzHVayCYZ+hYeG53A6rHHgrlfhFd//dux5zSvRO7Qf3syMCjHJvcEWSd3J+gSBBQhTHLPG0Lw8PyJu1c4CL7gFHEB4wU28vd9gjSamdpjWf6ee50L78DXkE0glnI5VxzCYLgV1kiQlsqTAiDRhOUAckAdSArJHv4LHP/wxHPvQRzB+8AHsHObYF6fYkXTQDVNx8uOxzivw4kjORdVB0SkqVCQpoHaCKimYscOMcLVeIBkFljGoxmhHP9to3wCJUAiLSlKks1SnKrqQStqzEfeUY2AsJdG3BQHtQrlpfzBQwTo/SyCUkkvLlGKPdTw9lgosr6A19Mh2g5iLY0GNghHVPtCrpl0Ylm8gh3N/BoCsMQ3WnLQMvJIZC1pq4LVkqyKVKckXkIFZdYkcFQq/QlZO0I0TDOKecEUyClSVDTpJijBOMKpKzCHHsWwFiztT7Lz1CG74ptfjujd+PdLDB4HZAWdGK1AwXIQ1kKDW0X6Pp7j5tvfH1e3eWWCdBRxAcDfE07bApryudrHbPHm1m0AjfVbo+c1f0f/SaU7Zddb3tHh4qhVonKoI8hgxIBnSRK0BzldoNLWMGklRosOoNK+B5RHOfPwT+MSv/wbOf+lLuLqIcDCJMVN66LIlsaxl1gEj+TiI1NmzNi+zCDhESCNcqcnL+TVTQOKjaDBI7V01BUhWrAIfuSHoWbejtfoGUd0gqRS4WJlkpuIZcUsfw7rw1jZCanQr6gjTcN6QCU2r5BRktV7f7lawv2+DA5t/kKxCq/vAZgJ0hXqRbKFAeQpKMtTMgZYfZMaD+RJug9mvZixM7C7Kh6aDQcpCOu+B0tAFCZ9sLaEok2R9dGRn49WI0xBVVYqmAZUZA2YDePOUClOkAhLHGIc+ztRjHF9ZxGrfw4Gbb8HVd301bv/7PwYMukAaAXEohFDRw+D7kMxI8orRiLC4p3376q1pKagWzBqLyM1v2zvXxJqn9m6D39YHxfI99F5yX84Cl5cFHEC4vK7XS7rapwQIraCMrH9RMPQ8TNhJUJYi9ZsGIRL6g1GJcpLDCwMEnVjU+GyBnOQzcUyVTyFAcUwBJZCpRMh6NZUOA9FWRJeiPYz4zy5g/qN/gQc/+GHMf/4+5GfO4oa9BzDwYvhshys5pEmH+tDREKSQYc+RzBwYJP6DkyJZFw90VoFMIWwa6YAIShU4skRBSa1bMqLhBjq33wsAACAASURBVChRUKNkOkueO6YSoBFn4j4q8hJMil7Fg9cr/q1Pia85a3G9xnkrc0GJk+LQN7zI+u+23LCAlqnrXzvXxlLC1Fm2wIkNtzceK7DBEBd1DobeAFLGMCqVvP4UVBKSJgdMhYF2mxBUWdAoXREqIsVKjkyWFIDk6QhpEkQLTmsMUJWUdgaCNAXiCIuUdB6voClyZLNdJK99Nfa+9k7c9D3fDv/QVQK0yGHwOZ8iDFHkJfJxgW63i4AdEfKeJFHq9VYpaipx1kgIUKalK5k/rWqU3BNLIzrwU2W+TQllmrURJqve/6ZCNs3DbLzGL+kH2r25s8AWFnAAwd0iz4sFLHiQ8kBZ60hftiBS8U+4hR6iwEPEB2veoMgM+5+aBJTsDXRioY2eWXtmW6MMagqAYZ5J9JpEMbwsR8oHeFEj++wX8On//Gs49uH/jgN1gOv27IafZyiGY9E66MWJpLgp2EMiGx/YdlqjyDebvLxtGdQuAUOyo+KhGQClDH512kLKM1oEooQ45b2tpUIk/d5KZyt3QI+dYqkN9Zdp2cCqF7XK5fIaCaGV86D19otfunUAgVFx673WtUG2ztFe2zQyNq+zv2tnNqxNFIAYgCD+1WSQzDyIqYIlyzKWaGmPN2CK56Jio8hiy2RJVZlUGW3TxuirmiLnZsg6wgBhGKKe5FgqR/hKtYqzfoVDd70GX/P3fwy9r7kTTSdGnqRYynOZK9EPQtR5icnqCP1BV0dhs3WyqhSYsLGzrgXMCuXREGSFeMkMk9xDHCClpSa2WAr4sReDe+d9xb2bMoc1vQMHz8ujxp3kRbSAAwgvorGv5Ldq+7rCOAipP5vo0swRUj9n/Kh59uq4Xr9GECib3o5hKooCAUsBno/VYiKRXS+MEE5KVCfO4vQf/Sk+9/t/jDP33YcdVYVXX30EB/ftx+K5Mzh74iR2DGbQ6/WQZZmKKAWBKhdKVC8rmU4N5BwCmX1g3l2XqIUDKwJke+ctOFCf3arntwjydCJ2WJJ9r3Z6XgVM9QWmR8EkoTXFravT3zH9rnLD7AIwGQQDIjY6dXuPtQHBRlGjNkCYXo/WzSkSAut1hi7IVGwEOdOOScEwZuVm3LQOkdJ1EziuASoFFswgyKAtkatulTCs1oFRp9Q5E6IBOe0sYfTO+QxeJ8SyX+DE4jmcz0YYXH8dbv6Wu3HtT/wYwqv2YhwHWBxPEIUBummMgJwTK8sdRTKWumTXC8mT5roz0yRXQlQxbZrEFst0toWQT9fXixTEtUHehn9fyc8Bt7crywIOIFxZ1/Ml2806gCADdTRr4BU1vNyIHXGqYghMAEw8Gc2DwGsQN0DCDIPN4SsNAGVd6JAeiuz4AaISqM4vY/6j/wPH/vCDeOj9H8EeH7j94A2IPQ/z588B4wn2DAZIk1TaIrM8l6iU5QxGhiKALA0Ppj3SSDWz3m2dmAUHm6mQTzMlJhzkZEbrzFU0aI0zMNUxNl64zVMQhzPtYLC5Cf2TaXqVFuKXemvtZCBQMLRBO6vhImFpiyqg6e0N2Yr2mjfeNG2AYE9/MSCyGSDR0odJrxuBJnW0ayURez7JtBgJbAEPBFzGoapmgf6bUTr5KLI2M5KaJSBeUwI/Eh1HTY6YQ6E8H8fOn8LYS9F/1e14xd/6Aex449eh3D2D5aZAHfjohzFS9lGaWRqcUilZGSEtKEFVSgcCAlkmMVkBU0bimrgeYTnIrA8L6pSzYNc4vTnMpXzJPqDujZ0FnoUFHEB4FkZzL7m4BaTEUHA2gcbFHssEhU5Q5MTEOvWw4jVYrnJ5wDKV2/dDpMJozNEQXPB1VElk5FzXUs/HOMfq/Y/gsfd/BA+/54PoHp/H1UGEPVRITELkdSH15IQqiBWdCpUVWerw5X2FU2AGGrWdnnXqUy0C45TVMRj5YSEWrpH42s5WHIcxx0aOhgxNsp54WoU2P5p2L1xoy4uT2aTAofMjNpQY2v5/U8ywkazQftvNXtAqqaxbYStLstldIKcy55NIv0VQlWyIybjY17YzFZY0aQWZpDYl/lo7P5hdENApgEfLDwSBMjGT90BF8SQgSlNEYYy55SEePnsGzcH9uPm734pr3vYmDO64BdVsH5OmQI+iWpyKKcO9VPNCRLZ437DFQlQzlRzL/6neaHkGMuBK7g89Tu4tab/V4VVSdpABW+7LWeDytYADCJfvtXvRV77RAa6LjlqrYdQvfoIPW5E3biRKJNegjD2seg1WzQwDZg66MpuATMHScMF0GiJT6iHHKM8v4/RH7sGDv/X7WPz0F3FtleLqoIteEIqi3qgpUIqiYY0OqDWgXmqSZzrG2XAPGOXxV6wrT32i7bZoOR/x6S1HZgmCmzphGcxkhYR0JoP8m1HxNM28JjnMIyV6llrHmmfWJWvE3EIV0xZDPZYLVxljFTey0kRPrRy81o1w4S1zseyCxTVPhSvaZ1tvG8MlMTeMdepaTllb9MZz8990xkoOFCKCZhPMdZuCBRIK60rllk17p4yx5jUn4TDwEacpmrLEaHkoMz2WQx/hLTfiZT/4vdj7tm+Bv2dGQABBJNcn56KsI8tjHMwlnANDSjRrlmmaRs9BZ0wY4KijQyUrJR0azIyxVCFDw8y98aJ/Wt0bOgs8dws4gPDcbbhtzvB0AULbWTAG5BRFebDSAQQcxEQZfm2Ji2m9skQchJgUEyEhamdBDY9SvF94APf97vtw/oP3IHjsJK6LetjXnREawcirULAszYc/fWuWSYTHhz3PTW0DjUrJiA/MlASTbjfr0YtneA9tj2u5EjaCNICnfbFVgMi0MhIoyKRDM5baEvVMVydnR9KJsM2RzszjkdMWQvVAqpFQycApseGUuEFHySiVaW5drf6vETr9k+UrrIEHM7OBaXhtI7hox0M7gbAuO2K1FcwBm5UpLgAJmnrZNKsyVYZsQaB13REmO7FxPbK36e8MiFoH6DwUdSXjqHlfUc0yZIcMCZB5hSBnhiDAuTJHdvUu7H3zG3DNd7wJeM1tqGIfBaeGcuIn7xuxKydHqmfXUdxG7MlOAzXIeJo7aslX6+RNm+lozdpYBwe3zSPDbfQyt4ADCJf5BXwxl/+0AIJ5uhMUSNXAaCGI+qB0EChHkN0NPDQKPYzzDElCXQIjvMNILitw+gMfxD3/77uQ3f8IbvdmcEPcRzDOhUg2jn1kswnqToTlpWVpZ9zbm5HIvcgLVQ+k9sHUQbY1BJ+e1azzkhSz+bLKgEJ6rGpt0TOpZAEIcmitQ4SICYLARMAiniwOh1EmZzKoxoAFKExZa1lF09YttUZGs2wdNC0X1G7gvnQuhVFmlMyDGfts+QmGdCkgaSOR7iK8hOkobdta2fLWWwGEqY1MpmBdx8Ym77exM8Ke/ymrIZtwKTjhcZiNMaEuRidBN03hc/rjaIxOGCOpgDCrpVNhrsrwJMaYP7wHb/jn/xgzb/pGNJ0Qk7ICkgRBFIlWQ0ipbl8zC7a8VOQNwpB8A72HBXgZW2siSjNIAuzk37aZ1V7lp3ffuaOcBS4VCziAcKlcict8HVPynnk+si4sAEEU/TWqZtWAMwEklcs/I2oPeMhQoqxz9L0YXtEAkxpPvvs38ci7fhnlE6dxXXcWO8sAM14oqdsiII+hxEpYo0xC6UvnQ5nTGgPzzaHAEcV4pO2OznptTLI1ddsR2Z5+jeWNVsCG2rzWnM0GzUlCYb2bkoSkw2XSkxmq1KjwT1kKmIi9EEkQSfaANWxb45YoVVLdOkKajl9q3EajQbhz3IvoCtUiOMQvZkjYvkmIQIa/5VgI5Gix6Nm2SZ2HaYp/w722meOf8kUvAhA2ZgM2u323IjZuvA7UQlB4pV96fXQBbX2HjSUTIZNGIZCEAsyq1QmSvMFMFGE8HkEJiHpd416KxfEqji7NY+XQVXj1D34fDn3f24DrDwNJhOWqgB/FiOSebUQDQxx+EKjuQSAij3qPtDpKCAWk1ZEZBFO2kBthU0LIZf5hd8vfNhZwAGHbXOoXdqPtwI7PVHFwMkRJa7V0pHzg+hRRki4HT+YVVF4p0/nK8QhJFWDhgaP4wq/9Dk695324eXGC6/dehW6cYjwaCZ9ByWBaJ86pj1BlKGMffhpLx0JUNohFpChA5AUiVEQSmgnpprmAzaLXjdHzmpNShyvM9aqSvRGoUC7YdjGQ2CbsgMCTKZO5X4vQj/T2V5U4Gk6ATNnVz+1z8qCMQlYmPgl4QsYTJr/WwmXdxrBKrg8Qc84EpZ6rCqWMOm4QccyxARVSVuE4ZAIKIfepNHVlMgib+auXEiBYx01bcxT0swEI0k0Q+Aj8UABhk5fwqwoRiYKJj9V8BC8KUVSlDOHqxB2Mshz3nzuFpUEf13/rN+GWH/qb6NxxK/zZLoYoVQqaGLbxBOARzPlhJFkIGTNuyZJTjoHOu1CAoEBRykhrGOeF/QC6szsLvAAWcADhBTDqdjxlGyAIL5EPUts1JkOC+NzUOQfT6JORds3pfYA3HOP0Rz+JD/zbd2L80KP4mqCLI14sojQTOtwoULXDqpaJiHGl8secmrjqNxhHQB36Ag5CpohFnc+TjMU0kW+7EWyE2soUSEmideE0Yb/2ZVvvhHRmnINtyZNUf+ALv4AiPhkqTJpSuRdxgDSKkCCQbo5mUgh5zo6sFgdOkNDqTKD4jzDhTTufgBAJTD2ZP5FLCQVIk0S+6ZAscJlG5a3oVsh/TxHJPt3SwVPd123dhbbTn67naThKq/GwxmC48B3b72MBHMEVwVdc+KLiyKEaWdRgQkZCxC6HUrQKKOFciSqmj9l0gEF3Fl8ZLuLzS2fQu/UmfNUP/wD23/3XgEN7pMuBJkzjVMpEou/pUytBBleba2PJqbxXyHPQlkjZKjsbGjvky+zDZRO246Pxst6zAwiX9eW7NBdPx2jZ3OLqGF1z+iILDkzBS2s/Oxtq+LWH4ugTeOwDH8Wx3/8AxkdP4HDax1U10CkKUcubhB6GTYU60tYx6iFERSlAgefKKI1M8CDytnpuRtnCexCVP5Omnv7ZcvxmNoKdI9B+hluQYEsLdDISrUt3Ro0yzxXsWLIhT2uyADKvQYY61cJmF0b7VBPAMvN1AJKWP8hBYJaCNhLkpNLQpp4f2HS17JHRsu6KgKnIczmWwELABdfHrAQlpnk8NQTWwZ21/W8FDjbwNi96w20kN27EA+I2L+Ig169hU6bLuvddX95gJwIEgKUF4HHeBgFjCgyjCqOgRBD68PIKPS9CWPtYnltCGETYe/VBrFYVnlg4jcWyRPeaw7j2274Rh/7G2xDccp2AMRnVnSbCe9EZI6qPaVUyZUIll+yb7Bb5Jx7B5nTe51O3mFyaH2G3KmcBBbrNZmowzjjOAptYYO3RvclDvBVuM4hi2lc8QlmAQxWayEcZaM+6T3Eklh2KBtkXH8Ff/T+/hMc/8ue4ZhLgtquuldkJk2IVRcNhDEpeKM2wJhGgYUm4ahDTUco0qErGKDOSzzg+ODCjlo0SoW3ls0BBVft0g2vL1r9NswjmAClF8NuAD5kWxdS+aW+U8c2SBtBx03QMBAPiM1i3prwy2/R8T6R8CZRE30HEeESDWgYZSZTPCFfKBtwyCXJ0RL7K/crpa5F5JsVej6+k7EHQFFrm3IZdSWnE0Bc3kv+2Agc2Wm9zCdrZgYt1P+iDZT0eaA+Gsr+3t5isY0PHxMbbz3Ii7HntnyKNTGfMe4D3hOkgHYc1hnGDLFHVRYKHfumjhwhFViBDgyWf1wPYNZhF5IU4ubKAY3GF8M5b8G3/8p8BN10rY8XrOETFEkVZIgkTkN+i11wBmlwcjgKVe1QlwwUUyn+OhuAeppevBRxAuHyv3bNfecu/b0IK34JXZZ6MpsPbpoOlk86crKZQEsmCAYsAjMIKmXxYhT4mdYYeOWV5gxN/eg8eedevobz3S7iqCtAZl+j3u8ijBqtRgzzkQCUPMUcnm1WJTr8pXcjQpQJIK3770lGQBw1GVGtkOyVZ/8w4EIww3S/6B8phkHkLDMZFO1/77RmVM4oXjQFK+jKKZ2qZ2QkzyKeUaZBA4nP4VIS4JkDgLxvpoGCKW7P7Okcir0oRcaLsAVstkzSRskNRTGTUsZQp6GnZV2dKF1EUyTkZDTd5JaTOpqiQ15X0+EczHVENzJltCNjOR64FnWSDRoR/NGpW5UXNOFRcH8mNJHnW+bT33w6wupCwueb+p86dGQ6rFMkSjrD5jY6A0b7QW4sgTu3HIUkkYFKoisOapJTS+lIZZvODDRmGafbCzHqwLZ0iwGUBnrH1mpSzkhxL8lsojsluBHhISg8+Wx4JvpIYUa+DhdEqyixHQh2OKMbYb3BiMsRDy3PY99qvwm1/94dxzdvuxrgpEPR7yj1pAsRBLBkkZnmYUZA9xb5kLniN9J8BQikRbRS23ghM1V7rYETbRK4s8eyfc+6Vz9kCDiA8ZxNe3ifYDCBIhHfRbfEVDNvN6FvzpxxvIukqN4JHYaTRcqA19tFkgkG3g/r8Ao6/90/wpV9/D6rPP4ib6g5u3n8QVZlhfrSESQLk3QQ55ZcrD1FZC0iQdzYSzVxgyLHNZSOlhrTyREOo8IFJCAEJ1EiQ49jmJgCBaWAfdaAjm63zoAORyJijpBnBM/Lj3AbTa58XE8RxJE6eXQkyrVEmTpLrQDJgAN8LZYSxSAxzAiEHAKFCVhTSgjeajCUClfS0GU5F0hydp81OsJbOGjYJhgo4GiRNiF6Uos/INYoQdlLUEbMkJYqqELuGVQC/JGc+RBLH8KgJQGVJroVCU1IGUY4EMxlS6iEmEda9QryLAYQpIJCswPq2PWaCmBERQMO9GEKqTLT0AhRZLqCIZQ95X4IXc1+JbS0uEEBmVRYZlnOOhbZsivs0JRO5xab6Bzq1Q3UHlIhZCtdCbU/6JwFjlyWBvJJ7JSLBMwBWywyTfIJe0kHE7APvzboU+W8/iLGYTXAyG2Px0G684ke+D7e+4+0ID+zGcDRGr9NXeWWCJQFFLHHoxFHyPDJDUkwMKVf3aMdO6b8u/MzZqR8bPnRbV1su74ePW/0lbwEHEC75S/TiLXBac7dZdfvW5kG1Ph1vJwtseOJ5NeqSUTGdiYfVgkn/En0/QtQEqBeHeOK3fg+feNe7sefsMm72e+gzdes3iLsJRs0Eq3WGKOrCb2IhGgoHgEQ8SUNLYl4cSCiRs4owUbCI0TA7CAQAtEoIU7BDB2Zq+NLyRw6EcTh01uAYaUn5s8OgQVkW0iKZxqEIMVUFxw2X8KMQYRJJJiMflxjXJZYmGeayMRbyAitNiYwhbpKgs2MWMzt3Ien3JXLlmGI/ihAnsXQuEFAEkXYckDOQFzkm4wnSMEI3ipF6IarVMVZOn8docR7NcAkYrWBvv4OrZgfoBxHKcYFsXCAMUwEX5B3wXL4fCmeCoIPRL/kQLHdI94REw0btcROUKJRNyaPrL20bqC3XTKWFaSMjDMTshAy9ol3ZdlkrEBNeiGRnTLbAZmwMf2M6oMuMhxZFASojtoQlRd1QhKnWPg9ck+R4jNJibUo7MruDnSwVhbh8mcjJi1XUJXJKIUch0jRCNRpLuYs8l8yrRWwpbkKUvA5BhAeyZTy5p4uv/bEfwu0/+DcQ7d6B1ckYgRchThPJNtnWUz8kz8NkrVBLGYJdOzYLon+zXJjWHtrZlA0fdZc8ePGefe6dNreAAwjb8M64SEbX1KrXIpxp/bT1AlFGNDaTcrgESMaRmAI+a8KUsCVJb2llCV6ZY293B+qTczj7e3+MP3vXL2P/YoYjnRnMVA1mds0gGy3j/OJ5eAkQdRJEVYygIMjQljJx+GYSoO3xF4LYtNShzkI8GWV4WxLIdIoEDkw72xQ3SX8EH1YbQDsupLCvj3FyB/iWYYCqyuV17KfneRazVZxbXcZqWSBIO6jSGGUnRd5LMel1kPV7KOIQO/fvx76rD+KaG27AweuuQ+fAVcCe3QIcJB0x1SpYc8RyEaxsIP9elMDpc1h86BGcfuIxnHvyGJYfPYr8iScRnDuP2azC1f1ZzCY9FFkpkytpnzjme2jngwx7EtEmQ1ZktE6OCIWdzLyI9jhrztHgN0sxUiox199KVNM+MttCWgsVbJBYKaYvlRehYw2UK2HnFkjrn9kzsxeyVQMW5JZiKaf1eVwDDnJBJGLXzMOazLTkgUTmmCbVhL6UOKRtkh67EpVOZjXYBkvglKYpZgY9ZKMhsipDzoMjZjoCxBRUGk5QeiGK3bN4qB7hUytn8db/9cfxind8L6IDe9BQDCGJpWPF5DiEJ0IwRBVHHdRkOhyMrsOGIsL6DJ2YWVt/NxOJckBhGz6kL5EtO4BwiVyIF3MZ6wBC6x/WTUlUJuQ3diDYQJIFdqZxPRQmja594qaOr8w6eUDnTYO8VDXDsNbyQHb0OB5816/g2B//GXYujHBjOiuDliajIcqgQdAJ0YR0yiXKvEBY+IgblijMHAN5wlqtOlPeMMCBwjXiB9mrzsi4rGVdnPDIM+Y+uxy000EH7zTwjWATnRiV+FjvVyVETfHzfJnU/IFhXeDceAWZFyDeNYtgxwDx3p0Ir9qHUSdBZ88u7D58EHuuvw796w7Dv2qfOBAdqKQcABH3scN9xK7tDIyRlpb6vIcm1MmSzFZrlwSL/ZqqrpsS9fGTWHngy5j73P1YuOeTmL//AfQnNQ7v3o3E91ASJJB3weyBSCXQieopCo6MJqnRdEpMiZV2LDd5pZ6WZ+y0AQEPLc9NJ8ZSTsk0Podx8XfMHpQNUp7XTMq02gzSFmp0GkTjgXsU/oJ2ALA7RI9VcCEu3rynlZXmNdFM0vo4XAtFzI54IrUshFApWZjjhFRKHgK5A5FkE7yskOwQ77k8qJFRsruqkAQBuhVUmjmIsIIa570Kx+sJzkbAq7/tbhz50R9C+rKb0fQTjFGh4D3uBeh6zNSwc6UW6W9x9LJWde/UqSKglS/zQdPml02IF63sl0Ij9+Us8NJYwAGEl8buL+m7XgwgqAtS4pmkcy1AECIf2fcNCqbVReCH6vYeEmknVDY+H87sNpBe8SIXB01+wPznv4gv/sdfw5Pv+wiuzT3cumMf4pyliEqIZHxAsywQBOok+ATl60hQ5ForqZ8L5U4jW3n6Uj0wkt+L5gKJjCTsUYiJtX5J3XsoPTqAWgACGeb0PKw7x3UgXRRB7SEJKD6kKf5hPsZyk4tYzpjKfDv68PfuRD7bweDgYey79Qh23nQdZg8fQrBvDzCYVQ4BSYH0AkyFs0tRBI/06W5r6RYgSDJELoLyA2RqocxnaFWspR2UtW5Nz0vU7gGjskKxsoIZBEgKAF9+DI/81u/i6EfvgX/6LK7tD7AnTUmm0FEO4nhV3pmMfHFetSov8qwk21EXgBwNmymg86cIlZQORGNg7XdctdTaQwjw6pC0F0aytnI0QccPpO2SksW9Tgerq6vSnUGegtmx6j6QJMpdSRum8gzKkm2jBsCwQ8V0ZwjVryimGQSxiQVfBAj2/jNgUniZlhIj76qdJdwngaGobRLosouBIl2hKl4SPPiTQkDPzp07MDdcxoSlr52zeGLxHM5VY1x99+txx0/+PSS3HUHZizBi+cYL0fEjIZTSnj41O2R/3Jo0qIoyowhjtFMkZt9yj5h5DhZBtJUwX9KHhXvzbW0BBxC24eW/WIlhGtyYMccS+UlwS+elikPMIOQSAXnC0o5MqpqRFCN5pmojOrZ8LKTA6vgZfOzf/AIeeO978IbZa3F9kMJbGYvnpH8TRxRq5oGcAPliipwMeNERUIBAp8Uas4AEggE/QBREoqNQTnLURSmtfhwfTWdIgiDPy9ZKpn39iEx+PsArHTEddRBWHqrV3LS9hSiSEEthjUW2xu2Zxd7bjmDnq1+J2TvvgDfbR7JjBvGOAdBJ0VA8h4RGidDJi9CBUFIrN5P9BNyYscDi7KjsZ0JIGWBM0GXklKehJdP0dBgkSZr92utC4EXbF0UhIChtPAzCFMWjT+DEx+7B5/7zr6I4+ihu6c1iX9yXIVhhlKBEhfFkLDbo9HsYT3Kps4d02nSKNRDRcZobg62UmQEI/B07AAgSRA6I9wCJoCzXxIGQJ+lcCRCashD2fpUVomrYJUAYjVAWhc6NMPwOWov3Cuv2zDzwepF7QUxETgCbA9lRIuOVpV3Qk3MwE9CWN7ZzMaZkR5txkX2og5b7R4AILU8hJaORISiNQ8NqNNLxQbDooxpnch8NZvpYXF2S69mZ6WElG+LxMydxKg1x/Xd/J171t38Q6W1HUKQBMj9C3XgoRxn6sWaOiqqBH3Lokyd8CM3CKAdDukJkTVMMqEDS2F9orhszC9vwOeW2/NJbwAGEl/4avGQraAczdhH2ASyggA90kevVWQGSzDVt35xzwN7ziqWEMJT2O7Z4SVkhy0U9cOnYE/jgv/45nPjAx3FndycO5h52V8AgSTEcT1CGnKvAaNuoz8nzU9OzoohYMTrj733JXFi1QZERJoiZFPAqTwh9kjL3PUwYFUae1Me5WEaeLB8kfoj+oAcvSXD2/Fksjceo/QB5XoFw5TiBw43X4ObXvQbX3f06eLdch2i2i2hmRjgD4qylsG4nLWoagHYhe1+6E/xAsiD2i2tn6poOVCLxkKRBhQg6P1JzzdKK2NL2p6VlhoUp5ai70zZO7psRObMUTM3Tj4SUAl4eYeUzn8eDv/Jf8dif/hluqBPcvHM/qtWRdDtwTkF30EdeFVheGSLqpmpb47zYrklNBzp5llVkdgM8+Vla+giFeEriILMyDcpQyzW9qINHTn0Z/XCAQa+HlFLGUYIqL5CXVDD0EbPLgcRJKxHdMJtBjopmOciNoCx1GHFmQiPH5UWGLCtEHpmAsD/oC5iwIbjcp6RRMDtEjkVTI21CdLxQZnKIPoGcnOs0AJTXjjYjcJUWUeWmkoWKowAAIABJREFUSBmLxxIDs+OF46JjDoAaYVwViAcpmtjD4mgFpycjHMvHuOMtb8XX/NQ/QOcVN2CF5M+4g1Jkvj0p8xDYEIvI7cAyjNQYzIwPk6nj2BGbPRBBJo8lLgJvV1Z4yR6K7o3XWcABhG18Q2wGEMRVsURAJ8ThSkZmtmAkzNYtPsDYgseIjieIGaX7EkGy598bjTGIOyjOzeMv/u9/h0/82u/gVYO9uHP3AextfCwdPy6RIB1URnVFAQhKe9Q2OiUlsrxAoiG/NArUVDLLHkzViqJhxXWW6CaptNKt5hOsoMRqk4vwTSeIkFSeAInV1RVEaRfBbB+Pj5bw5eWzOF2PcOMtt+NN73gHZt7wBuCaA/BmUngdX4SdVqsc47JAmnQlugxZyTbyx8IHYNsjyx+sxZuMisAD2/rOcouk90t54ms7pG0PVYAwvQYtfQDVRtB2SeEfmKZSpsYxYQtjCT8OgDjAiARKVBgEIaK8RvPkGTz4S7+OT/+XX8ftnV04HPeQrSxj997dmJ+fx5mFMzhy5GUym+Hc0jw8tqKWlUgVMw0uhELyDwxRkvtOSu0GEIIqSwBSmqjE5hxsxOvR7XfgRQFGi4tYWliUe6M36EtpgRmPSZ7Ja5m1IIgicJBvoYSoVDSzJvqtjlxUKSMFDwuLi5K2Z5aGP9fsgTrccJAKIGmGOfys0GwIwVqonBXaU2aCGLuKuqSQG8npMGRU3k+EbVRiLCt00450PCzlY2R+hWDQQdyNpTdhcXGI+8+dxsu+46/j1T/9U4hvOoylpkQZREi9GAm1EUQLpJYppUKmJRgxGhJSFjNET+VLaHHJliKm5N+nSvVt4+eW2/qLZwEHEF48W18672QiF0nBmlVN414jHCSpcXlGK/O9EJqBig754xwFhyv1u6jTAMMyEzGgmTCW1rLqxDl84Kf+Txz72F/gZYO9uDrsI1oe40C/hzQKcf7cWQEeQRxoNOrre4l2vUTTZtANa8aSmqXgj35Lad6OcmaGoCoRxJEQ5oYTqi/WIkbU8RNwDlRQkiAXok4SPLp8Hif8HOOrduGV3/OtuPWt34LgusOo+12wfYKOgxEsHa7U1MVhNgI2yIjn8CetmTPCr9ZF+KyTc9U2hW1r5BIRG5BjtSPk36Y7XtL2tpXQZBFExpfSzGbcjybH17oORTpBkhm1THQsKORDZ83jiUXGBU78xu/ho//2F7Hj/BJetf9aRJMS3uoYO3fMYjweYnm8inimj1wyQ2vKh6ozYGr40laoKXICoFq7P7V9MGekHWM+z2R4UVxQXbLEqBwJWdBPEsSdVNpByRnh0Cqel/wWJoy0NZX8FSURUuBJWlVlnKU6beEmBL7wJnKKSsnYauVGsEWUQEmAYxhIdiasfCWbGi6CqCAqYUGvTesTKCwaKZ9pLwLBGw8gBYYAIQlCdNiRggrzk5FMEE3SWDJb1Nw4ubKEhybLuPHt34o7fvr/QHT9AaxUBcKogzSMyQaV83g2HcDPEcspBCS8x8QmpgVUFDN1tBNBmsh3SHLJIIRNRnVfOg8Tt5Ir2QIOIFzJV3eLvRkytUl5q+MVhTg+myRjoA9oifBE/MYXAlc5zuRJGg06MiwpqyYI6ZirBtmx43j0Xb+Oe979G7ih08Xt+25AuTxGtrCMbhxKqtWmxpmyZiTLmrbU8MUZUbiG0aqqHClxTqSHVO9eKgdM2fMIiiNxVDQJlJ4q5MWJOO7VSYFxXWFYNJgvcgyTENd/7Wtw+I1fh913vhz+kWvR7BpIZ8OEXABpwgjloaylAgNWhIdRq2aCKRTT6ROQSJRd0flQx0Ahgk5g1OiWUbbOQlCBIrMLmR0gzshUypWHb9sJawEitlWPHAtxpJoB5/ghcY4MpKV0XhYqxRxGGuHT0bKLowDO/cmH8In/+CuYu/c+3NbZgyOze1GcX0AxHErE30SBACrmwXkd1HHRgdfaImhIjiyvEDAyY0KASHGqXh1hWJS4dzKPa+68HVFWYXW0jKTXldkFJPidPHMKk3KC0IuEU0ASItcasxuEGRe+D/kPni8/Y0ZISYrswAiQhKGUqmJRi1SgyLUZ+oAp0zBzxWsWCvlUUIQBZNyPdK5a0SVeN9MaIiUoC4Y4sZHiUnxhSP5DgMnKKnrdLpI0xagokDE7xt+Pxug2HmZ27cZDi6fxUD7Cy777rbj5H/4ddG+5XqSwG59Zkkg+L5oZUY0EyYRNZb6t8Ld+SCVrYBQjpQgl9lfyr4BS9+Us8BJYwAGEl8Dol8pbtksM9hGkpDlDBrPOzbTnSe86Uwl8kEc+craHNRUSOtWiRPXIE/jsL7wTD//B+3FzMovDvRlgXEiXwPLiEmZnZtDbvxvnT51AWRVIuqm0iVXSwmbLCvon3bGK9fABz4ieLYc6iIcdFTGUQe/nhRAUpYbd7WLUAKfGqzixuor5CBjcdBMO3vXVaA7tw51veB06R65HybQ1I1uZj2C6LoQvZ0ZEM0wl8dCoHGq2nRmMNYvRoZOf7tFrmnFQkri20yploBPFioR5Nx3yIOllVYDWLIKc25xXevxNe6mQNpVAyGI2ZZQLjxMKa2HfEz/RcdLJJjU7FUjkq+AloRD6Yi9EUJWY/8zn8Zn/9h6cfP9HsH9Y4FW7DqIzmgCTidbFSQA0nALqAZAPElQ1UmFKejIIKxcdCXaSsK2xElnrQdjDI6tL+M2Vx/Gzf/BbSNIZjEarCChAVNdYWhni/Nx5TEiONIQ7tq9KjZ97JMgcjlAtD1EMR6izDMOFeWSjEcbDIbKVIarhKprRRHQ09oRdkdTuNqqO2Asi6RxgiyHLGHL/eOR4KPFSWBt6+8i6CebYKUNgV7FVlARWmZlAPgsvtxHRSiMplawsUr+jlvdgdoYAR1QXiwrdOMFodSiiV0uRj3vnT2Dvm74Br/2n/xDpy29CTqDFlsowlZKNH1Bu2pTRjC0UThohSE1ytEiK+oSgGNhav+al8tRw69hOFnAAYTtdbbPXjdyDdfGJ4AOTdm4Lt0g9QjMMrBMzczCSVkag3wQY3f9lPPwffgUPv/e9uDUc4EA6QFXmEvZywA3nFPC5nSUBRqtLCKS2HGhXggy/YaudzkyQsb/S1sARz2TUVxgHFQoCBFSiq5AWDWYrSi3zwaoP+0WvwX3DORwPfFzz2tfgxjd/E2bvvB37XnYE0d6dAIWOGo5LzhBRsph5CcolUy/AqvaJHLMqDAowkLq1BQuS09DWQ3IkxMur6JDq3JjBSFYOmDVzITYaw5veO9Pqr++5wfhrTHbzC0kzaPpAyh8htSh0loROFtTuj4Z8jIIiQIl2npSl6ZgAJqdO4eH3/iEe/I33YubEHF4R78QOXo9JJscQKFGemgRPMuRIDk05mtrzkbG1MvJQROSG1EJW7FTkokT43OoC3nugwi9+5uPoJjvWNiOMO03ZT72embA5FQjICmCcoSFZdZIJqBmvrqLIMowJElaHyIZD5KMx6iJDf2EV4XAMf2kF1cIyysUhypVVVOMxzp45qRwEZhIov91oe23SeOiGEfyGnJUAcSdGKKqVJhPFcJ5Yy5RQCM84w4NtnJSsblYzBBRaIveG3AgSK5kJoijWeCRDxXbt3oNH507jgXIFe77tG3HbT/wwdtzxckySGJ6fiA4Fs1EioS33ld4/tIPYXhHimjaWYjaVR7B/bsNnlNvypWEBBxAujevwoq3iqcCBlBLE2WlqUxygIclpvlnb3Mi+JoEvCXwRlsm+/Dju/blfxNn3fRg3Vh5u6u1G4DdYKcci90vH1e32ZRbD/GgFvR19dboSJjGVT66B9uKzNZIAgdG39PBHPiZhgyxkz7pI9SEY5+gWwJ6oL3LL51ZWcG6yirOxh97rXouDb/lm7HzdXZi99hBqlkH4DGYtW9oj2VZHLoNhxMtwRiU9aju9Rp6itWAVIgV+qB6BOD4b1YvIj4+CxDaJWNlvbwr4fMCb82mrqHY6SKeb0Zhoh41tUUWpTZvsjTDf7UWTv5CTT1ClUT15EiTTMWEtKfaq0imX8kLTclLmqFZWsPiJz+C+X/lvePxDH8eRpIc7dl2NuKxRViVWUcksAiQBoqJCMqbMNFAnEcadEMtVJuTCQZggzCssLq7g4bhB///6O/jqH//b6HCOopQIVGZbWlJJQq0rM+5aW2YZifMaKBnWNiW0SDFTwGRrHHrfMbWPrEQzmYjeQjnK5c96MsJosoJmMkazvALML6GcX0J2bhHlwjKWT5zB6twcVuYXxKk3VYHI85B6Pma8SEZA9+MU/SiV/TFLw2s5SHtSMsPKhH2l8plgN8oo9jHppYijEPXCsrTz7t1/GHN+ifef/TL2fPsb8Zaf+aeIrj+EKohREsT6HFrGfagtBMyxDVLgpihSmQ4HsoJ5r65hLVtOedEeEO6NnAVaFnAA4XK+HZ4my3kjKDAUsLXRxq3MAlvMyLync4vZ10+9AqZfpTffQ1axRY118BK7mUl4/CTu//l34rHffh8Ojhsc2bEP9eoInV6KUalpbDpHcWZsOdNivzK6pa2RkVQgUxFZg+XIXkZ8GQqs5CN0ZweSachFKKeSFrIdZJiPxlgcTnCmyHGiqZDecC2ue+M34NofeQc6Nx4GYkZvuYj5kKnP6YZWotfKRbOEIJMGya4PYp2ZRGl+yRAwCq+FxBbFhlvgByiZyifAYI+7zGzggB46aVUIZJcDsyoCPzhkisJERs1PgQezET5qIdMxKtXx10YxCRBSHzsJdLjSdK1S2dH1JMzKeOwg8EUmeEwSqdTuNcqlA+xwLYIniOAydVA1UDz2ON7/C+/EI7/zR3i1F+OG7ix2DGZF/fL8yjJm9+xAtbSCnV6MbDRBd8csloMS51eXMJsMMJto9Hxy/iyOdQK86VMfQnzTtagK8gbUTirTvAbAlGCpnt8wBCQDYwGMUgV4byhZ1X7p35UTE0Xkh5hsCm1tMyv8IS8cQ3W5b5lN4fRL/a7nF1CencPyE8cxf/IUls6ex2hhEd7yGN6J8/AXhygWFlCuLKMpJmi8Qq7/wAuxJ+xhd9gRbQdeE3ZtVP0OVpMUTZYjpp7E0hBJ3IE/6OD+0Sl8PpjD1/2tH8Ur/t6PIDh4UACcVwcYryyju2Mg9xV1O6hPIeJiwp/QEptMDZUW0ylmkPtorXH2cn5YubVfjhZwAOFyvGrTJ2grdb3FPtaDBKM7sOE1jFwJDmRYkdGzl2cxiYlM9ZPMJ5FfjVlG5HNDHPu5d+LTv/RuvLK7EwP40gNP0pm0FXKsMXUSqJHAwDtgFKmPO3IMbAcFJyLyoSypXgIEEtH6IaqkxurysijUzaY9VJNM1hZ2U5xYWcKXVs6jvvoQXvl9b8fN3/NdwJEb0fQSIZXxPGk3kWiQSosiL2xmA0i1xKT3VaGRzlctxHo0GftKiuNERc4ZqCQFTtZBxNSxaD7kGI5HKJtICH5kDYriIR2+6Ad4iCKVByaRPRCiIWWclVtRFlp+EOdplfQ4x4C5AZHqVdlgy5GQbLhxgt3GF96BaAtwaiV1qaCTBKWV0PPQRYCUe+BkzZzKkoDXjSCkhuEYj//q7+J//PwvoHP2LI4Mrka3MyPS0nE3xPjcPA4nA9U+iEMsIsekzDFAF3WWI0gDnFxdwMI1+/H1f/q7CA8fQJYRZPG+0YFQkm0xX1ahsTX7SQGYKTtMMYG0rJhuAyOZbL0ja/i280OuHbNMRtBLsl60FTspBOxRRCuQ0gCBlHSWmHLClC1IIsiJeeD4SWSPHsXZx4/i5JPHcObkE5icX0Avb+AvjuAPMym5UPcjSWIEUYjh6hgHBjtw7a69aLISE5Y+OJismuCJbA6n9nbxVX/3B3HND78D/u49OHH0MfR3zWKwd1ZAY5mXiNOOlOo4hnvaYSGZLu2eIWNBPhNOE+FyfkJf9mt3AOGyv4RPAxlsRoKeZh+smzYPXTpTkqq0TKoytZVO5SNhbVJm6PoeusMCc7/xR7jvZ/89rlqZYFeUoOlFGAecg+DBo9Y9/wyZBicRUR2xOAtTqpAEa0MBINPOKKQ8OtkaVVoj7gVoRmN4oxzdgI7Yx8nhCh4rh8gO7MW+b3oDXvm934nkrteg7MYoGHVXjQznofIfxyuTlc7Ilg7CPoitJL50EpgcbkWJZrbXcRSzgCPtoKAPG+djxLFGsDJVQXrnTQkEoaT4RXCI/e+V6vGzPFL5KjbFCJTgYLy6IrMUBoMBoYaUCcTCohio76kTFqd6QALICE1kEqOAM6pMeuK8RQiK2QoKVTGTIJkXVeHr0DnSXxa16kUwU8IBFZGnUwbnlnH6d/4Qp/7wQxh+6ovopR10Z/uIOgGy0+dxVZ2ih0BAHbUlmEXaF+/EcHkZWVTjhF9g77ffjWv+zU+j2rNDRIJEJEr4B8prsBmDKa/CXHtL5pz+Xorta3uW3IPhgEilZO1Xer0MRUV0JNiOKrwY5ZPQJnp+LRdZfQqCQwEtQsA1HwhBijyYd7t+CyjMC1SPPIlTX/gSHvncF3Discewcv48iuEKOmWGw1kkI8tpY+ItXreDO/ZiJuliuLKIJ8ocD8Yl7v5H/ztu/uH/BTXLEuUEcTeQayOdDNRd4OvNfUYbCVg17bXcJD9HDiBc6Q/oS3t/DiBc2tfnua1uszaFC7IPrYOEDKeOSNrBhJylteO8omIdA1CmuEvMvf/P8Rf/5F/h1lMZbkpnMakzLCYl5qoRdnb78Ci+4wWipsfommlnVQ3kty5CSIkNuQEUvtGsggCSpkGWDVEVE8x0UnS6XSxOVnF8sorVnQOkr3klbnzbW7DnW78F1UwXq36DIYcy1bUMzZmlGE9ZY3U0kYiPxD2J1KmUJz5EU9SWJKgtiIzcSTFQZUN+05HwoS0lmaZAk+dIEEir4NJXjqPKc6TiJBrEaRdR3IEXxvBmBsDOWVQcBmTGCJNpz758Ci/FIp6jI5gpxcusirRWIpQuBnFmmmaZOkM6u2lb/HSAljGkMPQ5REvBBNtFWeZgBEqfScAigkBCAgCyqsAMMypLI5z/r3+EB37uXYizAjM7OZIaqOeWsa+I0SP4KXPkCVn4DWbqFFmR42wzxqndXdz5L/4JZr/zWzDsRDIMSToHjTz2tFRgWvdso4Zl6wsHzzL6bZRs9tu+6fU8BDj6U9WXWNPvaAMLO05aAZaSTFX3UqckaklJO3RkuJPhjbB8UDalSF9TkZMS1j41NDRVoaWQyQSgWNPpOZz5zP04ff+DWDp3BovLS5hbOoNgWGBvEWG28TGpavzV2ceR33Ad3vKTP4mXv+kb0Nk9q32M7DIhKbSspEQVezpAStpY2bFjdB74vhSncgDhuT0C3aufmwUcQHhu9rt0X72ReGBXaiKyzRYubXwMbwxRS9rvPLb3aXxFvgBlfSnp++H/7aeRfv4o7t59M4rFJckc9K47gBOLZ4BJgX6nIylfRrdWGVCCdSPEpGI5yjtQ3QMKJin5jg/LmTBCMR5LWeMcJjjlF2iuP4jrv/1bce13vRXxDdcgTyNkno8lkvDYnx/4UnuX1DpTyFy/aN16iES1Tz2LcAKMt5UfsfbLN/UbhIwmKdwjaChQjQAqM1YlihMnce7+h3HqLz+D45/8HOqFBRxg2rmq0OsOkPZn0PT6CK+5GuGRG9G59ip09u5GZ98eAQ2sXxesN4iWQy6cCuUtkFlvqs10FpSxNgBBglspe5jRyLYEYXQLrLqkjMSW6k8tjo1Qg/9L6cGMrmbZheCjpBR1XaGTFxj+8T04+jP/H/y5BaQxsx45onGJ/V4XKZUvV5YR7pxVDYe5IdLZAR4q5nH+5qvx9f/h5zFzxy1Y9hokYaRtoMbxtmWJ2pMgqRdhMwfi+m1WwabT5QcbOj8sX9TctALs7N+nf4Gk7sk/0BkO5IiINqLW+k1JSWWsrQ6F9puyLEMhJvJvRH9BhnnpsDKqYHKAWOh7iHgvkXDCMeQsfZUTUYhcOHcWo9PnEI4yDL/0MM586RGcXVjCp08dQ9GbwT/4l/8MR974emkhzcnjQY1M+Cls1Yzl2vKKS6nLDu5kaUruDSe7fOk+ZK/8lTmAcOVf46e/Q6Zuma41U+ZEqa7O5d+SAi895F98CPf8i5/D0Q98AN944AgOJDNYXR5KjdpPQ/QGXelhl1pyGKMotP4tQ4FsCt1EwGvqgKoEwPY9zTR4yvQOA6zEIe6dO4GZV78cr//xH8Xs6+9C1kvRdBOUYYhJXkgfvLSMMSrzanQixrOqgiiDk4zIkzjNaVpZPYtIHohksgovEcCwTkxuH/kOEoFmOc5/+CO4771/gOOfvRf95Qo3pnsxUzao5hYQ0amRwBb4GLH9Mw0x7sU4G06AwQBXX38EL3/d12Pn17wK3jUHgJmucAwoVKTRrKbkCXJ81swN/8PKNhMkWNa/WEqmVKr8NKNbqu8JO56AoyRvQts0ed6JySwwadIliPI8jGo6dE9mZiz94Z/j8Z/5RXTOLSLmCjpawuhVKmU9ZqvqoCflmnJ+GdHOGXx2ch6zb/9mfPU//0dIDh7AxGvkvLIcM6tCGz4v/LJS05oXMMOLtLVDha8MfLBtfjLUqF1ikCFX6kxtxoDnkeoByy50rMIFURvYmSKyPEOLmL5W4YOO4jZL1ZR/IzNGSI6tZN4GiYRs/yS4rBHEsegaZFWuQlOUVK5Z1glRzi9gMreAIqtwfnkFozLHdUduQLproMqVXiOglyAo8iLJEkxHqptyl+EIy0W3KppP/0PsjnQWeP4s4ADC82fLy+9MG57hSnqvZRIddewZblcoNXriJMRHj+Pef/3v8fB7/gi379qHfhCLE0+iBH5RY+7ESRzav18e0sMJhyGp3j7TzmxjJAlR3J95X6PZqJRFUe1TOd8s9HG+KHDf4nFMOrN4y0/8OHa9/dswc/gAqn4qEXHBBzajRDoElgPoGMUJFCBXjkxxKizGnQ6L9BqpG0Ej5qtV30CdLMWXiiqXdrSYEkzMILCWzWxHUeHJ3/wdfOo//TKSJ07hYKeHTuVhl99FuTRGAmCGJYXQw3I2xqgqMEKJYZEhnulKS+i4qFF0YjwRDYHZvfiG7/9eXP/mNwOHDgLskJAx0WwfZSsnJwNyL9qqaBIbUykFAhdqUJBzwP1S2dDK80r3A1UlpaVS5xmw7EAVTBl/XWp0XYdAzGswv4TT/+X38MQv/CoOjIEu1RlnOpJqr0eZyh8nsQwjolhQmNU4W01w7uAs7vjZf4w9b349miSW+z6Q7gy2yRqlTCOBsF7nwWhFTEdgr31kxMm3DzYCUlO+gM0YrFVepmkEZgAkW6DCicrhMCKEopZowMRGKo6IhhpNCytwJa9lOYdzHHwPufAc9F7jDBKCTnYZUHBpXJI0G0tWRqZ1SrdKLpmBOivgRdRCoLhYLmCijjyZXUEQTAgr9zzvWzu+nHYxGRad82EUFi+/J4tb8RViAQcQrpALOQ2BWvyrduS17uEoEYzWaCWsanO2WG5lC56kwqn1nyOuKiTDDMfe/dv/P3tfAmdJWV1/aq+3dL/unp7pYQYG2QVkERABQVA0mkhcMC5JjEnUGHGJETdQUBEXUHCJK1lMNCbRLCaRvxrirqhIQEFBUECWGZZZeqaXt9Re/9+596vXr5thmIERaH3v5zhD91uqvqr33XPvPfccXHfhx3GQ08DKiTFs6s5iS94Ty98GnRr9OqJOV7JOr85AYwRf8lyCM0vcBAm+6wpjnqRDyYJTlujriHo9pIEtCoiXz9wN/4iD8cyXvRRTz3i6WCwz8pOxz0SR45MMjJxwoIKgbPSUcfZyOCTjySmSQ8CN3lWCpByFZmUSzETTQVUa0yKBZ/sISjUfotgODalu/vwX8MmXvwynNNfikOYExoIakixFFMUqz9zw0ckSpAyiHicZVDKamv1B6SDIHRRRjk6cYq5Msa3IMO2U2Bo6WHf04TjuRb+P1kmPB1p1IHRlKmGuyLXdUqiSH81/HJF6VrvrbsKWChAGnpAxpTIimXUhLow8L56pEOiofCl1EFY5LAEXvTRCK7ew/r//F5e/6Z3Yd3OCRzen4KDEfBnDr3soogRJ3EXYrGNTdx4jI2No+jX8aMsGOE85HidfdD42r2pipNZgQQNOLuwHZNRCqCYRyH0wvAGpSsk9p3yAyqq5P40g4lwLhFn9vZoyLSqyCzdEr59oLgi1sCoLmS/zQAtCbKYNcKi+AzJVamzE+QrKWbPqUj2Ukstyv6loGQlwEfEyyoxcS14L3ntFkqsHBIGuZfwXOAFL2WYKLAnxkH4m1N9wpKXkkpgrQl0Ep/w88nFKuL5WkETxUVok6s+wFNz8umxbw/N4ZK/AECA8sq/Pzh+dyYrF4Mb0gUVwx5RnucGwTSAsbtoyS6al8+rc2pj8MOpQ9IfZLGWUqTjn9CI0CltEkH503gUYu30aB65Yjdy1MGOlmHcLMa8ZjS2M2B6iOEHXhhgolXlmtAVKYfJzEyU5z2NG79romEA3UmuiFycoaj5u6WzFdclWHPNnL8bRZ7wU7po9AIfsQbfviFeNvsumroxKXSdma24m0wh64qqwyLMlICEBTSyNjCohgyk3bUo5F1aOXtzDmN9ELbNgb5zBHV/5Ki593wcwfudmHDm2CpMlX61jhQzCDACRU6JHPwjjNMjfM2hTxc+LSnhpAa9wZFYeYYBtaYyN8zOYTbpIAhtxLUDr4P2w3xNPwB6nnAD3sEcDI6EoF9JLIuP7cMTOdjXDtiwhjCovwULOeXzHhkMiqANEdBXktbaZ8fP6pbASJUTaLR+dIkaLx3HtDfjfV5yJsVvuxn7WCFY5oxKYZtCFzWnIPEOe9VQ/IqhJAIvjHD/PE0z+8fNx1JtfjTtqJSYbTYSsTohjpfpNCEHQtA1UsXmx70AFEKqbuxpXFI0ITh4YUqFOnSiHhA+tBJhLa7gLQkFkxj8QQeVX24uo1W1i1iNbAAAgAElEQVRSqSsY5ctqksB0PETEqw+u5TujlRyCW/k5AUclyyBthxKOAFIiV2pY6HkQ8mi7Tr1GZL5CqS5wZWSBqpi2EEuTPEeNhltU9oQl+h0dZKj7IYIlRlM7vykMnzlcgQe3AkOA8ODW75HxajLH2WQ2QZIAoXK8qzZf/kw2QjEfylXjn5kNSWts4JpJL7G79S30qJRolRiFg9krfoIbPvAJxN/+Hva26xgNaujkKVKWxz0bXpKjnlmySQopznclYFK1ju0JaQMI9dzo0Rf0G7Dhej7mqcdvuaivnsJV99yBeyYDHPb8Z+OQF56OxoH7yUy9lIk9v7/pV11p6VhrE3nhoeYFJpyoqFHK4MYqRl9Pn9wEyLGLF4SVIykiyQAbpYt6D9j21e/hRxd/FPH1v8BaP8TqZkvIl9RDkN6wZHfaM6d2hGghsFVgAhc/i5UIbadomZoVkx4y5EmGVa1RJHGMre05bOy1kY02scfRh2Ps6MMRHn80xo88FO7kOFIDjkQPgW0PthXEvEh9Mehv4HqukixFnyFXnin5ExnEAtpOcpRxjNROZZRxy1U/xo8v+TS8y6/G3lT6i4GwDOA6HuYs+hemcCmrjBRp1MFIfRRF6WDDzBw27zGFw972Zow967dwt51gZSNETdwIB1Pwgax/B6nv4GXTWoBhA0jUV/GkgQu7+Dr35SWNkMTgN3EHRNyFp/XJKAMgpPq8JTdVfyxygDE4eGiDT9c5Xm1hmVYRP1PqI/wKFOTJqKw4SZUFq2IuBGQ2XF+syT2CVsfCXJFgtN4U0uSwgvDI2Gp/045iCBB+Ha64VAXMhkQ1O7ObkFw1aCUsJEFGGMlAtRTMwJaTWLawX8r8PlsLDcacuQiXv+k8bPh/X8GxwThqVKhjBV9eR3U5Rwx8gpyEMEhvPPM8pLolStmaAIG/lMyMWVuSSvDy3QClH2CrBdwQzSJatwaPO+NPsf/vPBnlCvVOIBmMo4qVodFiytpCZtnX+O+r8eg5cUae5XrJqqWMS7KlZpzsCYsojVWgl7Th2SUalgt/4zx+9oG/xi/++tM4bmpvzE9Po15vSKVCSGMmTvTL3Fw7kQ9WUpwCNVr7slXDWjPljHOd5hCDJC1Vh+xV8+dFLuJOW7ptbOUkxbo1WPXE4zF23DFYe9yx8NeulooCS94M31T0Y7tEKJTSb9HeuFQRzEggzzmWtgRQo0XzfASnyFFs2orPn3kWpr/xPTx1cg1qlC/m7+0Qnh+KpkNSRmIlHbpA3J5FUNpojk3gmjvvRnzMUTjloxchOWgfTJcJVtTYAtE8fwGtmZGBnQQH1VfwvoiNCwBwF8LkTj21mqusAM2SMsQg8pTyhbZH+JC/tsfDNAQbMfoy3A+trKgWBVta1MsgOTGNEuHp5JQTRyFVIpe6FWmi/AfXFutoZdAMH8MVeOhXYAgQHvo1322fWO1PsnlUg+Iy068Mcd3+lCnOh0wiyCyVCWLSn1dRGuZuDJYMaiSpBUUJr5fi1s/8G65470cwOT+HQ1tTcFgWrfbGMpMRLZLZ+N4sJXNUjNkrWfZCb2CQlP6yGgxRD49l1DBnv95HN/Dx07SNrXtN4ClveRPWnPIEsV8md6DWaIipU3U+C3npQutkIbjIDr5AxTCUdQEIUikhZ4EAAbATHc7PaUIkREX2jgt02jNYUath+ls/xLfecA4mf7kJh7f2QDuOYBOk5LQqViGnSldAe+yM0caaWjJHqfFLdYJWE9LOMf1r9sTZW24XKaI4Fvb/RHMEVpKgN9OBH4aYS1LcEXUQ7bECtWOPwOjxj8VjnnIy/P3XofAcJByTE2IeCZXaslEeAoMSy9uOED1n81gy05ZlY5IGSxs24YoPXoL1/3EZ9ssdrBKF4gwl3QqdUHrjZZGwbiDETdvhtUoQpAUa4xP4zu23Y/QFz8UJF78bcauOdlFgxKdVs0n5lxJhtnOnV9fSDCD2n3GvALgo+Op1rXQTtvcFWvRd2NETFm4Yc7R874VaxY4CcYWhF6ZvBj6oeqH5e7Byp2MqFNZiC4jtLHpBeBQXkXuH7bquIeqGBH5JohoZ9dCQa3fbljF8o+EK7NIKDAHCLi3XI+vJizbFqidbbVCmrN3PdioVQwZwOhCyR8ogwCxHpIc1i6EJU8O2UEuB2f/5Nr74mrOxx6YOjpxaK6Y1zDBJdKNpEu2G2WtOy0zkhxmfSPiiQJKMoIn3Qi6fJRk7N8g8FeJdWLhoZzluLRIUJxyGx557JiYO3R8pR8UiFtQt1EbrOsPel3+uMqnFAGFx5mmCiXFd5NimgAC2F4RsRoCg0br0tf9LgFAWKRD3UC+Aaz/5D/juuRfgqSvXYQ+rhpmoC5uciiw3IkY8H4o/6Wjh4LimSC7xmG01LRLPJTr68bV5CY/OloGLdpliLupK1u+5nmSPtdJFNh/J9SkCH1utDNfPb8bWpoeDn3IS9n7SSVjzhONR7D2FpKatIQoZEWyFriuLI7bCrF7YLjplgjjLMGLZGOnGuPaTn8F3L/orPAmrsdYLkBYRGx7iVcEmEFJaPcfSrshYrShpsuWjVuTY2ungJrvAsee/DWMvfgHSgL4UJUKCCAGhrPKY7HpplF3USzC+HnJjLn7i0oR8h1nz/SCCHb7Xkl8uqgoMfMVFqbHfrNJvkvAPtgeEFJ/qn76Qk1bpWHkiEOP0AzkrBAl1OxSeCidLWI2jURY5GBTi8rIcOQXGOK7ruv3JhkfW7jM8mt+EFRgChGV8lRf2SBMwTfYq5CjJ6KsuuQmsVRuCbHNDovIEMOj8+jxStNMuJv0Q/k134bJXnoX2t76Px4/vjZWNJuZ6bbSLGH4jQFFkMgYovVbPkp5pmeZSwicA4GiXuA5K9m5aHeJ8mMH3Ahrz4aezG7HqyU/AEee/EY0j9se8jHV5CHMdj2T2zQfZ8f2HOWkzdi8/1qn4ATZm9WS2QsipIFGMYEa8Hmh/mKqAks8gr6VfTlA0fB/x+g347nnvxcbPfxkntvbEnq1x3H73nQgbNdNa4PMJsKijT5FIUzmQCo5qSFDshtUScXgUh0oLPkECOQkZRzkLeI2aAC2O0fXSTFohruWhbnnwqMbX66F0HdQmx8X34JfT9yBfMYF9n3wSDnvFi2Edvh/Kmi+laJIuZSTVKkW5UQiUrObkOUIR/QGu/8IX8c1z34PD2i4Oz0bh5BnaXgaH70EyJ4kLWY4aKxNk3FsluhYrB6Pw0xQ/vPU6FI89Ek/7188gX7dGuCtWzmupAk5gRjxYoR/gCEiQ3F5AHwzU98Mb2GGFYTtIYqcAwuLob+6aBS7FYANC7sBKSKG63ypS5mDLwXyw/FVRFjKt1HBCJXJtdMsMNctFk6Wtua60nTi+K4ROqnLajnheREmEWrOp4Hv4GK7Aw7ACQ4DwMCz67vrIhbGwqrRuRtpkcyYhkZm8th8WoIKyrcnE569o3UtxHrL9KZdsWTEaCXDDB/4eN7//Ejw2b2LN+BSmZzYhsVP4ozX0mG2buXMZ1RKJX7VQZhk/jnuiUx+ybUFeAufEad2cZtJTnc1z/Hh2C/D4x+CJ73sbJo45BHPIEbo1MB9n+5Zz9eJhYLJMJXwxgzNZ2fYW0VRRdBBeH6QEaHlaAQRL8hb/EDxx4zVSdZvu2YRV4+O454of4rJXnYUD7+lh3zJAgwxzV0ciK6IZAQDLIapcrObLVUCSSon5I0ZNnN6guE5eit8B/71161a4roewXoMTeMJgb2epiOgQaMVphlqtjonmGOY2TsPqZlg9vkIsl388fzt+0t2Ix//us/H4t7wB/j57w677QC0Qy+atWSRAoVZaWBU0YMU5Nn7rcnz9jWdj4rZtOOWgxwHrN2K220ZaN8BO7LXVt4ATCaFxZUw8Gwg9JHOz+PaWG7HPn74cJ3zwQiSBp54QBG6UQRiMX0uAwFJcsAQTbB847OoX5H6qCfd6u3sdxH1/YIUh+gB08KlLQI3aeitOKjJ6muj9RW4uATXvi65jy1hsEy6CToyvXPQRnPLM09A4eF9YXFfPEwdOGYgQYy/jcWFu6Z061UUHveTcliInA2S2h6939TIMn//rtwJDgLCMr+kCy0Brm1WFk39TmIhZpPY/jQhNJTdr3P946jT0YccgSnOEQQl0t2Hr13+AK877K6y87k4cPbKHjALOxm3YTRduM8Rsd14CHD+QwkqFuA9qpkx+Qe6Vkl0GGXusjjDgpffvuMgcB9d3Z+CdeAwOO+tVaD7+MdgYzaNwXKyojcvVSKmISBIfmfi7AhCqXa66ppWUvtFjkI1bxGw0oBMgVH3tJIplauO2f/lXXPbWC3BCOYa1hYOy14Vdp1EUdfxJFCQRk5UBFX7iiF31sYtG6+SzDagxLHbbd9VcqBvDilKEFGaiRLGxwk49C5ELdDjemBdC5GyWHpqpjSBSM6nEK3BrexO2sYUxNYnRQw/Cwc/+HdRPPgH+6nHEDRedOMJYUIc1H2Huu1fhur/+e8x/8wc4wB3FWBnI3L0V+ug5SgAlgGSlhVgp8H34RJVxKqVwayTEhs33YNN4A4ef90as/YPnI+NraLFBPOqrRfFAnOmX2QcvRwXZtM6imKJP9HuwDLydipoDX/RdfX710u287l7x1liF5wYgUJuDILn6rkaOg26aYZJaIDdtwIef+yKcfPqzcPwZf4K0GSILfflOsZ1VDzhZMsiK1APZUfy/3ycMAcIy3vEf+kMfAoSHfs132ycuVBD6dEQVxTF69iq/WxEYdR6b/fieyYY9EvdStQfm89wyQfKL63HFBR/GXf/9TZzor8Eapy6AIPMtFKGjXvVG7582u7lxEmSZucnWQJahy6a7y7lxBrkSNU4rxDncZgNXb7sHc49Zh5PefS4axx2BNke8UML3QoQUkCmNBTKrCCzfPxiAMEA0ryoIWkUwFRdTRSEhjFUAO0pw7Yc/iu+/75N4+tjemExL5L0uioBVEu6sjjHUMQCBrQZWD5YEOHEtNqQ6WSOHgb+U/nNKgSeLuhE2/ISVhUIyd56nXBtOkNDQh0AizVFzPASFI+OKAUFglsLzfVFq3Nydxzamp+v2QO2wAzB16gkIDt0XbrMGJy0Q/3IDbvjU57DlB1eLjsOE5aM310XYouQv0E4jqehIH1wCmgWXxlZcj14s7SB3fBSX33UjVp16Mo6/6J0oD9gXiZhJKOnTokrSgHXC0gC1NJjdO3lf0ByoZiF22xfkIXyjQewg0zxZJgZcIk5VqTpyzfNcRlMnXR+d//0uPvacF+OQo47Aqe89F43jH4t70h4CP4BL8MiKnD1QoBm8z3ZUBTGLvgMs8BCuzPCjlvMKDAHCcr56AzWDaryONsNsh4vEjAAEEqQqppWF2Aa6DDTU4+eYYxSr9n7gI9+0CXd+9jO4+pN/i9XTBQ5urpHA1Eupw+shogpfHEmpnOqHlLhFEAirnrX8Vu7AzwrMZxFQpzcBUPQSjPkNxFGGO6I2osfsiwPOfDkmT3sS2k6J2HFFqplBmy2FUHrburWxAFJJz+5Ui2E7FYQFF8CFjFUmEc1IhBpYioMT3F6E6y76K/zoI3+PJ7fWoRklAPUeRPiGnRnHKPBRxU+V8LTxsPCQt628JoxgFUc/I6eQ4B9LzLAxUlDIKJeKCzkHAtJk5JLiOZC1o1kUeQR8T1Ya2B7JUkpC0yxaLbK7cYyZLMEsCXAjNbirxqXKQ0JksmUrsHUOo7aLybAOO0llnSmfHMsILODl5EeoeBbJiSWV/Eim5LGVFpKREF/a9As87jV/hsPf9mbxwEhJcjWghpLc1Tkv+ioNlMSXVgoWg4aF9VvuAKFfJSlKqYLRXrqk2RcBgplmaSepdGWaeYlfvu9juP7Cv8ZIaxR7//HvYd0Zf4RoagwpuTpJhpFaDb74oAwi3e2MVy4FDjsyZFvW+93w4B/qFRgChId6xXf755nGJ8uSDDLsecpnqJa/+gooW4qZLgNUR+q8lBMm/a8UoSOSpuavvArXnvkGZD/9BfZrrsZIYxxxmiJNeghaTZlySLuRlMbVKpkGQ0qKY7BspKX4FHDL7zgZegF9hVxYSYm7ZufQWTOJo855HUafeSq6TQ+x4wn/gZbJJGfxTamZIE6MzJyo4mf4BLsEEAaCk4gGVfr8BkDwo0R/ybDNc04iUMFvrovr3nUxfvY3/4ITW2vgi5xyjsIVpwCZ0FAnQWniCMoY5B9Ul7YfMOVpWn2Q1gS5H6LSRy3+yqRH7a9F58h4L7AaI4OhhuxIwCATIChEWIfPIxALmcVTaVGfiG6nhyRN5bN4H9iBA69ZE7fKJE+kcuHTrjpOQSDpeKFMdLCzRPGs3MqQUrchK1AvPAEyt8Xz+NG4g99+37nY41nPQEbQx8oJgx8Ff0QkSUHRfQKEgfT63lX6QYC1TASBdpS9G5MwAgRee669+FM4XKdSWnl1VgbaPVz6nBfhUVf9Ulo1m/eaxCEXnC3+FttokOV5CL1AZJbFFqV67ETlYClOXrrl3GdH5357F7t98xq+4SN8BYYA4RF+gXZ0eP3vM1MUlpoZSEQsRymJUurW5Ng4BpIkRb39XAJyAzYCetITXNyzFTde9GFs+9Q/Y6/UwnhzBZJmDdPswRc5GixLs7zNVkFWIhODIQdJRrdGDVJhWqDG6EQZZaSIPMBvNnHb9Bas90uceuarMP7i5yMfa6BLRUCa2eRm9JBVa+POzP6rhGRXvQ1kw9sZkuKSxao0FRnPKx5dxVGvJuxEKIkjmzSW2jqLa9/yLvzyn/4Tj2+tQUBhmzyRgMt3YPtDdfxFqtDo/imhrAIFxGLyENU86itUZEa2XDgpwF6OjZhThcY3gQRRnh8DPwO+Sw0KGamjsBLbQrlMFWSujUzCMT0WctE+0FG5En4KBCntuDXDpLBS1vIxZ+eYLyIJVrTBrhV8vk6tpOLxwM/kZ9OTIhWAUGSljOHZnocrN69H7feeipPe/044kxPaaimpLUFHSbo4eirk84ABwvb1hh7I13JnqQwPlIKw6Jju43z5HI7lkngq3BLRJSt0iob3Wka1Thvu7Bw+cfAx+K2Oj1HHxzXpPLzTn4rj3vsWeGv3QI/fh6xAzSekWxgQWXqO24vp93d+9/n7IUB4ILfdr/VrhgBhGV/eBYAg83wqeuSqMVEfIFArnvjBMOsjJ0ebDDOK3Fg+AnojpBk637oCH3vOC3B6MIm9amMoPQ/3WAm2FjFWNEaQRBHyJBF9hKYXimshBV7okyAs/azESOkJW58Wt24jFEGgW9szuLY7jeNf/ac45M2vgTXRRMdy4ViBEBf5hxshGd+iby9GPMqpkJ/tIgdhkBgoJft+uZ//NkROUUXWrZZiRlmRoua4sLduw41vOh+//NwXcURjFXxm3hZtc9SNsgII4vY3ABAkYJvPkQBhqhOEOcyJvawEx0mdKBPOhxP66PiWAKiEhFG+n/HQINGTnACCBC4vqxskSHLkUayFLb2+fIhyIscjGdALB34COEkh/evUtTBvZ4gCC2XgSgshLAtY3RgOQVkQIpI3IkBgmyNDSSBCYJGXcN26WEV/Y9PNeOK734YDX/0yxAlNuHTENYaChNAJxCtg0Rjjkh541WLYrgrhkoi3vb75zn5FH1KAIKh14MgGPpz3sFQQBNCpSRPBAhUzOZLaLBw4M/P4m0cdjKeUTawdGcfPonlcFm3BSz73D1j5jKcid0rknGgQhYqFysr2iglLz3ugg3afS7ddLDAECDt7q/3GPG8IEJbxpe5nAmIgb1oMFMkxPUsxZCRAyDi7X6Jgz98t0CsjOJaLWgwEhY3iptvwz2ecifJHV+O0kb3QcnzMpDHuQgSM1lBzQiDJUEYRGmBLwEWUZ0DNR0KTHvIHchuNglMHDqaLBH4QSFXh8pnbMPqMk3Die86Fv98abBGjqEDAiTgmmgmDPKfJEklv3FR1NpEl7h2p593fpZNOitnIZUnUH0cDvnEcFIBQZvDKHP50Gze++q2Y+er3sF+9hTSPUfgVp4BulKaCIMRErSAUtljw6ESDuSAVQODflcmPl5cI6GSpxpNIWBlgNd+m+ZOOilJ4SUO2ejiIjVZfA9t4AZUUQVLDKLYdKFNENUtxB2Qp2/SS+rGLsZtjriU5HjJ2opMUtic+D2wxuXkOP0tQ5jGs0EVUWohdH7e0Z7G+FeL0v/0IWqc8Qd0iRYozQ6fIpMLQsAI5x6pqIn9vDyAsaaMvBhTmBTsb4Zdc+O1mxNUPK0vRwQC+5HDv7z7aYZTd3i8FiFJxlC04HZHlfZymiQT7Okdkv/1D/MdzXoijywBrWmOYCX18Z/pu5Eccgudc8lH469agaPhy//J7vOgcB9ZXm18DPTUDUKWitRTEVMe6+OkL8hVDgPCAb4Vf1xcOAcIyvrJLAQIFgeiroIQ6HfGnMBABgmTTHNWzaCWcqv5+r4A/G+H6D30S3//Q3+LJU3thoqPl6NkiQzfI4dbrcDIbZS9Dw/PgUSM+SUQNkOZB6hGk4wAcyyN1j2Nw3V6Ebb0uNu09icPe/hfY87QnYYudIfNrUpZusUDO54ugk5pNcYyvoOGQxbBHljyVCB9g1DABSQCCmeQQESPZQHVTFWdGUVIkB6ME7pnBba98C2a+cQX2aoyKLkTmlerfUFBoSYmBImcsktaqSMlHNbnAdeAR91sNZqNme4GBvHpepdGnlR3ljVTXrpQgrLs7/ylNI3lfJUsSGJDIxsAj7A8BWup8qARJY5AlIk1G/0E4DSRAspVA/QMXucVzInDJUWcfKumpCqPvYXNZ4sqZjTjgD34Pj3vnOXAmx2B7jrxHXCSIigSu6wtAqJSW+/FluwBBSZELgcu0jsy92v8a3qtXsTNfUCV4LrpTdtACuL8S/M58Yh8I9Z88cATGqElmY0TF01zNNJWWE9tBvUs+jW+99R04stZEzXYxSxrJikl8/dabcdAzT8fJF56HfPWogHqPvJAKIgyUYSohJ2k6DZzv/ftFVHfXYlx3//OTO70ywyf+mqzAECAs4ws5uCFzikE3I8ob86QYYI1FLTkGhrVe2szPU2FYu5mDe/71Ulx14UexZsMc9nEp5BMjDVz0Ajo1au++nM9RRoWwqlkq7RYx8sBGniYYyZS4F9vqwRB3YowGTXDe+6qtG7D3S1+Io9/6WiStGmbY66+PSvm8xtyVjHr6Q4hmADNbS7gNYkhUWgisBR2Enb5MS8q+wn3MqctQSBmffxjceV4M1uztF1aBkAF0wzRue/lZ6H7vaqxuNtEtEmQuyZyu6B6I+Y7029WZT1d58WZb/ayKc4InpOWgkIBvw9/RsU9krs0f2eM5dSJAgf8eAAmEIob7QMMmqVCwvmCsiEUUS1T+1GtDKgplAddoXPDnUnVwcrERTijgY/GcKiCRwy9SBOSmcDrFD3BHnuLyZAanfugCHPS80zHX62J0RUtAZlSmoKk0Cag1NhhYlTEjo3oUctZq/dx3OhgECKYHM5jtynUb6NPs9AVXkLTosRQcVL/cQTtjhzB0B2Bj4XMrNU8uhFEYFQDJ+03vNRi+jh1n+MFLXoXuV76GQ8fGkMUR5rIco2MrsaHdxZ1OHce+4dXY6xUvBEKDoPo32sJMaQUQFnlDGATW59rcDz9kcN0eOBTfpYs1fPIyWoEhQFhGF2tHh8q+vRR/mR1KIx8I2MNnyixKLequyD6/qNxQUred4iuvfhO2fuEreOrYfnDbbbFA7nGkMWDemonSYiP14OUcucuEMJf7NnpuTo0cjGfqWtixVNM/JyveCnFH0sW2A1bj2He+CROnHCeBv8veuudLyZSjdGLwRPKhiapsPlB+ON2NAEHAUqbqidys2ReWfr/J5vl5nMSgLU5x4+245RVnI736eqwabaLHQOiUCFk9KBm8qxbAggFWtalWbQU5lQHSooACyfq11Mxskr8nSKL+AQECg4eW6U2x2IABVjoUhZi5Ca4VKzamSiCVB5aujbyz6GWa3+v7KzphhYafnVBjgVUEClDBgZ+a6g1SOGWKum3B7XCs08XNeYRrJms49RMfwL4nn4TprTMYHR0R/4oIKQsNCGwLHnswrMRUypyqxCE/W1RRWISmtGZO4CTld1GYqB73Fd13dPcvqZlv760Go999PH3wEHd4ONstVZjjFiJQZb9ulBTN/W4JkdiCvW0Gf3vSU7H/5hns2xpDmsSA66PoppicXIvv3XIr8mOOwLP+/W+AFQ1QDEEx/4IeKq81v9r8ed/t0ZRoqukc/q4SpFpUmLmP8x8ChF+TYLAbT2MIEHbjYj5cbyVBSFz8GPot4RsQIPgECEyhqwyaQsYeyVKJlJ5vv+yb+L9zL8DUrfdgP2sUPnvVdQ/zHIWU8axUlBbH7abYIMddzibkKAIHsc9glaPsxMI3KAkOKLrkN3Dz1q3YumoEh7/mT7HvHz8P+WhNjJ8ZzDjulVE5psgRiG3xQjBhD57MeGanJAR6Yna0i9vWklIrN1GKNck6cEN1bcnouCYkSJILQCIgZaGL/7sON7z6bbB/djMmCRBIUKTtsQAEHj95B5ohKzdAH4PthMF7QPNn86cCCOZ0JMhL7NcfiImUmZJQsEAipBobSVWBNtAFdQu0bcDpA+USUITJQkpSmwAuw3uoPpigg0ZA9Ggwo5MZBalyiGEWzZpiO4UX2PCyFOFsjMz1cH3aQfvUx+PYd56N1oEHyngeJytoWpU5OWweD6Wk4Yo8Nln3PBOCRh17HDA6oh+GmHcpp4THSDY/xzBjAxBY7dJboYIVi4GCWGnf63da0VFhMAVe1WXpYyupsug6slQlt1OlsHkfX9jqjpO/q8MYuA0XPEOrJyw8SWpTBiBII4tjx0IR4rSLup5mP78FH3zik3Gi28RUoynKiX5QgxOnsFMLd03P4e6JERz1njdir+edhjL0tJ3EkVIiM5X1Eq6OaFlwwoaHwmwHP70AACAASURBVFaiVMi4D+hR8lqoHPjApMkQIDxcW/Wy+9whQFh2l2zggKukRVz8NENmFs5/M7CKDkJRyDgcAxptmZlNcnTPv2sTvvmWdyH+n+/guLEpFHGBbqeNWjNEVNqIHUcyU76eAXKEJLs0lUBTupYI6mxNOrgn62J8dBwr/TFk22JM58Bntv0cT3zdK/G0s98AqxHI5mz5ZOFbaCcxfJ/uhZbM0Nti+KTBjrsYgxirG8IRMIZTD/QSVWOOYrVsPBk4NiibbVZIwJMpAnGwdFFc/iP87DXnwb/5doy36ugxfFo56nTZ4SCgrUJJEgBNS0fAhtl8l04ySPjoB5bFAU/qJib4D1Yc+oQ/c9IL3g5aPSA4WLTZC0BRrQWpkPTJaVXZnXoFUkZSMEIRHljCTanDQ9dK0LYThCMhMN/FKNtJroef2TGmznkt1r3sD5G6HmoBJ1TExFPUEwnjxCq6pAIk34fBn+ORnIgwQbkimqa5ckwcV4I0BZ/iOIFj/CN4j9U830yWsPXCYzaVJdOs4EJKBUwgpQEE1QKK14i5DgMVHOHF0Feianiwl2XWXLSxzGSPXj+tCi28jwmqBsD0L6N0mhau5UIraOE+UN0w4+YpQknkbaRCOg1LB93L/w+ffvbzcGJ9EiNBKCORDPZNcjzaPaxorsQ1mzYgP/koPOnD70G2brUoXwqQpDQ3eUasthXiQwrP9sSQq+S1IQBnlYi/4cSx2J8ZddIlPI2ltZpdhOIP9Gs5fN0yWoEhQFhGF+teh2q+4cI96GfiKpvMNrMUEoocrqixkTPAKXq1at745W/iyre8G3tPt7EHZftoHlQLEfU6YhWcOT5Sbm7cqNMCjSTFaM6NPoPFHoFnYxvtocdrSJMczrYYU04Ld9kWLsnvxu9//P14wrN/V46F7Hc6Pib8aFcrHHZZILQdEUaikFMFEGRMsQoADxIgSGVlgECoZVpJtKTlQADCEUOyy5uOg+I7P8KNr30nvFs3YGykgZ5KE6FWcP7SQU6ymEwmaI+Zj4qAJm0CE7z586qq0CeMmVZKBQC4wSs3YeGqbo+fV/2+324YuAmq9+oDDNPx14C40JfX7n8GR+wxbST8f+pgWB56do5tRQ9+0wc6XazoAT3HxS0tH/u9+yyMPedpYsEdcHqF14ky2yHvIlpk53LtEstBT8rfJWqsLBDeSYvDFLlpe8lrKmQ7jdBJL4Fd8zGXJzKqWQsGpiGW3OhCut1BJYmfpQm2LiZxgJ6pfgeEf0POh6lg6H+byo44KCpjonoovlEfDQJVdUVVgy/BdUpHMVMrA1Lbci8LE0QmR+Rfro2kKBBlEahKXc9cdL78TVz6klfi2Po4aq6PhHob9PfIY4zQwTN1sX5+BskBa7HHa/8Mq57/TBmJZRvHs3w4FCrjJEyeyncpsD1pV1G/goCII5IciSV44fdeAYLybgZBwBAgLOfN/6E59iFAeGjW+VfyKbIJ2RYZBcgpFSwbI6Xu1L2QmyI3cpuSvcyiSc5LIyR3bMDl574Xm774LZx60KGYX38nyrku1u21DnNzM4gdVhAIDnRTcXMbYZbDyzIpbFo+sK07B681htE1a3Hn+g2I5uaxbuUaXDM9DfzJs/Ckc9+EstnU83ZVQlgJgbRy1rJnxerXzVSzn6p/KiTCB7JqVYV6MbFbJwtM2Z0BhD4H/KFszGWOoLSR/r/v4JrXnY/R6Vm0Wg0UdoqcCoTCGnRQmI1ZZw50q10AADt3sH3y4i6ma4NAovqknSX8V68loGDgIweBWbwQRX0H7SJFlHZRBzDlhbhuy2Z4Jx+Pw9/1ZmSPfbTwWlw4cFNL7iGJdAYgEG1ZAih5Z7CMzuqPC49gcLatXJeGL4BSb8oFtyaRIYaNtDABnNe/ItPyb/lTqNAQKw9laWSx1emQ9zUBAB0zU47J8rwMSPCoFEnBKYp4yRCAVh+kisJRz9JGIRU1vdNYdaNBluW7cH0elx5unwDYV5/QXwhwKCh9Tf2IBalOV/gd9EMxV4kE3jxHksciSFXr5Ljx/R/DnZ/4LPZLLawcHUMnj8XrxC5oA02r5xxZ4OG63lYkxx+GUy58D9yD1mEWOeoeZctj1PxAAQvPX0AMkwT9zjtsMwi/wxi1UblzEIju3K06fNZwBVhZG2imDhdkea2AIXoRILBSwLzOLimKo1mUBjCWIdXamBUEr9PFxi99DT9418VYsamNg1avRW/rNMqtc1jVmkBS5iKQ0/O0z8kgTo0Dqi26UlZPUXoF4jJDSv0DX3uobuCgl6T4UWcWp/7jJzD+1CehJNeABCvfyA0TrnDTNe0PJdspYVF+bvqnVfhdIK7twmUZ2JiXZkhypxtVxYxCNkLwo1lSAT+30P6XS/HjN74Pq7oxRsibsFmMz0RYqAIIZlV34YAeOU+tKg7s+/PfvJ6sihS+gzyKZIqhHnq4ur0N+77mz7HPn/8xkslRmYph79spXQ0+8kYm0pPfwqBGg6Iyld8FBKlbZvHzz/83vDTBisfsj2KkJmRWu5fCSeki6cMdacAOQimbM+ALR4AS0VTY9H2tOIgjKRm3of7btGYUZWrLggGf3BWKe3FMVu4fjsoSjyQZbJkI4XGS0yKC1jLFw86LABICD06QcIS3KBCzSkblw357oapQLIAGVkkYmGV6SCok2s7gGCPvsZzAifc52zFGa4MmWO6t9+Dqd1wkYHTf0kGzVpcqTuTSwZGTIYo6aYJ2ezSPDStGcNwb/xJ7Pu+30WlQJMuFS3dUAfzq2FrxdKTdxcpHX3ZdjdvkOIYA4ZHzRVxGRzIECMvoYt3rUA1AkO2PWZZEQEdbDAoPpILArF32rTxDsX4TrvmLt2Lu8quxX3NCxHE8q8QIrQSTDJbnoOdySkE1FRjEa6kNV0hWBVKPo3KZqPhlvQRFt8Boq4XUt3D9lrtQHHoQnvqfn0U5MYasm5ApCavmKZOfZU+2O0z1QGf2WeJVcpXwu0ySyf3swQKEar0qoNAHCIwpmZaG6Y3AkUAvs3D3Jf+E6976ATyqdNBoBshtsvWpEskSM0mK6kGhBEJ9953N4h/O24wBQgIFWzuWhZikOMdFkaboWaW4O3pRgqLXw5yb4qe1Ek/60Psx8fRTkREoSjCi7DWzYz7YeGFQLqSsTaIiiaDUkyDz08sz5P/3U/zLS16HoNfG6OpVmHVzdIoU46mN0VRn+71aHajX4PkhAs9DQtVIBtl6CKvRED0NqhBmeYKxyT3hub5oL3hhiLA1gnCsBbcuA6qwQx/hxAS8sRGgHoqIF8JAI3rVg2FmTyBgmIpss1S8F/I4+PMoS9FLEgUtRqirai0IgDHuijKqarwoZE2oI2FsUfiZWq3iepv2Bcv9ZYnkyp/im296J1bfcBf2sTw59sgrxeabo77SXuPN5bnoWBZuarex4onH45jzzoR/8N6YjWM0gibsWOi3AsAJZsTRQiTPgSJVMSzLVVItH2w5Dh/DFdjVFRgChF1dsUfY8/vBj0FWtm7jwSCNdk2ZWWpkBkHnwM3/9iX8+PXnY8+oxIrmCLpJVzKsqaCBuNNB6TjoscXgUmufwABoJCzXZsisDHHNQrugYZODph2gmI1RHxnBbb1pXDW/Gae+7Syse90ZIsSjbGtODmjJUwKqHIvph1YCRtIWsFC6iyrQDwwgbOf6VGtUiSZxLTKOfsoUANn4hZTPb//wp3DTeR/B/m6AsOaiZFZn5WKdLMN7lm/OY3kBBFlbw+0gQGApPXA8ZFmK+SJDvdXEWAy052ZxYzaD3vGH4yl/dSHcRx+g4NK4g1I/gfwLrlduqR5ClGQILF8kuHnB7MCCHSfIv/QtfPmPX489mA0HDqadFEXNw8oIGOmmYgsegy6X2h2n5kWaqucEqwCsBnBCg332OEvQDNgAUd4AFRy9Rg0+KxBhKI6XfK5VqyFv1NB1LSQ0+qrXVJ7atuHXQoxOrMDI+BgaI6MImg2Mr16FcKwJd8UE0BoVZ1J+Vwhk2TZhZURaEKZwQYIrEYJ804w0tuHWIqfBEo/N5lQHBNjwfVhxUUXQQjxNtlz2bXz5tefgqFkb+9k+4phiXECspYP+tI18j8MQG9tdrPcsHHPua7D2xc9CErDa4sNNFAgUrNAFnpASOdniE2Lw53wvkh4JUtiO2V5La8nPBrpzj7Bdbng4D9cKDAHCw7Xyu+FzB0voZrJRGPrS248yTRusUkhQPkuR3Rj/8/yXovW9G7BP2EBapPDqnmxSK2sNySjZL43pQcDxLMuRsbpmwiCRSeWg13Qwk3YR5CXW1Mdht1MBFT+dvwc3TQR49uf+Hq2jj0QPQOh5osmQGelZIX2xVG2Ig8KVGPRjdkWhQUCFjmftnke1TkKVY+YnmjUKEDg+yBaDm1i49YN/g9veewkO8mtwmIp5nAjRYMYxR5IvVPlwYeWXQwWhki5ScooucMAKQlFgvkjhBgFWpQ5mZmdxhbUNR533eqw74yXIajUBedXkRJfl/6KEL15Vlkx5dDkaafmoR9TYsIWfgukZ3PHhv8P6Cz+FQ8IWstDBXFgiDV2sTC2M9ijIxIFZoMfgBRs+5YeFZ6Agl26UylHQygQnB6jcyYkTsveF0yK8AfobFPK7nPbUJdBhZSRPZSSTolgpuTOcxBgZgRuG2pqoBUhDwG6E8FsjKOs1IW+ykEbC7ooVK1FvjmB8xSTGVq3EyOQk7NYIMFIDVowBo03TAqnGJivbUOVFkDch5EquCTkWSKVSd/t/fgWXvu6tOCVr4VHwkcWxEHc5TSNtH0OKlPuTapewce38nag/7SQ84UPvgrPXlAB3L3eRiyunhSz0pJrjZpbIl3NCh+vGaRMFLUOAsHt2kt+8dxkChGV8zQcBAoMqZYM5dsb5fi9OZOafJVsqBXpJAes7V+HTz38pjnZGsK41gbn2rFC4xT6Yr09TWCzrGuEdpk4ECPWEW7j2SbsNG3NFjFpSYqXbgN1J0S0L3O7lyJ90NI664FyEa6YQcRxLJsd0/l1KnoVmMwIQTAtb2yJEA9pi2O0AwVRs+REVQGBtg7wJPti3ZUZsJ8Av3v9x3PPBT+HRQRNFQa4Fg1UOhwQ4AQjsAeucefVYNgDBqDOy3y4OjgxEto0e5bCKEisTBzNxhG+NdPGi//l3FIcdrEGLRD+V5kTsu0LM8419MYMSDZ986irEakZBfYTNX/0GvnH2+dj7hs04oNFC7luYD4COnSHoZWjRfZJgjeRZlyGRrQs9HimVsxom469KbuWQDVl2omHBaoiU4dWyPM1zeL5j2PouPGpV5CWyJJPMPfB9xL2IERuO4yKOM8z3unJdaW+dlbn+oakSKyNmAoTAw3MC+GFN2hhOvQ67FiBu+ggetQreFNsZLfitUfhjI2i0xlFfuRLu1Gqg3gAIrkKSM1lWIXigQVqCmz9/Kf7nzefhFG8VVsUU8NJ2AD/XI3CTyR4SN1mB0LHGW9pbcMtEiN++8Fw0nvt0qRrYloci1bZCakjAoh2Ss4JAcFJK5U74k0LovP+NblhBuP81+k17xhAgLOMrvggg0EmYZCuRWC7FfIiFxphujexNdhLcec7FuOZT/4xH1caxYnQEOR0ZowhjtTqidgftqIvaSENkebkRk/FN8l6Ninso0HVztOsWIqtAM7O0stBOMIsCW1ePYq9X/RFW/unzYDcbMjvP0i8zKdfjEemsOdsLSionmWpg7OpXCBC4S1bkeWG9G0teAQ2WlswJEH7yzouw7RP/hMc0xhDHPXC60XLoh5CLF8NyBgiyBuQMkMxaqgeD67rIXAtRlKAV2diMHJevcfCyK7+GThggRomG48ClqBHpmoGCPgokZTnllmV4UvgEWcSADAQArr34Y7j8wgvwrKlDscp20YsjzCNFu0xRJhHC0kJNKgcOipITBApuqzZUnwMp/QTyQy3EWSoAgWTbSq9AJnaIK/lzjq1SqCtnhUjbbORZ8M7ttTtAliMMQiEpEhB4PnXEczgyOaOtONvR4UiSBcm5KNICcZSiG8eIsgRRWaBtZ9hcRuigwHyZidCTNBc8H6OTk1i77/5oTU2htcdqNKZWYWztFNzVK1GOj4h/yd2XXoYffuSvcXxtSlotDOT8vrHyR4DgUwMiL6SSkds2araHOCtw5exdOOQlL8D+7z0bZcNB6vpCk2S1kERbrh0nTWjOViSGg8D2A79zQ4CwjHf5h/fQhwDh4V3/B/fpBiFI1sVgV1D9kJueKPlIVpTEMWo54NyxGX/zmJNwVHMFpiZXIUliGasKuaEaKeaCbQUhJ1Zz3gQIQJiy75oLmWrWLxBbBUZSG83EwogVYH3awS0tD0dfchFWPuV4JMYMSO2MpLPan8Hue9tz9pwMeMOyZgWBwi4DU3C7pcUgQzr8H9n3psUgCZ1R0yPdjgDBSoB/fv6fYOyr38eJU3ujF3Wlx277trgditdBqVbLLFvriNnSOYkHdzl/Za82hylCQ1bJgUW11HZo++wjiTPEWzqYadTQfOWzceDZf4F535PWVMOy4HN0znGQua4GHGnB814DulEKp+YL8VGeOxfhB395DrZ87j/wuEftj2x2XvvivBfZKXc4FlkiyGmDTU6DLe2siGUvE9j7w/p9cYwFRmilPKlrVTEAlADIykg1qSEhX8ZqzQSC4S8MOm1SNrzSuuQdru/GSaBKjbJ6v0psic+mPwjJqmqWxfHIJMuQpalMM7BCk2YFenmGqMwQ2SUitmJYSKjXsUdjFGutAOO9VL53iQv0qHFAgMyqRcls30aX1RmrwGjpYYU3guvvuR13NkI889J/BI7YF223hOuF0lKQyQllZ4img4p/qBYHKyGspBAIVSv2K7vPhm/8a7cCQ4CwXC+pGdmrxHaYBJFRntNsh7bOvmaLtQKobZrFLz/+GfzkfZ/AIaMrhdyV5JkQzmqUHDYAgQGD5XOK/6gjpAIEVhEYXGK3xJxXSMl3NHVRjznS5uGOLMbWA9fisA++HY3jDkdCzTjROqgqBIsBggRsw/KWTWthnswQLfV1u4WDIORNbXPInPiA6qG0GAgQOAGSAF/4oz9H40vfxuMmV4t4UkZJCWogczxUZuirFoOWbrUsshxuoGoeXoMgVf54rTM7R5Jm8P0Gtm5p4666j1P/4+Own3AEttIG2nXQMOOQDltVzKpJepNzVxQZJ5mMSdIefIzTDD+5CT9/y0XIv3MlVq1eIeDLT1K4KWtbELtx8j4Cjs6mkL551wM6PtsTjgTnSmWyIkeqQqUG7mogweT88gPqHVRTJfw5719WhqqxPz6nukwSP3noNK8akIM2PQuDO6gdsuBroU6Z+mAliWOGYrRlqmxybLyHDOmWH8w1Ji+CY588jp7vIKn7IlpWS3P43Vju78Sz0CP3xrXgsvVSKJDtOSWSwEatcNDolki7GW5M57DnK34fB5z1CvSmRoXkGVguQpHTVngjclVUcqw8QHhc1LHg+SyX23U5fKV+Q45xCBCW64UeAAhCSOKux95jmiH1ga7PUmOEVm7D/f61uPS1Z2HtnfNYWx9BLJa/mgX6NE2iqyLL7OQKkE5l5Ii5CZKgxrKtiAo5pbQZaHg0mrkIIqoQFljvlGj89snY962vRnLAnig4Qy4T22rGJONi1QZrsvjqv/sxttJtMIJGIl/zAIJvldNXAVwrCMo6J0OdVRXJNM3x8HwdbqIx8JWX/QW8//oqDh+dkLHRsuYiKTPkcQTfcuEKB0H74LLZVuOZj/B7qKrj8OryypB/IWp7diZW4LX6GH6+cRqze07hWZf/F5KJAJvzDA0/QF3Mn+i9wGtIgKDjofKeVO9jGd4CtqUdTNkhbvuHL2Dm4k9jz01txGGBsBnA6XRRTwt4VF1kMBRfCUvMolgS73oFep7qKahw0YLKFUGsWIrz/uybWlUCVVqfIp9FzLDEBtuU7Ptqh6wCGLtsc7PJPSKYyel7LYhXhZhaadWBZRKRex6w6JaX0UpbRJL033TE5PdEwQsrIhQAU7Ey9mBE3dkiQLDQrVnS3iBY8smR4D3pOeKEyjWt5RZ8UhWovEjl0Tot0QtY23qYDFq4aXYzfrq2huf93YdRPvFIdEXQ1EWNughcN+FnqA6EKKuKMJVRhByQjH4AX6tH+B0+PLxf1QoMAcKvamUfivethJKUzSWSyCSR0Yp51krhJAnGoxKzn/1PfPPt5+Mx4SrUmdmQneAoKUzkgSmLKzxBljkLcTBU10HjNCjlBM3KmHU6roVG5sJOSkx3eljfCnDAq16GtS97IWbH63B9NWHSDvBiRcRK/raqd1YZ/aCSLk9HAvAD2MnuBRAY6PmGRhlSAYKCI27qrCAwA7XiEt/48zNhfeErOLTWUkZ9I0CvSJBGbYS2Dw+cYlABqaoUfV9GTQ/F5d/Zz9BKvUhrasCzbUR5IsivHjYwH5f46VwHB/zB6Tj0orcgaziYKzgK6SAQgKUAgcGPFQTx/GCJnfdNbiEtc3TyCCtzF98/52Jkn/ovHNlYgbuyGbitAGXcQzMDQgY/ElGl3aNlKh5P5ihgkfxXbKtNpUDuA1PyN8REOZWBzo7eIspfIIAVd84BKWS2MFgh6otymUXje/hiwqU/ICjQ+5uOlzxONu70lwuZt/mJjIwaq25BGkaaWTgRCpyo1EjSYMAZjbJE28kwI/7bFkL+PC3Fi4TfQxGQKinDrACBnxLTVTWgfHIGt5thlTeKuTzFpd1b8eTzzsVer3oR0ppOORB4UZOBI5hUveSEMx8csRQgY0DKsIKws9+Y4fOqFRgChF+De6Ga76dWi1jK+g7mKR+cpHBuvAW/eN9HMf3lr2Ov5qT0Pa2CJCyWjI3sjdG6ZxvYySpLYFYlNPMXyVbZh7kxpvAtC0FGApSD2zqz2LB2HMee/3ZMnXYqtnmA75FNvqCHP7jEg6VeUwTp/7pqKQhAMBnPrl6ePkCo/mEAAoluDGoECJKRGmtkzUALWL0SX/+z18L5wmU4bGRMJyrqJOrliHtzCG0PgRWIKyWL5RLiCDAeAIjZ1XN6sM+XxFlGCNl2KuD7AXrRPBzfQrMxghs3bsLG1WvwtEs+gtrjDxGAWdkwi004BXw4z8/AJ+JCNlL6WBTsmXMCgaAhQ7B+Gle+8T3Iv3g5jli5B+7IZxDVGXhT1AtLJl8o202Q1fVcxCJOVMLjMRkSK89VXC017vcrPX2toyUhWyWUlYDJwE5wy+qYSFvxOovzZWWRbYK9qQqQFLjgnKnXkuctAuXilb30UbF9VJVxkT232KkruVccVTl4YTsIOV6cl2hbGeY8rabVSexMWPbg5yi4qACCR4BAUqY4qlJdMUeLOhNcu0YD39p4G8InH48nvOfN8A47EJlLkK/aIuybECCQXMqjq0yzdLxYz2UZ3K4P9nYfvn43rsAQIOzGxXzo38qIEktmx+SfQb2A4zGIAW6S49b/vBRXn3s+9msnaLpN1DkKFSeg3Yu6AFrIyD1wLGWAs/xsMxNjv9U2ZVtVmXNzKg6m8PMMPokItTqu685iw75TOPUDF2DFicdgjkI6jg3fzHULtjBV/iqT4Tr1pwr69KoFzsGD2cR2BBBSccFbAAhK7aJJjgKE/33xK+F96X9x9Ngq0W+IA1dEbKKuAgSPAIFrzayQI31c8wGTn4f++u/cJ0ppnuNwHGlEKez+LO2ReI8it3Dtlo1oPuPpOP6jH4SzsolEDJfoDEqFS1bKdWRQXEGNGRFJdRSidqmLwDp6mqD9jStx0zkfRHjdHdi7NYZNThubvRhJzYJXlBiJLTTYv4KNbb6DOU/NwMaSEmMpAZeW9QfDWJXhL74nlP46qGYphDxm/X2CrVYapPR/H8tUaXAsBh8mkA6Ur6rfixy4AR1KltT2BStQPHY5Vs8RoCJ6CgTJDM55jp5VoM0CA5VJCRBS0n5LJOL7oK+ltTrbfeQjkLjZ41hoYWPCDZHNdkTcaYsDXBHP4di3vR4Hvfj5yGuuVvqk1qJ6CpHYcAMBicDGpKoiKe6IN7NsKDU7d9sPn7UbVmAIEHbDIj48b6Fz/FLO5PRCxjnuUmaifceGmxRwts7hZ5f8Ha7+6EdwVGsl3J6FZm6jIb4K6vHHwJ+4FmIxi+HMu26yFGPhppXbZJjrJiuExSSFF8XwSwdOawzXJHO4fb/VeNpfXYDxow5D24i9BGRNmwkFqVJTr1cyGS0NENCYM+hnNg+UdzC4/otbDNU8veEgGGOrSpBGAjw3cU5TdHN86QUvQf3r38HjJvZEUqbo0t848JB22xJUbYTarjCSxczKSEbT8zDF7r7L3+6/K5SZP0DUM9bFFXP/vj5Rk2ExaJbrqYChkBH9di/CHWWBvV/1Uqw78xVIAlcmG+xMxYhI1KwAAkfwyBlgFhwzEBFw5DlGqPg708GNH/173Prxf8YhXQdTXoBZP8UWL0ZUt2FnBVqpg9HYEaLfTM3FHPkIVolWwt/phIXafVeWyguOl4NtBcnUjSERdT8kUJsKRJ/rYiZMqvtBg5/+lu0Elf5emHDQd1GSpFQu5AX608FagoAF895KCVQdEXIk+EKCMIJtmQSSyQrairN1YSHmdyovERIg8JWUXhZxMAUI/Bm/GMRQiQNEdiEtiiArReXUDmtorFqNr/7yBuz/4hfi2LP/EuWacQH6hNf8anHkktoWrPYEPPA0F8DOUVDTDblPwDQECLv/O7vc33EIEJbtFdSdjFtcnlvIqZzo2pj2LHi2hcm4QOfbP8RPz7sQm2+8AXutWIGRLrM1C3U6GZpyKLOPxC3R5gA7s0v2iWVmXjdTZkMxAUJZSg85zAp4EUe0AGfFBK4pOrhl31V4xkcuROPgA6VsrG7QtmRPKnhjQqiUlHVqobLUrUJrtXn3A8ED7DGIDfFADiq4xExKsNdrai4irMP+LMvRbK3Y7Ryff9pzsebHP8eRk1PoFhHaZYygFsCh7n3BWgRNywAAIABJREFU4OWq0ZQJuMYnWIKa8BLET8KMgBhymPbMRfhW/qgKI0vUut7bfdzHj4V9Tw6FtEhIyDP2w9LLZ/XIvJthrMs1luDDo2Op31HPC46+yWy8jWmKBu29Fvue+zrUnn4K2mUC36/TS1gV/pxcOAah6yGgfgIDOWWzHAszaYTIybHS9VHedie+efb56H71B3hSbTW86RkkgYV0zMeMRUBpSwUhmM3gFQ7iWihghFm/n+cySiltHWlpyEop18FMJAwSUpShr9UtVsCUT8D+PSsahjBIno3cx4bQaAiEvAq50Q0QHkT1EOCloFgnKfTOrL4HfftuEXgykzH6LTJVC9UiEH8KAys4eklQzUxerSFdAeHC8zV203LvDLpGkpfgWqCUE8mLJDKCI5R8Cz9AUji4ddtWjBz+aDzm7X+JEY4VUxVTHDd52XIhjfL6igtpJ0ZIzQcp6ZnBm0UoemEJhgBh2QaDX9mBDwHCr2xpH4o3loK5kpISzRDvQoKG62J1J8Wd//BvuO5dF2OyWYPnOGh1WMq14CW5zF3TtVHK7JRjdhl4SgQZsxetGihbXX/PTZO9Yv6eo5MWZ+ebdVyZzuGeIx+F533sg3DW7YXEthC4npSdpbsgqng6atVnHpr37e/NZsNSSGJywAfcZ6ioZfpekvEbkKCyvZzD19yPfRj2awPOn/dKfPF3fx9TV/0C+7RG0XUzxC4pYEArteHk7LtzC1bSXhXomT1KuKhm9sX3QEcxxDHQlM37Y2emasNa/X3gAD3m7Tw0T9TJEh4XM03KXEtWyzWWG0G3eT5PQSBPk94CzGg1API6FlkOJ6zh5nQOoyc/Dgeffzaw/96ICs7NezJ+yKDStVLRQ6A0M8l1VqoEPWbw1MNoo4eVpYveD6/DFW99L4Kf3IJHhy0kM9uA0IE1XsNs1oObl2jmDsIus2q2bnzkHjkhjJQpHFYPTB9fmhAyKaJtDgENBgzp/aiBm1wQggSeFIEBeTH8WyZnBBppi6SqE1RjkjJ6KO+jAKECA3LHDPAeRPLZAGUFZ+ZhQJ7+t/YwdApC17oy9CL3QcSPhOSr70WAUHEi+GqB6oYzIcPEvF1NBaFgiYe+Ct0IXhDA8314Xoi7p7diswfsc86rsddLnocZ1xOhppBS1FEChyZV9Ljgfd+LUfMCINTvn9wdi0oiD8U+NfyM5boCQ4CwXK+ccreln8vki396WYqNWQ8rPB+tjbO45T0fwh3/+G/Yc/UU4iTGitTDWO7ATgp0PAttXwkCVMajH1xI++aMM+kW5gJTfmdvlI59UlnPRTOhznG0JEO7FuDKZBazjz8YL/jEh5CumkTheZJtqlWTmWk0GZlk2OaxNAQuwgMPJpVZsvmxeCF/ZJJBTaOqMj2FmiKUqNFmt1vga6f/EVZe+QusrAXoNi1kNQdFlGC8zfl0CgXRlVKif9+0qRKDqgR8+LdqM2mKWPXEhZwvZfGqkrAYIPSPSbLJqqytwVjrRMyMNfuk8BBL+z06KhLkifkV5bJtNQYypWoK94iMr0vymkhtyrhmyICbFuiUFq7xOtjnFS/AYa89A93RBjw7kDYCAQJtutk7j6ll4DiigMjKAjUQpYwuLYo5jBc27rjkX3Dt+y7BQZGF8VoIu+YiLhPMZz1xHPTKEh51M0r2zF2pZjA45mWG0i5g8/2oWMkWFb0GbKoE6v3J9aSmgAR8o4pZBXfxZHDoNGpJxqyaBYYTIGDQBHaZyDGgtboHhZOij4rPwH8Ptmy08qMgmQFeKwwLugoLFS9DUqR9tBlb1PFMrTgJUDO8HPI4KmkjrUWopgLfV6ynWRnhdfU9+a6iHcN32UKw0AhCtKMe1idtNP7wNOxz1qsxNzmBxPbRKmwk7Q4aoyPSopAWSpwIQLBDlTsfwDTb3/keMDBfxhvp8NDvcwWGAGG53xyGAEjZWxrn0HxnD9dH++rrcPUZr8fYLXehPtqUwNRKLLQyT7LArm9jPuBuwPl06usXCGnDW2i7YSZgdqbZaj3VrJOlaSfPEVJ7Hza6jRD/l7XRPeFw/O6H3oNkxTjsINTydR8gVFnX4oXeYRLzYADC0sI9N2ej2mjTurgSQJTRUCWTsYLgzCe4/Nkvwuof3oSJ0Mf8qIukbiPpdrFivhRDosT3JTByzfqbOd9EqrcL43m6E5v80rQS5CcDgjuLWwwKAgQYiKhPFT40vax+J8kqy+kULKJNMHIkxrSIqWdoucYpkxMmCxUbjv7FBHe2q8ZLSYxG2MD62TY2HDKJoy88CytPPA5tAHUnQEkQUNDNEsKmF7MvAgRJ9vl/FnLpnZNyn8Jvx7j8DW/H+n/7Ik6sr0UAC82JUcwnHWydn0G9HqqaYkQJLWpJOJq9U1aYQ7dSnuJZay+epD+OTzLbpo20jOHayvATeCYgr1rfQpj72gJQPUSeuhAHTbZc6TaoXoHhihBkGR5DH7TKr4xmgrhuLDwUGOpPWAGornAFJqqOUdV84Dhn1Tarpl0qgmz1GjkDM8lR8ShYcVPCZQnH8+BkgJeUCHz6SESwxBI6x6ZeG7cfvBZHfvg9GDvuWNw938NezSbSdoywWRN+CIm2tHCveT5s37T1DNhcVEUY/GoOAcJyjwi79fiHAGG3LufD8GYm0jLQxUblrt6LcfcXvoTvnnEmTmhNIXXVlKfeyTFuh7ATCz1PFewYfjgn7lpsH1DLvsS8D8xxBltc4zifzekGdT10slycIT3bwVbXwo8RwT71ODzlwrchmxiHEwRSWu9nKtVOumTjeSgAQp8EmRs2t6NjjjJWJjVmZnucIy9gz0f41mm/j71/dCsmGnVsawKdoEDa7WHPhBoILnoee+ZqnS1sc/Ej0Jq0xQC2nUelACjyxDLOJvm31pYHMjp1tuIbsQc/8EYS6BmUVQhH4Ilp2Vihh9LXsUuRTo4z5GkmWha254s8shQO2MZmhurYSJJIjLcmxidx/T3TSE97HE68+K3IV65AUlqo0wa6l8FhC4CungJAOKlgo8ZDTJVPQaKJZavZUHbbnfjua89F8cPr8LixKUTbZtGJYzFpChqBPIdrrFUoHa+1LEIGdmtyREhEB4FVBBGfkraQpt3VSCr9BORhiBbaRlCBL96nfF8ZYyUR1fgjVS0FBRV8L7ZYFH6JmJCIP6ncd/XguKRCDcObkV8Ngj0ChKqqoK/qT0pIqaFqOSxYnFfvIEDPVA+Eh2PATvXZqlBpJJLFptqSthGrPs1aDZ1eG1HcxVgjxGyng6/2tuCET30Yj37+6bh5egb7r5pCHrHFUUjVqCRQJ2eIXhUGsfdhzn31t4YA4WHYxB+5HzkECI/ca7NzR2Y2ty4JhZaFJvfQzbPY8M4L8bO/+yyOmdoTHdvC5m4bE7TlJdEst+S5LGWKD4GwulVymBlmV8ADdwr2dFXgRhQVWbLkZk/zJ9i4o9fBjWGJ1nN/G098x5uQj7VgC0AwWVrls7CdisB9AoT+JvtghRAWesY6RaEiNZJVSUtFgxHXQcyaZjv4j995Pvb/+T1Y0Wpic4NjaSmsboS9U184CPPM7AiSxASIltFUw6P6H4OlI5k+y7rVJwsR0kx1cP0UJKhZ1fZVoAyaGghKC7mqZtg08skSJa1x12f2ndsOPM9TNT1KGsuoqrLrxRmRo5mUmqZCplPAr3vY0o5wWzvD6lf9IY55+yuRBvRZ4Hiqo26ABB1U+SNAIE+Dzog8Lk65mDuTgNFKCnz1ze/Atn+/DAd3Lexth/DSHLNRB854A42JEUTz83DoCcJ7j80sEfVRlgS5EOKm6FCWWNsWhav+DJzxLz0HpesgSnpyLtJm4bQNyX6m5cLxQNUAsJHwtQImqkinnADV8jAtCAMS5J4e0EKQdoYBCCo1XlFLFwOEhYAvF6H/PV3Umujzd4yUOLko5KWYkdMFQGJaXkZ1lL+XdoRRrKSGAk2YamFNrK63xW2sHBlBmaT42pbbccirX4JDzzoT8WgTgRcIeKTEuu14yvvhmhkfhvscX9i5nWb4rN/AFRgChGV80VWFUIuac7Kh2BjLbKQ/uRE/fOXrEPzsJqzxa8iadWxNI0zVRpF3eprtmmAlQR8kLWpJlb3iDisOrmZc9GEgE7vP3GcFgToHsHFbZw63tWrY80+ehyNf9+fIm03YHl3yTK/3AQAEYbALoHjwAKG/kRtQwHViLBENA1GQrMYcC1g334HPP/dP8Oj1s5hoNTBdLxHbGdDrYV+rqQChpDUyzbBY7nakZ861EBliZrEMquL9UGWf5lzknJQ8J+su0x3VPEUVZCoUVYnwVEe/UILhcUuHnZMUri+cgqgXyWid4yvvg+CNgYrlf64lAyldE5lNUvQpc0vYdRvXbLgL3kGH4Zh3vAHjz3gCEg9I0hwNxxMTrZzy24GHxCoEINBG2ZeUV4OlkAj577k2zn3KMzF56wacWFuLJgl1JMtZGfKRAKlXIuv1ENBNMaPLKD0YXbkHeVwM5S41ODxHgKWMVpbkPeSIylyOmdfMDzxjFGXBq9oQhlBIDwO94xyktgKEavqAQTLnZAF5AQO6CIQnHo+nL5XcZyOI2mMfBlU+DkI2Xdgs+gTe+4m6fJ7UKfh6qXosvMngRI8SHcxzCObM5A8BIUEZgz+t2GfSDkaDELXSwo+3bUT3iANw0gfejebRhyHO+EVVAGpZnLixFZSwMjOsDCzjnf7hO/QhQHj41v5BfbIkc0YxjYFqa57BczyMxzZmPv05/ODt78GBVELs9IDWCNAIRUUxTxJYZD1n5B1AmOkocvScTBzfGDg7Lg1kVFqXrntBqocq2Z0ABJ3j3lgkuGOshse8/gzs9YenA2GIjNmZVMMXDG4e1Inu8ov7s36y58pGKzbT3HRzqdSzt8159DLNYfu+2E7j21fhspe/HgdP99DwPURNF7lbIG13MFW4cJ0AseuIhTV9L5htp0WKJOmCRka27RqHRyU56H5PaUsCHS2rpwXtt8kWqVwCKxC0AAIkz73Xbq5ENgYUgoE4zxAENYxQ/LmwkJJD4ZuMPIlVGjlwiWHgUIBIQAv7IgygOdwRF9+4/TaM/s5pePrF56PYawJdmVqxREiLVQFhVbhGKMtk1YEwBPW95BkEI2mOH/3rfyP72W1Y59bRu+12tKc3kkmJ6Xgem+anZeS1xow/SmB1MpRRhoxjlAQhwuonpyMD35+KitQJIFAJXfpfaBWGLQY6Jorw0MCEBsEE2yC8vmKVbFoNIokth0tdAvVX4LittHnobshKDrNz8VPgPWHuG76uP1q5+OaT7F5GVAeCvHnKwsRPf7ChDwWqqsDO3spV+0EgIu8lCpRZjthRd+0MVpbKGk2XOX6KCCec+wbs+bI/RBa46BYpagQGBD8eLddVA0TGJYeP4Qrs4goMAcIuLtgj5ekKELTAydGq6STGiOOjOZtj/bs/iBsv+Tsc1hpnWoiuDTQmxtCdm5WAxVIsA0s9LaXsW9DXnmOOpufZ43gbwQJnuPmHYggsr7PsK+VLzlxb2JB2sWFFA8e9/U1Y9eyno/TI8rf7Jc2KuPXQljYXFPSlzywMRZ6bIf4JE50OjTmKOINNUSBOgXz5G/jSK9+IR810sSKso+cDSZFKL7pRWojSTESgPNvHiF+DVTroxjHipCfvTSdCVhFUo7+6Szhmp2qVJPpRt4DBrJekC6ZE/WCj5MTBIU0FGhV4UEtgCuvwveqOj7VlDZOU0skMuAvYQ8iQlQlyj9URElDJl2DrSE2EKOOb1oGvzWzEHq94OZ50zhuRhxbmWeK3LIyyoE21HZ6Dq/184VlQmU/GKXVskJk+s/wu7zuWwKMS6KXAzAyQdERcglWMKO0p8Y/ZbZQinu0i2rwN29bfja1bptGemcXsxk2Y3Xw3MN9FEKcYiYHx3MZY6aBOW+gil4BYI2nPFFpc11M7c64nJYwJdmNyZJgt2yhdV0i2XKvC4z2fCUCU1hKBA4Ou1DBMGZ6VlmqksdLLMPcMP5KgoqoEVGZdOuGoa1NNxyy0zozrZf9WWCy4NLiPDFJRBmoUSlA1lSmOIDPGR06KMk+lEpM5Hq6b34a9/uB0HHbhO5CP+pjJE9SpQULw47jCHxGZbDn+7TyWchGGOOKRssU/Io5jCBAeEZdh1w+i6nRXQGFLr4sJx0d44924+vXnoP3N7+LglSvRHGlg88w2WL6HNEnh10P0RM/ARj0pUMtZqc6Q+SxMcpzPRkwLWiHiMZvTNgOrydyM2R/m2Bp7+jdu24TbV9bw9AvOw9RpT0UZhChZOqZS0kKMHGzT7vqJ7uIrBvc7bZkr4Y3gp7J9Fv1+qSAUsDwq+5W49R8+i8vOvxDj0zMCtNplil4aSebFEbNOnCC2XUy0JrBu5RqMjo4bKpuKHok2vykTmzF5JdvZlCSG9NEn165BuGYPqUJIL1+WaSE8SM1lcN7etCQqbQMS+f4/e98BJslZXXsqV4fpiZtXWuVVAAWUQWAMxsYYY8AYGRl/YLDh8T5sg22wBZhkkMiYZD8QQoRHBmFAYBDRAtmAJBRQWu1qNmvzxA6V633n/n9198zOrlZP2uldqQf2W+1MT1f1X1X/Pffec89JfEfG3+wwRem+HWjesg7Zvik4FLPy2fqgnHKClquMtdhCKmcmKomJrJVKmXpbOIE7x0o4/W1vwONe+DwhtM0IQAAG4cKOWYRQkwUECDx/BhfxS1AaW8JfaeQZNtcnUPFLGDM92FEsWT8hq0HDLxlJVBoYUhkhf4MVijBFUg8QBgHiMELUbCFqNJC2WjCbIczNO5Fv2IzpDZswtXELGrt3I6+3JDOm6BCPYFsWbNuGW/IRmxmqrJ7F6l5lIGdgbCUUezKlrZI5qtcvFQXtzyEkRyEqKkAkzAWto1AQQuXDFr0FqZ5wMRQhVXEOVOWhqCCoaQrdhpl/73IEtuuSd08SSNVAtzHabTYCELZ8LAs57dnNBLEZSSWEYM82fIxPTCI95wxcctWHkZ6yApNGIpVBmmxxjUK2n6TipwGCBljy13xwUJxvHyQ8xF3n0fvyPkA4yq8ttycWradaTQxyG7j2R7jh8rdj5dQsBl0b5cEB1GfrQqgzbQdWtQK7NoBkpglzJoAZseyeI/VtxEELA9x+XRexrTaVkkHL2RRhkggBTKSHKfJjArds34TZk1bhRZ/8CKxzzpCNM0kYhExYjFi9+Co2Pb3JkRMgk4iSyatIx5l6sRgiSVFTx42JabS2bFUz7tysxXFQpHIkBkisNi3Y9GSwXFhs0wjZjqtf8Af0By7OoXCd0hwIu1SC6fpqZ+5uaB/SOml2vLRvmK2nwH/cgHXvvwrenmmMVHy08lBm8MgnaZUMhEyrkwTDuY2h0ELaiOGNDOLm7evhPPspOOfD74azaqWEuKbJ5oWJKptHBE/0p2DKyskPxe+DI/FQtxhEahnYlwTy8UcsDyUhsWrjSFnnFHGWtls7zGg9g0ZerOHrD10USITbwLVWlYa8FSDhnyBAGkfIJ6eQb96KXfeuw/233Ymtd61Dfe8E8riJE8pjGAozLDUcjLi+gBSW4w3bRRAGAhLYZhARIzJEinI7W0BiY6r5I7x3qQXC3gy1IGxbgmsa07CrpbQmOOqq763uOCr0jEK1sfhoXZUk9S31G8WlLwK0wolacEu3FWQygjwZkwDBRpZFyI0YJisIslIWSomD6dkI22slPPkdlyO77FmoO7kYPBHYk9sRGOTM2MIZKqYkChDaBwiH9OA9pl/UBwhH8+XXPVFmeEEcoZIY2PSGd2HDxz+Hx1UH4TF7cthOyIX1HOUmAtvGbBqLZO6QV0XZ9+GWPcS+henduzEEjreZaGSJZNgl05EeMUcoU9/BRNDA3voUqrUB3L5zM8zHrcUrvvAp5GtPUOS2OIHtk1Cl2hKL/jUvK2IvVmyOmeaLORBELVAIXDnQzFIESYyS7aBiGPDZr6bpjeZ4ZGmiSraiotgp0kpAaOeKOotUUj6d+fcukSMtIynLIUWNouddBJMFWGSFouIcZUWqBvJPmAOf/z5++vdX4Ngww6qxYUwFU8ImjawcjRLVMHPEYYCR2MRQk1jGAgar+OX2dTjjda/EsW+/HLnnyjqE1CMwcpQNF2ZqCEAQsqkAJaUg3R5f0NeVVAWxRmb7gUZf/L5u5QsFU2yTO74bUmkhgEgg7SuW/JXMcCblc8tjGURVURKCtzwWYqfFaRu+GdsUvJ6tEJicBfbuQ+v+Lbjlm9/D5F33Idi6DVarBSMJxRBpaXUIx4wuhWdYSGJWLELFF6GTZMwR1UTGK6noKJMVNJ6ifbJhojXVUJoTrgu2M3gPEW8JYNAL0d0a6JZ1FmXLORl6B7XOx4UdoaUupUauN/kZrDgYiniZChCN4GuQkxgWyrRcjw2sa85iyaXPwgn/fiWaninXji6SvHL0c7AsGpWr8c4Cy7Yhbb/FsOhb1NF0wD5AOJqu1vxz1YloxJKpkcNrJfjPZ14K48Zf4Lyx1bA9B4GZw6dhS5wjhImWaQnZLub4netisjGLRhoCJRd7dz2AJXYVqedgIg0RpSEqcFA2OP9vIquUELtKK37Z0qWYsXOkxx+DZ7zuNbDXniTMfrYlDNnoZWisPbvfk2UWVWSxuRRtBvbfGbAIENgSkMw5T4XkR7XIAc+HmceIkhT1NBX2Pjd0Gk9RGIo8A1VKIAiwhBinlPeLtFBnwSypiwBOqjQLuDkzK5URSK122Lbf3X9a40BSy+SOBGmCKA4wCgfel36MH/31W3BiBKwYrmEmayCzc3EBbPqmGHBlcYKBZopaM4frVLC5PomdpRTPeP/bYF/2x8gcWyYqKKZEIp9nuNLnFxJ9oUKopydU/Fc6CBK82sx+Axz44Iin0hvIQBVHukEZHFXUQYgZMYGB+DwwW2d537MEfChLaeHfi+qjyCtrYyoZjmSA5k1FJNH2a+B7xYDpIhu/H9PrN2Dmga3Ys2EDHrj9TszcO46ReobBMMdgbmHY9VB1PeGMMMhTqpqS4o0sFvdSx3fhU0mSluisrCWpVJkICmRyheOjHG21qQapA7q2iJb2RZd5lhhiddmBF4CheF3xPHRn8d2VBfEHIQGVLpyi7UBOQ4pyksgaR7SSTujzYGDd5B7sOGUVnvOr6xFUHK0qqV4fEHjZrrRlCoDQPk5PHsr+QY+mFegDhCPqaj3EpqBmy5OIZzIb274L3/3tS7Fky1acccxxomQXUUo4ouOeC1glzOY5prIEU5xxr1WwfXYKZq2E4046AY16AyMjYzBHhxCUHcm2fZaFuTmaNrxaFZXRIZRrZTGAsQYqaFXLqJ5+KqKBqurfkhzFzNPSPf92Pr04Cz2nwyBpvhbdkXE3lpMNJEXpn34G+iUk4LHHnuo5f27M4sjHkULhGKjKQCGtrFz/tO+C/mhtCx8BCKyWq5FI5QCpRwPbSo7d6zGXGT/fpaHISHlO9SxBPQixzPRQ/tKP8ZPXvBlr4gRLaxU0spZUEEIrE7Gr0GU2bKEyG2OwZcCp1vDznesx9NQL8MQPXoH85BNEWEgiOK+X2BOr4CeVfy1rzJMvJgdUF14bIkkHg3wDRUxljss/EuYTkgXUSCaxAtev8JEQHoPWhaLvgLynFq8S0q32XZDKuy61xwHNpQGbrStL2ULzuLwqBBTUlkQcinW3GQZo3TeOnbffjcl7x5GMb0e8YQvSnXtg15uo5SYqnoPq8JBcp1YQIIwjOCVP2hJxGKLslxUAjBPEnJ4wTalEECAIOJB7SMkXiweDGDh16kTSHpgz1qg9LLo4Jm3Q0NV24GcWIqUeQ05gCjk1tgk0EwxE5IrkCOh5EtM62sb45F7c5uV48Z3/BfOYpSKcRS0Mm0BCAALhrZ4q6uYgLM4j2T/KUbwCfYBwJFy8dlTrzGLvX5+fW95Wp51JpifysXGIrV/8Gu7/xw/hxEaMgWUD2NOYEBGaWm6hkntwnQHsabWwz0xgnn0GKk+7BGGtjKFVy7Bq1SqErSb8pUuBkRowUEIuPIJCd16dpJK4VeJKPEeq7dHGNmBYYAk2yVGxLel/doyQF+RPH96V78ZaGhAo0qD6RN38P66hsOMLFT+tNaD6ykrPnxwGhqOizN7dP9ZYoVNIKNoGulk9v1ct66g3at3eb6+FrkF0KjBa959jeQQIU1mMmZBy2j7KX/ghfvr3b8WKsImVIzU0IvYRSCQFJs0EDTPFUGUQA40cpXqCpm3gp9NbccmVl+PYV70MqeMj5vghhRFtlb0TT8nSifeA/Ef73Ir/KhQKO9wMTrgAQc7JBcA1DNFMYJzn+5EwyOoCRxR9ggvtZEhwQAVQHk+OrvU25Clg5YfjqKrTgSbHdekf5bswWZkgamNmLWOO/I0McdiSIO47LKgrdEP+TLZzLyZuvwfb77wbyZYdcNaP44Hf3CnW5qO2h6HUlJK84zlo8XOkCQzLRqJVKWl0VnZceOTYhFHHp9zgBBDJmLlwHLorAErngmurxjSFeChE2aLK3z3tovmteoELZUbaYlMdkhWEWIzDIlSoZGlk4rXgpiZKpo9dMy38KpjGb33iXVh12R9J24TcGxHxYuVMOBfdCgydR69zPpq02Iu24OHdCfrv/jBWoA8QHsbiPfK/uj9AUIFEhZHunqeCB9SNJ+Erhxm18J9/+3qUvvATXDy8AnuSCbTMWGbZy6ScN1MM1JZgV6OOnVaME/78RVjxij8HVgxJb1425GYADNakhSC2tSINrOyFeQ4MljTXYW+Tmgn8ijkCmFJtj/LLjugjlIsMWuUybZ+CR369HuQdJdKpLVB9BE0Sk0CoxYv4U23NzE1cBciukTT5FbLdC9skFTKlJa8zbQWc5vaQ26F1v6Zzh7tQHKXwB5Br2r1BF2Q4DXYYTKfjCI0kwnKrjPLnf4Qb/u4tWBY1sWx0EHWOXLLaYdFDIUU9DFHzBzCYuzCaMdY19mK5GvjFAAAgAElEQVTTWBnP/sK/wbv4PCTMVU0KFylBJ2XLrQNKt1hQ1zIr0yg97ihOnXSUZBk8RytPJfunV4cr945aBbZqlO+oAU8cDVXApK+F/KwQ1GrDkUKGUBP19DWiQqBMRAh3Uo/Tiuog3yMTrwI5husJEZHVEWnqsMIWJXDoYNkKEY1vwvZf3oLdN9+G7P7tyO/bimojQIWthLKD0tAA6mFTqknEHuJOajjIw0S1RoxMqgvy+ag8KZMqLP2rO00JYal6Erku6hbSnAK9lt2qi8XyFvdQARAorkVTK7aWEosjmjEqYtWeiQU7WxB0xkxNH7+Y2AX/Rc/CMz98BRJffW56b0g7TIS9FgDpnWVWnIlFf0D7BzzSV6APEI6QK6Tz866MXZ1Y9zT1/ExUONkyxpDBrs/i08+9FCfctAUXLl2NTRNb4I9WpQ/ssCzZiFGujGBfHOPOxi6c8fKX4JS/fjkay2vIPUvKldxw6Mao1PO4IZnC6LZT1XlmzzahNoBBZT09s88+KWlmBkVtqJEHiAeUHnGTcnTPth7VTG8XaLoAgpph14CBm7nWxmdvWjkuqi9JTkVeWfMKFK2irU4gVYWDfWnAUbxE+vgEWhqGKFFgVSov4EwbXOhNuyBDMjQ001j+UP+g9NnrccPfvw0rkgRLxmqYihpqBJCZq0URyACe5WPQKiEIItzS2IOR5zwdZ3/83UiHK4hF09AU8yFODyg5ao6pMugpUSAlHd35klK1qEKS30GuQS4ZPUW0OD7LYEkQQLMkKi2KkqEeMRWnRjmWHhekg6MO8GrKpMiw1XHVYIMqaajAbIhtucOWhvwsk3MQAqOWvubfpmUjJNfE5rCHUpTM4lgEhqqOixp9KloR4j1TiMd3oPXTX2Lq5tswuX4DJnZuRZjPYIk9iDUrVqJaKmNqYgrNegu2YaNMngrbCXriQQlY5YrfUgAh7RtR3HmFi6TWm2ov5lzXyM50Q8cASqC44v8YHFlN4PPzsFoiFTpWNFKUqyO4bXIX7j9+CV75/WuRjZRFOVPu0lQRcjneut+X3lDa9/oRshf2T+PIWYE+QDgCrsXcLXhO/goWFouAMT8HUHskZ/ozGPeN42svejmO27APJw+PYldzHypLh0TMxwipruYiT22Ejof1aQNr//HVOO4Vl2FfKRNJ2xHDEzEalohbWYI4S+CZNsqGEqdhQAtzMt1TIZWRRMXjinyM6QqQSRO2PDI1Cy9+z4WccK9yExof6SKq5hC0gzCDHCM9eQRURxTAQz8LBRaUT7BSXFTUBeXVK/8qeIUaLDzYLdR9faW3L3/UnJ9qVShEpfwC1Atke9fHYaCRLNkwENLcKEswlNpwP/t9/Owf3o4lcYzRkQHUEcLJM9EjKHH6gG35zETV9FBvRfi1EeCi974JQy97PvZmAaqlAcnmSWAlOOCnY2uI6IL3QcEJnP/5FC/AkBI81Q05FWC6ttxHMtHAcVA1qiE6AwQNqpiTq5I/+QmsyHD8UC8IXyd22CzZk+TIzysuWGohxImxMEaS6g/BgVJj9Ki/QfMsjvKSTiFW1CZy10SQ5UosS2sxOAQwxChsH4hPBpAHIfJ9E0jvXY8N1/8Y677zfVR3TaDUamJFZRilSgVxmsh6+nIsyGf3WakQrQ11LZMkVoRLuX0Y3BWQccS1kpMI2gZSL+hCY4YFMVNVEdR7KNloah/wX7TwToVUmZo2p1hR9iq4d2I37hv28Mrvfg3pqWvU52fFJUrl3qUz5H44fR5A6AamD3ZP93/+2FiBPkA4Aq4zN89iUE4xjdXgPfuHBAhthC/MZlXflthGa1gS4SiJ/43rcOubrsSSB+pYOTiMhhHCGPCwb2ZKxGOWDYwhaqaoOxZuae3BWW9+PU54xZ/hgbSBRhphpTMgdsHkFFA4KctTuLDgW67EeTHUEeaUIpyRDMYMUehPBue0gThORQTI91TAaLPdelJB0CsqRE5yJuZdaDHOUaNtXEMGORlV46Ys+gbKa6D4jB3/ah3PF0q75hcTdPbd3WUogkIx/cBsXL4Kgytd19BmfioJZPAWIpyBKKHQT4JqasH6/PX41RvehaFmA7XhMmbSFtw8g5+k8HITnl/GLCW1IwP1IMBdIyVc8vmPo3LJGdgWzGJJZVCUFjlZoIiUmYhcESCRm8BloMDUggCBBlBJKuJbnEM0OBlDi2GSYqkfoK2pBYS1kY6aKGGrgMfg/S0SyOIXQYluRfpTXBF9k3dNV8p5sGIh9INOdCMJUnwONF9D4IjWcIioMsmKCIAwptiQAZ+TG8gxG0VsDMB1WP3K4fG9d00ivvFm3Pet66UNke7eg0HHxbLaELwwhRVxJJPuJbl85lYaCgDxfU8kpbmGYpgkLRt1D1kZ7a01f2fechb3w0LjjwQJqkJRSHMTYHDtFFGRVTvDcuFkJsZ37cDuoTJ+78NXwHne7yF01VSJE2uZ5oNUENqgud9mOAKiwZF1Cn2A0OPrUYADkq2E1KQigiJoiUiNmt0XuWDtPCca+JJtMUNOYcUJ7nz7+5B98dsYnQpFX96o+YiobdBsiMzuoFOGFVnYlYW43a7jgre/ESe+9FI0bRNxnsoYWBolyD26wCmBICmNZqb0YkVwiC1NYZhrVz2q4pH1L/Pa7LsqpTrH4dSDnlGTDbEXFYQOQFBqfl1nIaCA/I1C3hjILOU7ICbCkm1SalqXyZNOJiwld/loHN9TJQRh1BdNgi6QoFj26qtwBlSbvqrIqKxW9dRVoqzbDLqsLuqMogmggg4JBqwmMDu3gwz4zLfxq7e8B8NZioGhMqbTJpw8RYVZZ5jAHxjEFEfzJjnTb2PfOafi8f/n3YiPHcGsZ2LUdsX/oHtkj9denZ86d+EntD9Fp4alqRm64qECsqIKquqHvJL3TDcya5dP9KrotStcDts24cUz2XXbLFgG5ze5PlqcSWgx+sT4nmrh1TimGjtVxFmxeyYYIiAWgyQDHBVm9YRguLl7L2qVGrBjN+677j9xx9e/g/K2fTimbmAJwQ9S+BUXs2Edk8EMYiOBXy1juDaILIiQhbFq/Rl0yNTjGoX/RiGz2a6G6CXU590WYdKnT3IqW3/8YAQG5CJwpWkylWXK8MrPgMmZGUyXPZT+7Lk4+R3/gEbZQmgprxWPr6KYxPxHUa9fJz1R7a7+V38F2o9gfqCh6/4aLcoKqPIxbYi7AQINgdjXNIW5rvrVtCUm254z9VrARhMGzXqAX73mjRj8zg1Ynjhozs6KYl7kWSIEREVEh7LJqY8dZohf2TN44hVvwkmXvVDGpZhNObEiehk+2wWZ9LEpmMMMV8EF+gooEp2ahCde0DR1bjSFZG13INabXm9sm9QOy8+kI3QHpgi5jhUE7ZxIp0OxNVZgh4GZ/xNApi2GGWCUDa96X/Eh1GOQnTjWmXKQjFCPocr2rnX7+X7Sq9YlddXOUOsp5yPnpEYjCWKE3MYeslTlmYHHSCen0dq0A81rvoHxz30ZK0sVDIzVMBnPyLWr+j7CegDYvvhHRDNNRIaJ4ZddhuP/4X9hVxmwBysYBKcKlNhBmyCnfQxVGBXKYlcOPw8g8AVdgKgzFqlbJPMrKsVC6e/vN4/fWb5OG6fN+l/4cZx/iKKB07kmHLNU/AWpULTfpgA+BBB8/hT4DTNgdmYGNd9HmXoH9QDR+s3Y9bObsP7a6xFs2Ihqo45hz8KQ46FcsmE6JvbVJxGlCVyqlWYU1uKEA4+pSIy8eYp7QMCk1kko+AaSKJCbolsUReuFFR4+u9KiMHOEtmo1UJgqzywBqi4BfJJgwgB2XXIOLvnMv2J2wEVgUfjKRol3cwHUurF6G3UV9cs+QFiUTf8oOki/gtDDiyVBQAMEVYLU/vTc0LhhCBNbuQAyYHF8rBgRs6R5miNj33PfBG792zfBuvYHOKW2HFEQSKAPKbVKfwW64lE6NrIxOejix+lOXHzFG7H2skvRoGWx7cAIExFWYqAUgMDyZK5G3yQQ6uywYKTLshW9cimtdhKUrjF2+Ry9zElUPlxQAHUfXP4qBI/UuBwthVjFUe1qmttYyulPKu9K1EfIizrd7sQ6XQEogpueX5Tg164MsGdP+WISzYy2YFOUK8MjkupEZyHnzxlcVBUpjxIBBi6tnYMY0c4d2HjLLVj/8xsR3LUeI3dtw+pGhDVjS5H7Fh6Y2YXEAUq1KuJmjDjKkTsemlGE7UmE8/7t/VjxR7+DrUlDPAxGTVt68DzRgggpegJyrTvKB/MrCO3Ecx5AKO6T4udzqgzzstfuwF6sZXEO7eylq/a0UA2qU1XoDvsdPQJ1SH337QdWijt67tGSMEGj0YRfKsN2VWtCCJezDUzfO46dv7od41/8OqING7DG9DFimKgSyOex+G0EYYRyuSIANGbliToYwiNmiBe7J12dU896W3OCrzFzZY4lbpLqkaJFtp8SPFAcyUDgcKqIbSS+gAJOnK4IhPuzO2hi14Vn4Bn/99/QWDqIwFQ6CRzhLJ5B4TgUH3leBUF9u5dPaw834/6hF1yBPkDo4Y1xUICgM5pEVA/Vdu1IyV+NUpGIxcDFnCi4bwNu/ts3YPBnt+KUkVXIolR08BPLQmSS66zU67zMx8ywj+/F23DxO9+E0/7sT9HK2YN1YIW6QuAwo+Lx6JBHh0K1QCrDUc5+hWKclG67SuMCGNiJ0KNoRUzoRYOhuKwFk7wTrIqRvkLWSJ2dtBi4eUuUUpUTNemgZspzigVIdqfqIYr7SAKcqqJ3JjWUeZOUs3U7QgI+KweUoeZmTdY/5bHzDLNU8dNIy8hi6YNTtKnC4M2sMwQwvgV3fOu7uPe/bkSwezd23X8/luUWLigtwfFWBa6RoZEEmMlaSAY8xI4JBrqS4wmBdGNjGuEpa3DB+9+B6vlnYmccCGgcpuGRJkgWA7ZKX7ITKFQM6YTi4l6YE2S6nqE5fIvuQDQPICz02HXXKva7d/YvFXTeYs54gAI7xfm1J1W6vteOi/M4IgzWNLQK6k2UazWkNpU2SdiNRCuiZrnIZgNM33YndvzoBtzzlW8g3bgRZw+vwHJ/AHlIaWhV3YuyBCErclLaV2RM9RHU2LCQQ1kR1MvNdSMwoL4BCYj8b1FHTXMBCYQXETVHaOHdBgiqbeKxMpJl2Dw5gT1nnYCnX/WvyE87TqqDlI6mNkTbonrBh7HjIdqbal8PN+H+oQ+6An2A0MMbRKRqNVtbRhY5381NgxUEblacryYPgZsKR7y4+TCb0A55aRLBtSzs/sWvcMvr3oxj1m3FsQNLkIeZsMsN2i+zD56mSMMIJaOCmREP/xlswSXvfAtO/7NL0SLL2rFgh4qFbZXEkqet5MNNTcT2VNxs/y0krC7wIJUCZlqUxd2vzdC7RZY2eHcdXJf7ixG+tjm0pFaKc8FrwrK0IpvlcOhXoMWS1NiBQAQ9AtiZMpFP2Z7cUCx09f5ahVGP6wVk/tsWMpvjeIZMh0RxiLKRYthyZazUbMWYuf1u3PXN72Hnz3+FdMNWOK0Iw+UBrBxbghHbR7Uewp5tIZidQpSHcAcHMOsBe+MmXNPBaHUQrWaAdUaMY17xYpz0qr9Ac2wIAYmktoWSzhfVeaovCa/yD91CWYBBcsAKwoFAwFx8sf/N8GA/7/6NhYDCPIBQ1IvmV9P3i41FcNYFMLmSHG4I1FRC5ppir02figQxPJp8UReBV3SmgcZNt2P8S9/Eum98D2NRijMqKzFoOmjMTIkXiV32ZOKEls0k7RLo84vvIc+5BghSlBISqgIHBUjgPcf2gUvzLCoqSkVR/R6lwRn04yTGgC/yU9iwZw92nrAcF33wbRh+6kVirsZWmIyBLtRimE8A7RFbqHe7Q//ID7YCfYDwYCt0GH9eAATJMEQ4RvnaW0KgYwWRvXFVbiRAYHmam4sMpHFuPAnhJxnu++Z3ccc734tTdtcx5lSRBYkKdlSUc0gkJECI4VplTFQt/Fe8E0+78u04+YXPExVEViPsKJes0y4AgrCkVeBQG6sKdOyHS29diInqu5IxC2tdk/X0HHj7l3tZQiiwjuz4+lw1dUKN0um8LuG8OMGNCvhsNRCIkeUurn7CttfkTfIR+LvaBEqJ9+hV0llp0fMWcqH0vy2kWYIgjBEnCaoDNWVJHEUSngddCxZn1khy27QV23/wU9z2nR9g9023YaDewMneEFYOLUHCtodlozlbhxmnGC6VUbaZtXK+0MLOqIEdjWksGRjBaLWKB3buxPY1S3DO+94J/0nnYprCWZaLssXgocBTO7tUn1wDxHkAYV4QfygxfcFHqDvQz+MmtF8/776ZA0yKW5LPRxvo6FPXILDzPrqm0D6mdsbUn1ebUWtypoE4IpfAlrFd6n7IcKtNDoByprRoYJZEQg40ZkNs+fRXcMdnvon8zk043a/huKERZEELrA0RZDRTmkLRUVIBARnF1IRjqSbo85IKnW4vECzw36wWsMWhOAiKB8M9QqZPqPXQaqFWKsH1ShjfN4ltYxWc/Pd/hRP/7I+R1SryCeWZLb4Utm2XWBa6DIdxy+u/9VG2An2A0MMLNgcgCHFNTyow8IhCnQIIyvHOUJuCjOHxe0pzwJqcwc0f+xQ2Xf05nBlkGDZLyOIMhs3qgep3K0lmBgIfO6wYd/oxnvGet2PVH/wuQm5clLDNOdut2Ppi7EILaM7myzSDks6TyQaq78kUgGbds0KhFeT4fZmKK0bbuLY9BgdFsJdTKXZDLRypJv/VN2XMTvslCPdScxJkSkTPy7fbCG2d5IPVvXXJpVgD8WZQ1tCm48o1Mql0J72GGNnkFMJf/xozN92C23/wY2y88zaMmj4uPvEMLK0MYHJ8HK1mE6NLV6HZCjE1OSVZ4+hQFSXXRZIEaEYhwpKDZpZhwC7BCmPsmZxE/jsX44z3vRkTq5Yg9X3UMlfpJXjUsNAPQDviF3MIHf7hfvP68/wE9nuEDgU9HCgyHSRiHQhTFC2FtvBQEQQLwNMNQHSliPdzQbZVRSHVmmB1JUwi1LwKjCwTd1ISiE3PQmZYiPIMrTSAQe4OjbCcEqzIRPzTm/DTj16D+Ja7MFoPcEy5JIJhbNexkhdmKTKaQurFKuSq5Z6T6luXA3hXZY7nSRirWhQ8B/KQyCmQgVxEBAh+CX5pABtnZjDuA0ue+zs4//WvRn7MCnVvF4B93oUq1rPAC0fAo9rD3bh/6IVWoA8QenhfFABBRubIYOb4oEwPsIJgiBpapDMJjhzSKVFGtGSkjG2IHNnW3fjZW9+L5revx3lwMGSWkdOu17NE8CjgBkPgYdtI4GA8a2DXMUN4xpVvQfVJF6JJuVvJVHT2nNPRj71L1QMlcY+tAxltZIbNuieFbiSOUDGJMq7a5lh2HJ1N6yCruXo9W2WpexS7slb2EwCgM89u/QkjIymwKLeT2U5Hv0Tm+hGEyOotJK1I6QWIzj0rDWrGrjsmFWODorOgp0Qkc5QxRQ4iJCJLbWcmoolZ1O/dgJnv/wjbf3oDzF37sMwvSRXJ9X0tWpQhMRKUymU4joecmW0QizgQW9x5zqpEiIiOiJUqDNtDJTIRTtcRuTaG/vJPMfLal2Gy5sP0HJjTCSoUNyoXQkRdteZ58rtzgFVXFjofGu0XXBbIUue8Zl60XxBTPMhB9vvxnDfRrZI2wVYR9dpgZ4GqhZT5RXApkgoCR4n5lqz00P5bdECY/fNqxxFKJJfKBWUL0EK8awL3f+EruPOrX4e/bRdOcKuoJqwW6KkjeiTIs6LuP3k2NBG2XVHQ7YdCKCkx1WijGnWmngI/UEF2JJE1QtmyYXtlbGo0MO6k8C85C099x5tgn3Kc7CkWJykWEFzrBghKf+XIAPQ92yz6B95vBfoAocc3hQIJHREVYTUz6yBAoH9bQYwjONCGLzHL/6KsBiT3bcINr3srnJ/9Gk+wqyjnZMSbyBwDjTQWN0f6Kli+j9R0cFd9H1qnr8Ez3/sWGGedhiZV87hZxTnKrqdmrDnCWBC4uGvoHinH7BhARWaPgVFU91R/nkJK3Cip/y5diPZ+0zvak2zEalihLctQ/IM/Uwp4BD05bvjyF2HsncRyfxgu+7s5IVgss+d5nMCYaSHZO4XmdF3kfR0SO00LccoWgZpkkD1W2ixFz4XtANVaYByhEyHZ7GGrheFyFSXLQXP7Tuy8ax2S3XuxFBZGPA8Vy5EAxWwxSKnynyOmeBVzSUoL01nTcaVnLUqGFM9xTYSitmjCSiwMRiZaaYodox6e8LbLYTz7aYhLDizbRGv3LKrlMswKwd28yNA1sSK8kuL5WCCCH2p5esG4c5D3OxABUk5lgbZD+9tz3rNzdupeLBoJXQ/8AgCEyowpPRuIvDSQpPsInxEqXbK65rCixOcxyRBFkViIO2VPPB+MqRns/eUt+PU1n8Oun/w3jjN8rKkNi1plLO0kPjJ85nKE5Py4jlQCmQBwnNFNyS8wZMKBoCC2MnFyVGOPypORwV5MxMARZr4eCJIUe20L42aE/PEn4Onv/Rf4jz9NCLD8LOIQqatl3cTNOUvaBwg9jgZH3uH7AOEIuCYsYXZziGQv0DP07DmzL86gxIyGkS4EJW3JdjfQ+s09uPG1b0Dp1+vxeHcIFr3sORppMMCxJ2GJ0A5cF7ll487JPahcci6e+C+vB04/HilV5Th3H6WiBGfEEYxQGIualcjxvFgIjCyRm3STC1IkSQuNPMXA6jXwlo0hyWOR0HUtR/q1na/FrSG0RXGKsUwRk1KTFWSiU0O/yAwpzUswReGh15/zBFTGN+HiwZNRa6Vw8gShGSJ32ZOOYRJ4JQz2XBZF/JJqjoIFC9C9OsGsszGrDJa/R1BCgMFzIcfBdT14DsGdIk2ISJVkl8XMvCI8qrK4quiIHr/0tFOEtoEW3ysz4QUZxnIbW+MA604cxfM+/hFEa48TtUib/IWZJjzfg+Wr6o8ivHSEdDrg7ojoEB22J3SheMiJFXIPOIkg1R/iYZJLueosmPHacWSYNB9Ki/N/rMK5BIk58iiEHaeYuelW3P6ZL+COr34bx5dLeNzgamSTDVSok0AiIomPFmTKSFqIdJOkVklsoBQTtBIg8BrTd4HVRSWqZadsMRpILNV6KHPaJUowWW8gGRvGeNrA7OoxPP3978LgRU+QMWcCBBIruxocc9e08NvYT270sC19/42PkhXoA4Qj4EIpgKC4AkX2WUjOppkJm2NMWi2O2UrEjBE5yrmBmV//Bj9/zT+hcu82nOQNKm0EkuvYO2e2klFkh8GImb2N3XELtfMej2P//Pni5EiN+TwB0tkW8laA+sQE8tlZmM0WUm50rSZ2zOzD1OyslLZLmS2WzlPNaUx4Bp700pfgjGf/LvIBD1mspi9M11XVBflMiwsQimCt8it6EahpBNs0lMFUSr18NamQCFiwYMfAx857Mpbfvx1PHD4J3mwIK40Q2RESkjNEFErkprQWgs5GtY1xO8nWWhbFv5WhkCYCMtCT1CZtDtap2cLIpUJkMIukSRati9nmoB2jVDaU0ZVivSs4QmaIWDuxiiQlcNHcRssG6jZFdUzUUgtjlo//2bsdlb98Ac5/8z8grpVFEpugIw4jeJ4Lg4ipAAjz5t8fS8nkfHjHKk/hGqmqQroSpW2pxdZc+ED69ub0gaVEtNI0hpOSnxAh3LEPt//71fjV167FqtkMj/fHsMTyYCUppupTyEhMrfqihSGTDhx9zAz4bEvwmFRO1C1GBQR5LygOEoEDby7W/KwoRiOOgLERbAxmMDFSxVM+8G6M/vbFqOuRaM45FFZYyiyiuxSjCRB9gHAERIMj6xT6AOEIuB4FQCjkelX1QIUCJv+i8S5qauQf5AgNpVNQpsTqf9+MG197OYa27sMqb0DKkmEeiR0uy5VunIsXA0ckKarSMlKM13cjHBvBlriJehDCgwsvYbkyQ8WwUElzDMISm9ummWFH0hBBpbLjoYYyHMPGpunt2F318fz3vwvHXfocsXCkmluW5LA8S4hZigG32AChIByoTkgiQTyVCoIjegQqO6TCotj5UhApzPHJ85+KVet24knLT4HXCJGnEUI7FIDAErBjOFJF0DmjGnNgpi/+ASqcSn9ZKgBq8+XkSaGsq4rDRQ88l+kIZRNMBUedITqOfC8SS19lky1z9QWBkscTEEkDHq3VIGEiR8MGZi3lnzFM98apWdyUTuE5X7sa9lMvQmzzjrFgKPtEOF5RMSjC41yBnMcSQCgkoqXtxGtBbw5Wd8i50deMAL2YBS1wrwiC6dubIIJcHiE08n2ilqhUchxy17Xfxbfe+T4cPxXi7MGVsGmrnsTCGbFrZSFGsiog6ppCRmbLQXmeSJ1AJhdYHVKVBYIGAgTuF6x+mQm9Vw1gdAhb69PY5dm48Iq3YukfPQPTZi4tDVFT1KRc0fiYDxAW/Tk9Ajbe/ik86Ar0AcKDLtHhf0HbFrYtpaLll/lAszdJqV0xpOGsdI7IVEqHfphg4rof49Y3XoElEw0s8SoIBCDEsMwcfmainBjwaUITpohp7OT5mIoD7IiamEaGklvGoF9BxXRYf0fQnEU5SlFJ6RRtIfEtTFRNhJ4pgKGW+bASA7/Zfj92Lq/iDz72QQw888nIPPb0FUfBJjhof/UCICgmPjd89u/FpVB744nHhUjuqkDATJEGPFde8CSM3r0NT1t9OmoJRagiBBYrCGynxHBzqlEyA+8o4fGT8T0USVPb/srnVgChPfpYCCfpnraqSCijKJmfKEgbnHeX1gPXT60br7+8l4zD8Sg0ACb/hOGeAEIJPDUdoG5l0hsvmTY27dyOrceM4tKbf4B4qISAx7RcVZVIeY3adQ89yTEXIDwmGO0aBRUAQSzN8wQJFS85ykg+hzZKYouPEsqs4JmWkkUuKAziNKmVNCMjRwsZgrgFK4owVhqAMd3Arq9+Gze892OoPXSjwHgAACAASURBVDCB0weXYkV5AGGrjqnGLMAKkmUjERfK4lorHww5CrVKtOQyz4Eth8DuEJotOk3yHhquYXe9jt1ZijP/8bVY9pIXYMozYZZtVORu0WyMPkA4/Jv6o+QIfYBwBFxI6SvrjEFKmiQWMhRIJcGQ4rap3GmFmNY0U7hZhlI9xORnr8W693wMy2ZjDHtlzLK9IF7MmfQ0SzE9GEiootNiDmegjLxSwSxLoWUffm4jod58q0WSNPyqD7sZwgliGEmOxDWw288lO2WAGs58+IaDO3aOY/bUY/HMqz6C/LzTETqZ6NnbpiVbkRZp7kEFoVMwVhmhSBop7wTRMVAcDbEVZqbGIBAnePdFT8HYnZvxOyvPQC3OkWQBZpxQfS6OtMGGl1jifCjVAJ2BGbSAljJBV4DtIr9J1UfIpsrgWZjwxaslyFtKe0HAlXpvthPUGJyqEiiPhiKDVdeW36CLHzNLZpiRYyCiHkKWY7bVwpakiaUv+H2c/W9XoOWSsEplxRJcquqxhy7ymsXdNu/8Hytkdm22xVWQYQT5kyFJEwFpRQVB2kTacVI6OrxcuuHDayOcklSFX4K1ehahmcWoeD6cLIGfGTCnW9h87XW48QMfxuDuOs5dfgzyqRmZQnBsR34vYUWJ1S1aYfPe4POvu0BSDRSishJTEoDACQWC/5wtRSCtlDDbCDARZzjxlS/Bir95KWZrPlB2USHQEbDBu1FX9godk7b25GMCFh4BO/7Rcwp9gHAEXCsCBJmxl9jBTSFDrDUI+DCLJ0Csdm2KrTSNVER1ytMt7P3oZ7D9o5/DilaGml/GVBYj8y2kbGimmWxONHah4Ap7q5lnY8ZI0Mpoy+wLKYoOdCbL2zIaGYlKWzUGPGYrjoG9JQMtO5Py9Ujqo2aVcNPW+9A862T8zuf+D5JTVqFuJcKwJ0nR1QQ+yXAXe327mekyyqgUD8WshkRPbrgUmdIAQbLEKMWHzn8KVt69Bc9cehrKrRhR1sJMJUHDz0QBj74UfkKBHBW4cwofaSgnZktdmb76746TIfvLBHZS3S/8HHQVQ1wGSYzT/hsOS9taSEdKylqSt/Dg4G0gBDVR2VN9a2aPzGzZs6avxvqJXdi5vIbf/9CVcJ75FDRsA00K+9gufNOBkTBDZuWi47NRXKY5EwSLfvEW+2bpHK+bhyDiVoX5mJ6EEQDXtt0sGjDqZpNgzo4THzmSYm0TAe3Red9YBpyEYC6DuW8SG6+7Hj/50McxuGsCayuDGM5NOJHS2uC9odQStUCZqKkqXUg/puyyqitRcjmwFSRlJZF/N9myoGV5mKMe5Vj2oudh5T++CsHSASQlG1WzGPMsVCO6r33ne4+hS967m+0oOnIfIPT4YhWWwe1pMwEInLtmFYHZAelx3BWUxj/Fj1pGAjdN4UzUsfXKj2LmU1/H6tSG55cwgxSRT5topV9AEpMILGmAQDe4hpHAcGwpN3sRNy9DAEJoAzNJIKCiQjZ1aoh621SJRjHMkgwMRS4qlo879mzC5KnH4Vlf/zTSE1eiaSlLaPIlyNIWtncvjF/mAQTFGdBFf22OU2SArCCIQmWU4l/PewpW3bMNv7/0VHiNAGEeYrYUoVmGWAF7uY1SYssaKLEqQwV7dn8LgKAE+vTRtFOknhFty1R3gQdeZ5lrF+Em1jk6JyoCOoWIjtbu52sTwxAOCj+DZKYZGQl0niTXJIPn+/jlvk2YPfc0PPcrn0G+dAQBQWUWwzVt+KYtstseZ/gtXUZYSPjoMUBC2O8jFgCdEtt6dFVVBdRVlcxesU3UlImuwIj4FbUOdLWIIIF8hIhVOteV589IQ9gEgbNNrL/u+/jxuz+Iod1TuHj0GPjTDZRImIEBtihIXuSIKqdOWHHiLUPFVE8cSDn5YMo15X3o8jzzTK4vfVtyeklEBgae87tY9c+vRbRqCEnVRVmPaBLMqK/9AULvBpJ7vAn3D3/AFegDhB7eHAUZUXrQfGSlJ62iAp3+FECwhGAoEwIkMolDY4IS05U9U1j/xnch/cr1OMYqIXdt1PXIlfwuZYLZu5RgkwkJKjJT6WFyzI3yy06UwTNs4ScEZi5GPyTulxKOW5ELAcw41FIwYMUGBiIHnunivpld2HniSjz7Pz6H7MQVoh/PPYdlUfZohWnfNTq3aMvcDRA0X1A1agwRFpKNXn+fAIHTDXaU4YPnPxkr7t6K31txGtxmBCpIzLox4rKJKI7hZja8VFlAKx4is3ZGVjW5obbcImQoPkLhJKhEb3TA5yx7ocSoBXOYJbKnrRQytUqmVqds4wk5Jt/XQiTqPLT8VYTD1DRRyS2UwgRBluKOdAb+Zc/Ck9/3DuS0fobirXAWnmAzaYWio2A5lMPq9BPmBMzHCEBof/zivhGNbRWU5WmU66EEr1SerSy5C9ElVvvkPdr3uiHk2Eg7gIpVd0JPD1UTdFltaIXY/JVv4utvuQJnxBbOr6xAaaYFi8qNFtCycmkJGZ4tdu8UTPPFk0FVGujSSol03m9ixJSxxZAgsnPkzQRhBFhPfzLWvPMNCI8dRlLzUdHXvg0QukiKCpoqMmz/q78C3SvQBwg9vB8KN0fJSQnoOWQvAEGx2ynOYrNHzfJlQsY8t5hM1BEryBFu24Xf/O0/o/bDm7DMLSE0gdBVZCcpqxdkNglqGVIGNSo2UmbXdkQlkG5vrmFLP56Bh4GemxCzU1fzHlgdYNmTBKly6sCzPazbtwO7TlqFPyBAWLNMZrqLKYwCIHTP1i/aMs+pIKjNW21/poxpiiMjARez9jQRzoQdJvjYeU/Csnu34LdXPQ52QIZ5JG0Vtl0IpMT0RivY8T0l8xc9JM0PaE8oaPkI6VV3JhfYChBJXQYSGWFTryvsftX6aHNq/bMOYNDdJ5loZMuEvDZbvBgi6laUfdRMF/l0A1sbkwhOPx5r3/4aDD3raYgNT9jyBXgjPSUJQmlFWK6/+EMmi3YjPPiBunLpjq60nk4pWP4KlAnjtKtTTyGzOb+t6wqKbyKTREJeNVRFjeZpWcxxJLTSFkqWiXIjwq0fuRq/+MAncXZWwamlGtCogxOuedlB4tvYObEXpcqAMHpoFOVmSbsVEfIhy1lBsEDZEeqSEPyTmNyMcsyedzZOfO/bEBw/hrDmY9iwBBzK6O08HDD/kzz4yvVf8VhZgT5A6OGV7rZ75hiemaquNmfkmbHzwZU+vqZZc08gQOBsv28aaIxvw40v/Wscf+s4lparmGVX3HFlnp6bhhpxZ39Usd8VQNAkO4ZzXWIXBjYZ9CK7rHqt5D1whIp7SWhlkqXKCFbCDcnCuj07sPvk1Xj+Nz+P7PiVap5fgxKqBypXwI74zqItc3u364w7FgChMGJkDEg5Y54kMqlhhzE+cfaFWHX/Nly0+gwYUYqIrRqWkm0LRktpE4ivBUu+BAU6A5P1LCoIXeBEZZ6dT62mENQfkXmWDFD9uwAJrPIo8NGdvWowoVNdqvzRx2FwoIYsCtEImvCHaiixsjBdx+31HVj+h8/E6f92JYIlAwwtigvPlhQBp2khCwMhZ1KSWaW/3fabi3alen6gBQGCdlglkbX9tV9i3bm3usmpfD9WD8gTacaxXMSy7cCNlVMq1U0pqDTdnMbq0gDyvQ385l8+hF9f9QVcWFuCESYIUQvlsUGpBuyc3IdyuUZmq4ADFwlsaX/Qxp0jt6qiRV8Nym1HWYCa76MeJth64vE47aPvQ3LKCgQDLkYp7a11HNqfu2sBHgMFo57fb0fjCfQBQg+vWgEQJLFlpkH1QgZoi6NryutdVNdF+pfjeawgKOEfbvszG7fi+j95OR5//24srVTRkABGF7pUyFEyF6kFUrjHSZtTIlBh0qNaGhzh4tgdZ7+puigBijyCAliYBAgGMpnFtsRN8J5d27D3pNV44be/jOyEVSIUw9RWRvCIZLqE3XtTuOxs4u2Azg+ll4UtGG7aAhCCGFefcy6Ouf8BnHvMabJ+5B2I1bNhwwzY3rGQ2Cz3qjUToqIGAfyOwCfdfujcUmoHLioFc2+1zqpofuNB70SWsKXqoSWtB7wyGg1CwgylUglZSEgD3NzcgxP+/E/wuCv/Ga2qD9dyJf5T7pkgVG4LrSAJa26LofsEHqsBQzhBXe2i/S6KXLYOqW/+OrG6Q/4BSaG88GWSdllMoE07lRFtWioYiJot1CwP4Yat+OVb342919+ACwaXYZAiSrMTIoY2tnoFZuoh6PFlIoZNArGebIpMF6nBKmAKjjn6Vo44baJkW5hotbB+5Qqcd83HkT9uDVpVB6OGI61DXv/iyZhjbtXDfbB/6CN3BfoAoYfXphsgUNjIbAMEkuBUxi4AQTR5lBwz/xZftyzD9PhmXPf8l+C8TVNYUqkioMa7jD1RWlgLK83pjKsKgiLYq768eNqxF8/ROlYYmF2zJ862q4zhqfKFsmCglqAN0/Fwz47N2HvSMXjBN78oAIEVBP6yzOdbNJXpbKNzJ+wXa8EXAAg0YpI1ZBlYTQ6QzW8HEa4+83ys2bwDZ606RaYxWD0g6dJjiydk5LcQ20oMSUhpsobUKdAAQJBAG4EpXkKXDWLxowIskORW/IqcUxdRsCgBt0UO5a20i6d4ZVC0CZgNG/A9R9pErWYDTRvYvmwAZ7z2f2HZZS9EWvGFqMpbSYCFrvDITD8JitRb2E89TzE2VJB8bH51V4g611SvRYdNrBkJ6vvdayXjrHpEkfoblGaWOUSRbVZRmiqWvDZmM8CuH/4M//PW92DZ1n040S4jmJqCU3Lh1qpoxXz2CLhDWHkMj2jBsEGAkDAZSHMZea55/O8GHCPFzvos7hlbgos/90kYZ52EVtXFmHCZlL+abmRKu6L99Vi92I/NW/yQP3UfIBzyUj3yL+wABAOWqVoM0sXkmJPyTdZEN1XWVkZAOrgz0xjfjO8+/6U4d9MkRsplxJ4tls2OZYuZkvKQn0uQU1mvImIxcEsXgHuW/ICbGCcgqNamhFg4RsURSbL2SZiSuX3bwz0PbMK+k47BH3/7K8iPXyHHUaYzSvud51/kWb0HCFwz1fuX8C5l/hyJGB8ZUkH4xJkX4ITNe3DWqpOQJanyu8gzuFSgjLizWorbIcCKAEEZ4Cixow6nQP5Fa+yi7aBxQgcAqB8ogKDQmvqdzv1VtCbm2ywX/7ZyS1QgU5f3TQ4vTKSSsCGYgfeMi/G4t7we7imnIvdtqQ4pA0DlWiWQkNeJbSCDRee5kUHPUsi905vr9sg/Z4fzHfeLsfob0tYpsnXpKWWqUmdYyo3VJpGRnIIY/r4ZjF/zZdz1kU9h9b4Aa5csl9fvnpqEWx1ALoA7gpmH8GSPsBCaHiJWEAxTqgoVWknHDbhmit2tBu4eGcNF11wF++yT0GKLIbcg8iiizKhaSu0KwmMZDR7Om+NR8N59gNCji6iLz2oen8GGEwBCUizYbBJG5I8wExiIpORPsiKlVzNM378Z//mCv8DZGycwWiohomc9ddzZX9alSFYiRBxIByW1aSkrXAkNlOwVKdciAyaooGiLypQ5BWF3AQSWui3Xw73bNmHqlDV43re+pAACOVMEHRJL1XvO6fEu9jq33SiLSoJiaRcFZBI12U4pAMJVZ12A4zbuwbmrTkZMgMBRQhFIooEVg6yJzFIkT9ViYMVFSTcXAKHzEbvDRgED5i7AwRK2ub/d+T3R6ufVZKs6S+GN1NCqz6AaJEhcG/8ztRPHveZlOPP1f43EL8EulTRfQgUGqQ3IKas2VlswpytNLvQBHzJAOEg2eiiJ6kItjYXWob1uh/Kmh+ue6zrZ9n/OO1lZR47Ccs05AsmfJ8q51SAXweSkQizcgRrt3jfvxM/+6W2Yve4neNqqk2E3I8xSktl1kToEtyGsLEApI3nZQmC5iAxb9Dgc8mLiAFbaQtkGJsIW7hkZxUWfvhrlc05Go+pikHoLXI9CfKn7Ae0DhMN1pxz179sHCD26hNwvRGddvAKU8qAABGao3A8kYnM7tBVAoFiSzEGLqIFk6tPrN+F7f/JynLV5AqMcZyMLjeZM2rNe8kWRilVB7WC97na5kdK9VP3TAIF/UeRFrGcpHpMZcDwf927bgsm1a/C8b3wB+QnL1RSDnD4tjtWpF6TAxVziDt9AdkNRUSy+pI/PDds0RR2R4IytGCuIcdVZF+K48Z04b/WpYuIUmJn0d30CAwEIShxJ+S0ogKBaDMzoFudLwBpZ8jl1MjK4I4OYnZjASAxMWTnu9HKc/o7X4/jLnitEOcclCVHDImawPE3yW+gXQDEraWOpe6P7S9c4HnqL4SCI8GBg8UA/O6IBguaWtGPr/JPVXBf5ttbf4N98jnJbKWpSlIzXsgIT5TjHvm99D//9jg9g4L7NOL28DD48EU6KLOp1JHByOkWqiaLA88HZGpFYM2k7XYeXRag6JqaCFu4dHsOF13wSA084BfUKpZY5rdSWTlSXW9BKQZJZnHu4f5SjawX6AKFH12shgGBzEz8AQJBmg2T5fI0q5U+t34jv/vFf4Nztsxj1PTRNcgbYXhBbHuklFwDBMJT4y4G+5gMEzubzf22AwARIJGBN2B4rCNswufZYBRBOXC7aCjQCIoBgh6MNEBY5O3koAIHgTCo3QYSrzroIx43vwPmrT5MKwsIAQfEAFI9g8QECp1EIEkhopZ33pAhyAyvtEu7atwvOb52PM698I7LHnyxEUYvlbCGwKD6JtC4IENgPZ2tFj2E+5FLPQun+HFpqF+Z4GL3tgwIEhf/U18M4xv/X49913AOCG2bqQlpVfQZpJ4ohk5ZqJuCmRTpyETuiCJI5XceGD30CN17xYZzvL8Px/qi0IeoGzddS+FYCk+0kx0LTtjnTAENAa4okpjlUjAGbACHAuqFRnH/1VRg+dy2mS5YIJdGsbA5oVyeoTmix1/D/a+H7v7TYK9AHCIu94vp48wECKQesIEhY1xUERSK0JMsQuqK0GRghFBlw8r6N+OZzXoyL94ZSQaDz4n4AQZMNpffYBwhzKwhsMZBXER4dAEF6yHEiVSSj5GHL7BQGBgawsjKEn25ah5FXvhgX/cs/YdI3UbJs+LaHNEnaY5lsKxAYRAkrCAYc/nsul/LQAsUCAGG/iv8j0AI4YgFC156x0DlKGZ9/KHEuYzN8jnORSReLbp3Ip9RG0BOmZhTCJUjYtB0/ePWbMPuzW/D0JacibrTQNEPYdgqHJEWKOHkOGjRSIxeFOwZVTNMWnDRGzTYwE0W4q1LDhZ+6GqMXnI562QZrSarF0A2o2vMMPdoF+4c90legDxB6dIUOBhAU9UDEXsWHUDYXkdXVZiuWajFM3Hs/vvasS/GUqQxjpRJaFisLdBxUBCSpIPQAILDFQJDTJtktYnbyUCoIoqR4NAEE3hFJhjgKUKpWMM2qECsFcY71ToqV//BXOPWVL8aOPETV8jAgFtUFR4I3Ai+KgUjsjJWIz34l8q5rdcAE/SDBf078OUiEPxT8sGDw7VHR4GDbRHGeneFHRdhVM0iaFNuVqPN75IGQLKrMvvjuNENLYUc59n7pOvzgLR/AaXUbS20fAwMu8ixAUJ+Cn+XSdmhZDjLbVWPJNGIliTFooGaZaMQJfm25eNKnr8GSix+PVs2TEUe20w4EEA5QFOrR7tg/7JGyAn2A0KMrcSCAIGF9HkCQ17Ia2AYISjp54p4NuPYPL8MlEynGfA8BNwpa+Yr8qhpXOywAgSTF7QduMXAqS2LRfhnL4V/shwIQjrYWA1tMYv1NFU0S3KolxIaNLdt2wLz48TjnPZcjP3stJk1g0PFR5gRGQgtAulcycyTR0pAJCE7KEBwVsxTzr8xBA/ihRPfuFkDx5hp8FL/eHZQWwpBHIkDgORXn3X3O879feKwU3F/d1VGTBBwiEk6IIhxTF4H6JkkcwqdZ184Z/OTyd+L+L38bT1x2PFZUSmhN7UXeamC0XEaY5phMUhhuSSaOcpek0xRozqBGfkKc4mbTwZM+/SmMPfFMBIM+POElqepBB/hpYS49r7KIOP7wbwT9IzwiK9AHCI/IMj70NzlUgMCmgeIYKitfoTbS5jXPhINw3fNeigt3Bxh2bAQOPRtyGXM8nACB5Ld7yEE4dS4HgQwsMa3pA4SHfkMcwm8QINCu2bJNTM5Ow6yUYFQGcOuWzRh94R/iSR96K5qDPmaMDCXTRpkz+HEMkyqQFN42TAlGMsVA6WxdbS4Cw8ECcvfpzQkkD9oH2J8rUART/t09SvlQQcI83HEIK/jwX6KeQD063A2C5qAFTibl4qGglBWVtTg5AB45PBRNYgXByGHSolsbO7H9w1FnJzWx8T++hy+++vW4sDqK5XGCfHoaIyUPy8oDaAYRJqIUZqmi3tvJYPFNmzMYtAw0wxh3lmu44Bq2GM5Aq2oLQJC1LlQ6Ze37AOHh3xGP7nfoA4QeXd/9AAL5YzIy16kgqFOzZTMR9UMZ5NdTDGmK6fEt+P4L/xJnbprAmO9LBYFjjqwgHM4Ww4MBBNPunXrvo72CIPJZ9NxII9h+CQ3HwX/v2YVz/+mvcfrfvQKxS6vhDIalnP6sjPJWShpTVZQMpOx1W2pypl1BOIQa80GxwMGqCl29iu7qgY5XcpcX1e/2f3fJWR/oEe1620V7ivcDCAuVXmR0WcmTi6oiNUmyDCXbEYdU6mrIuLHmGonkiQiR5gibTVT9ClqbHsCP33Yldv/oBpxuuRjKc9QsA36L72WhSYVPv4IwI2mROiUhvCxEFTmm601sXroS53zy4xg85xQEVUf4DXQuFUyj9RmUCJrIfrWvwaItZP9AR8UK9AFCjy7TwQACn1eOLqkCsC1jd2Qri4AxpxjIQUhTzNy/BT/401dg7bqdWFopy5gjiVGUB27rIBwGDkIBEKbWHovn/kcxxSASjDLmKC7CysV40b8ezQCBdwMNpvI8QaVaAbsHd+/bi+Cc0/G0K94E60nnKN9KBiib+WFKiquoZHKEgT+joJW0q8hB0C2GBdUC56OBee2B4sIuWE2YXwqYF8kLLDIfk7QP2TZCUmqVRxJAUAFVfS14ZlIeoQhXgtS0RIK8SXGjPEfZdOATIFAdkWJJVLg0qOapQD1/dXrfJMqmDce0seGb38GP3/ovONv2cHytBnO2gdnND8Bzq3AHR2WKQQCCnSFGgIqVwk8TTNXr2LRsFc696hMYPPskhANep4IwZzyzDxAWfYM6yg7YBwg9umDdACGn6I62ZC4qCCQvqS9KqCqhHlEzZmZiZXCSFDPjW/HDF70Sp9z7AJZWKohczuwfvhZDKgHFhK1bDNNrj8UfzQMIIr/DzIhTGT1Y20czQKAaYpiFQmZbMjiCib1T+K+JcTztindh5atfhrjqyZgpjbYSOweH6AgLHFaf2FagcA8rCJTjtkwx72nzRBbKhLsj4LxoeKB2RPtlD1aRWAAldL+nMGi0nLVOc+ee4RHSMN+vcKIBAmW82WLgekf6zKnK6VA2g/wD8kLowigAQVVziIuSMEZeD+CXK9h7629ww+WXw77rHpw2OooapyF2TsMyHDi1EQQxDdZMJFaCzIphGwnsNJQxxw1DS3Dx1Vdj8OyT0RzwUBU9lA6yUcvfBwg92KKOqkP2AUKPLtecCkJmii46S36ieCcVhA5AEDEl9vZ1iyExU5FXZQXh+y/8K5xx/x4BCPSRJw+ASoqPdIuBWwkBAusCjxaAcLRNMSRWjsiIxS64YjjYuXMvbo0beNH3vo7kkvPQdC01U5/QS4NiV51KjkURBJnDVy2GORyEA0X77mdjgYDcHeMP9NL9ChEH6VMcoGih3vqg/Y1FfogXaJm0Kwr6Z2wpUAaZ/yQmELVSzbnQgyXiXyLCSeQRJJFUeNiGsBMDRitCPjGFjZ/8NG76xL9jWZRi7fAyLMs9RI0IjRQI0hyW7yFxUmR2ijSsw9Njjnd4Ffz2Zz+DwSesRd23MOQ4qqKnL1ofICzyPXOUHq4PEHp04boBglGoH4pwiQIIxZgjKwjMLERkUc41FZVDFzmm1pGk+BI8YdsMllUqaJgsKZOI0CWU9Ai1GB4KQGCLga8/0isIRxtAYLmaAklUxHNyA7smpjB1wgo89SvXIDrxGNSRw2NlII6lJWXbSjWRQcHm9APBAUGCDhJFwOru/x8IK8xpF3XX2OdVCrr/2Vbv7iSunSA1D1EcMP7P/8F+KfuRK5TEtg5HGYU2REUuXVnjaKJMlvBa8InOU8RpKOJWDm2Z41wUE63cxN7rf4gb3vgmDOyZwulDS1HeV4dnUGbZQkhZFNeSFkNqJWjNTGK4VkUjy3FjkuIZX/ickBRnPRODlq2exz5A6NGOf3Qetg8QenTd5gMEaTFoaWBR6iNlXURUnA5AEPnWFImZwTeA6XUb8Z3n/wXO3DSJ5dUKmuQmgARFVU58JMccDwkgsBKiWwxHA0A42sYchfRGmWRWlABsnp3CqS95IVa85e8RjQyixcBi0XgrgWNaAgjo2cBSvYxH0kuCvW8dJLpHHKUyPk94uZDWYtuI17X9em1QNd9lQmK3NgIqRK47Qtfq1XJ/FFm2lvotjluoBklroXgui/8+EILo/hCL9Sx3oaBurNR1yioOM4DTyz3mOKMpegWZqTxAKNstT7xMO5CzwGkT8kJM2i7IGrmmicZNt+Hm93wQzdvvxElWCc623Rjxa0CpJAAhohU7bRqtDGF9GkPlCpo58AsDeOr//RSGzjsNrbKLARjSUuoDhMW6SR4dx+kDhB5dR7UpKi8GYRfIcIIUG5VwCh0BpamgNhLlCZQjyROEeYyKAbQ27cCPL3sVTr57G8bKZUSeiZRujqY9ByCQtEbwcTAlRbEvlkMoLwYltcx9h/K+aiQrFRMoA5bn455tWzC9dg3+iFLLJympZWZMdIXk3sff7ZMUH9mbi/cClfNMx8bO+jRum9mFl3/5s8h//6lo8BP9KQAAIABJREFUiO6ELU6dtp1LcGH2GoqDoCmunOQdsGdNzpwIWel7UDpXwm9RrpTi2iADMyko0U0CneqTK6lesRxvR3WlGii3DjkqBCAG7zV1/xTW0fy5AI3CG0Q8SBTQ4d9yv5i28CQKMFIcQ96HJTTlfyTPhXS79B9ObPRCKnhO8aTrH0XlRO5//iNRLR1VQSB1VNmHy/NdZPTK012RFcn31c+suXsC27/6bfz8Xz+KExoZTnMG4MQZGlmKyMgRcL/wLTi+BQQBnCjFTJhg/aqluPjqj8I69RjEgyUMGvb+SoptgKbg2BFC63hkH5r+uz2sFegDhIe1fA//l9XWqDXSZZwxUVbPtFwWF0c6PVrIEyWqEuUp6lkkI0/p1j2443+/EaM33onhkouGxRaDUlJU7n1K1rVtPVxkbgvsBJ2sTjPdtWshAYJLYRc9GiXbt0+AsEkBhGs/j/ykVQogEDxIObWz2yz2pnN4SYosC/Nj9sasSYKtaSNwLdw1sRPmmSfj2f/+r0hPPhbTdNx0XBmpS5HAMy14pi3cFleoriqmJ8Kwz+TnDl03BRWo8MC1o6BPG9yJqRNjmRqxlSBH5+K20VgGW6KeAgnMkhU40PLOQmm1tHE0X6NMouQd0kxEfgh45BWi6sj7VQGE7mxcyX9oTwntJyAAQe5n3XvT4KTzq+o9FsrwD7eJQ4Gd2gC5EE5oR+E50EKfp1p4ZQDGMUhlJW4GCZq/uBXXvvJvcMruFs4oDQNxjCYSZI6BRhIgKVlwfQ9WM0EpNjAdZpg4Zy1O/9DbkZ4whrDqoWZ4cHiNZEOYO1damLj1Qvn04e+g/Xc4nCvQBwiHc3Uf6ntL6iCUJhG0IQs9o487N9VEZPQR5RnqeYRBZoPb92Dd370D/vd+gaGSg6aVwrFdZLGS0m1ndXqXLECAmPbM+1ItCW63ypBIOG10gqA4jwAXRaiCYUsF4e7tGzF18jFqiuGk1cqsSSoIVHXrnd3z4QUIvXVzlPqSZWJXHGGTEeK3X/u/MPbyFwO1MgIDmEwS1GljnbOCYAkfgYJJni4vM9Az8HCNGIRZGTI4K5lybl/+EqzA+43l7jSJkZGNry3CWbkwHQtwFFCK00SEm1R7zJQKRcIxXDGRUjCDx7FyjvAROGjbcYnu6l8JKwpy3/DlGtDq31YupsroSGzJxWNKtSgMAWnqJubEAAOrgAy5Rzv1q4UBwhHgQbBfy0SDBl3BUSZPNEDLkN+3Bdf95Wux9I6NWOvXkMUBMt8W2+hm0kRYojKZDbueYiDzMBWmaD3lCTjpPZcjOW4IQdnGgFGSKhIrfPMBgnrWlcLjAaU1H+pe1n/9o2IF+gDhCLiM3FKVmE2qyrfcTCmLywwrMxXBLFHlVVYVCBCouZ4/MIENl78L8dd+iFHPRl5iKdgR3QSVkRXOgw/+IQ8GECSQ6GqpAggl3L19vAsgrEJMcSROUDyqAUJv3RwFuFk2ttSnMDNcwm996EpULjxbWYNXqzAsBxShkFK/JN1qx2dQ5e4fRgEaYYgkSeD7JVT9kgJ+RAaWyt5phS0MfAm6lozXEiTw91WLgEDAkj56mCRyn0mxnN/XFQa576QtpTJiGeGTKRjVx5DgTqAiEJQtLHXfkJgrcVN+xupCJuTcwqK7uIsJJviZGOxkdFMDBP63kk14sAbXkQcQpN6nNR/k8xIkEZinGcypBu586wew4zNfxVmVURhRAMt3pCwUpCEi30Sc5fBmM/ipi71hCOc5T8Nx7/g7hCsHEFYcVOFLi6Fwke+uLPYrCA++Pz5WX9EHCEfAldfborj0SQOyCyDk3DypXcw9miViZNJ3LDNZ2jODB977cey9+msY5bx7yZGCLdn5xWbTvREc7KM+fICQwUjVuGZ3BeFIbjEcbVMMci0tE7tbdTR8E6f+3m8By0ewN4rgjYxiaOkKAQlWqQLTK8F0PZiDA7AGq7AGPKDiAZ4DuLbqAynTD/k/9TVEdCeTBkEbHAho0IGLkxMi2pxzVJIVAJJUaCtNbkqOjGN39Hgg2Oh0LuS2K6pSvNfZXyfvgBMWvD8oP+wLqNFGBWxV6DaG2CRLBYHVG11N0ImurdgI0uJQ4IAtjUMBCPs1ARZ/F5hXQVgQILDVQBAW5wi/cT2+9b//EWe7A1jmlhBGLRh2jjCPEHl85nMMxh6MGNgRBhh58XOx8vJXoTnmI614KMGVNlPxnAsBel7LcY4V9OKvSP+IR+AK9AFCjy+KypTUhiXZt5RV1Qy1bKoUviGzWQMEbrAECD7V16YbmLj6qxj/4DUYbQWo+I60atXcddFiYClWlWUXai0UH/9QAAIzQBLhFq4g7A8QerG0D6XFcLQBBMm38wQJc2vXwtaJXZgKmqhUamg2WnANG27uoupVUfIqsEpl2MM1mKuXwDhuOeJlQ4iXDCEeqMAdGkJ5YAjlag2V2oC4Q5q1EvKSh1BaW7x6KlAzkyeAYNbu2VT5I/te5enkxPDeIYmR9yj/myBBUVgUCVFQgIxYUhiI3gTKn4DvSUDp5QZKkt0qWACxpe7mQaqKWlFV0Nw6BQ/k3lYtkaIy0Yv77uEes33fyrIpwENgROdO+jDZ67bhk8/8E6ydCXHm0lVoTk/Cck2EZiLVO4qtjZk1hGGEzUkTa171Uix99UvQHPaQ+x48afcoUNCuGGgsVXQdigmHh/tZ+r//6FmBPkDo8bUU4ph0aNkXVjMLAhCkSso5dlXWzVkGFrY37V5zuOwnNluY+NJ38Zt3fgRLpxpYUvIQa5OYNjtLFOlUpkUC2YG+HosA4Wgbc2SZP81iWI6J6kAFm7duhGNYWDo0hqDRlLl5MyXlz0KWmWikKepWjkkrxu6shRlEmMlj1LNMwMGSpasxMrQEY6NjGF02Bmf5GKwlQ8gdB7ljY3DpctSWrQCWDAFjQ5yVVKMpErzoNQBMhy3hPJS9khyfDpEEC3KrpZqYqAErQS/BMAWCOG5ZNAJIhHXYehD+AqsSmvHfZhwqym3X3IUC0gXipRW6cBCOXir+wgAhQ0SAQAXG6QiffeYLMHjHely8Yg3y2Tos30LsctQxRxImGLMHMRMH2GC0cPrr/gbL/uJS8WEwXE/2FlZcZDpFl/Xa3ZjFLvP1eM/tH/7QV6APEA59rQ7LKwuAwCyNJUAlZqKGxNjXTXJOMRQAQfVOuTHbLPUGEfZ+5ye4+U3vxco9U1hd8hGlGbJCqagYNBOAwIoEKxOd0mL3B3qoAOGe7eOYbJMUyUHIQMEnIZAxg+zN5Fk7+1KRppjGV5/UyJkRk41vIs1SydAYi6wgwlVnXYTjxnfg/NWnIU5SBOyHJyl8VnJi1bLhdImaYlDvpRjnrNcszhenJ1g94CJTBCkLQ4wO1JC2ImTa1jmOSVJkgLWQODaaNhBbKeIslukG0zZh0E0wzJE2M5hBDk/sNzNERoLMdxBSYMl1UV6yHO6y5TDXrEDp5GNhDlfhjwxhZOUKuEtGkI8MIbKVwqZtOx0SIUcphWRHkSD6kSoSI9dMCIfS2dDNAF3tV9BV9MZlnXn/dMPZ9q91yUMLM4aVMd1SEzGiecGu+z3aP1qYubg4F/EAR1kIIPB7URzJ+tlBjute/jeIrvsJLhgcQyVOkVlA5AGpBTRmmljiDWMSCdZ7Mc7+59dh+Qufg0jIjI7Yw3Mf0ausnofiH32A0NNrfyQfvA8Qenx1uFeFzKs4Ay0McjXSJWNjloWQ8UDrD4gfnwQpBuNcSrKTv7gDP/+7N2PZxgdwsuvL3LsCCMUcWKYrCAVAUBWF+V+HChBMw4Fhu7hv11bMnLoGz/rSp5CvPRaRxeMoDgJ394JQvtjL+1BaDEcbQNDxULQweAkZ2Eu2hdZsS4KkX63KmGKQJaLSF9sWQpNTJTnltmDRSjjP4WX0BPh/7H0HnGRVmf15+VVVd3Wa7skzMDDAkIQBiSIioLIiLi5mXbOrrgIqCqJggFVQMGJYd10V3TWga0D/uIoRFVERCRKGMCAwuXOll/+/8937ql/3NDCE6ZnR6t9vmKGr6tV79753v3PPd77z2TAjE1aicv8xIgSIEFsGYtNCZjtoxilGgxbGEaPpAKFlwvE9DM1fjKEVu6N/5e4Y3G9PGLstA/qrQFcFKPuAbyNjtYMo8g2paUhTluCqdJnKFRCAqbxX6tBEiGkCDeS0IlaU9SLmzzUGWmnfZtMUaGP+nQe1HYK2ub7jnrjvy/0k2ulB6jTSRDxMzBZwx6f+AzdfdBkOTF0s9soyXyFZBM5PrYkF3fNxX1jHPX0WjvjIBZj/zKchoR6Erb1lk6BQwRQ+6pQtPHGz97d5pA5A2MHzyodVzE4yLuJMJ2RKQc5NlmUjlGc4z7Wy1lzlWhkQqEgevvE2/PjMc7Do9vtwkNuFZhIjZumZ1o7TmIWiMnF1a9fwPzaAwKBjmg4yy8Ga9X9FY7/d8cyvfQHp3ssQESCIk2IHIGy3W0riYIpUOjXSMRFiuYxIqVgM25YWw4F+Dx03I1YMAHCSFG6aSg8PV4tJufUU1YsFxKYoG9qlrJnJJmGx2ACn3JnbjtxvSa0FI0wRppmkL0bsBBuzAFlfFStXH4D9nnIEep5+DIwlCxUj4PlAyVOlknEkIksRR1Kdbzry7wZSjMcxbNNAyXFEbc+qHTF3IiBOqEFQ96xUO1DcKFS5KefGnTTf49gFt8ftNgnb78CzAQTFjgBmmGHk+z/G1W85B/vWUuxRrqKZhlLiSKVH1IjQUxnAmmgca+a7OOFjF2PBU49Gwvm3hL9RyGAaM5Nbp+0IS7PtN46dIz9xI9ABCE/cWD6mI/GZpWgryWJVM87dggAEct/cHajacOZbuZNgjld2GCyJTDOM3HoXrnzbuRj64604yu9Bk7tHi3QvH3oarjxBAIEll5IadmA4Hu5Ytxb1fffAs775JaQraZRE3po2TTNSDHnq+DGNzqP/0N8yg6B8NlMqAkWIaiYM9obo08kKpSnnm0LADDHdLG0yA2SMeE+lwiLYhnLupF8B7ztpGMQgy/STGOkoN02TqIFaAtEKUEALdCUWfNoGNyMpjaSTX8NOULczTCLFZNTESNTABiYY5g2ga2AeFu29Fw446RnoO/RgoLcLVsWFXfKR2TbqjQaizMSEBTQdE1W3DMcg05GibNgiXqRNcRLGMBxbuh+2nRZJRLC4x4CwbAQznmtPpemKXHp+G81IW+xsZEMbIOg8CbVIJFmkpJOI8JY1+NqzX4i9R5pY1TUPzSxCw6W9toG0lcK1unC71cDdu3Xh2R/9CAYOPRgZRZzaxXHqaVJapqlh6QCER7/S/H18ogMQdvA8twGCrmKgtsDQ/eMJENhTPi8L4+JNBblUJJBBsAyM3f1X/PA9F6D841/jGLtbdoxwPRoytgFCnlJQmYXHmGLQCnQCBMv1cPuDa1FbtQInfetypHsuQigAgZa+ZD4U1bsjnNkeDUDY1aoYpKqFgjSpdFH+AWztbEo3UAr1VHssvk72gG3B8x/V/4tgMVFiVwI+HWB1yYEyPJKPqK5CDC6ipqfnhnwWYE9AMdQhk8V5dh3YrMk3DdQnJzE8OoLRoAbHLUsqKnRdoL8PSbWMoFrCokMOwG5HHgpr5QpY5RL8nj40yx5G0gAlz4Er8MUSZiRuBshaCUqVimqdrIOalDRqPYh4K/Ca6e2gAUI73M3U5O7kAEGeTqlk0hVIaYaQlSCGAZdpgi1j+OJBx2DfLU08qW8hmkmISTNBybVgRAaC0MQdXopNq5fi2R+5EJV9VsKU0iMyQMWFTqVkplINHYCwg8PATvv1HYCwg6cmBwiqJ0MmtCrdFMUC1zYlH8wFn3lWMgx0yONCT3MY23EwuW49fvrhjyH7xg9xVOIio4mNZcNObGRGgtRkQFApiscPEHgcC7ZXwpp192J05RKc/O2vIttrCQIGIwlYHYCwvW4p5SVgSKBkCLGlCyjBgmTrlR8BWE6YSddHggn295CQz9coGGR/BepXRASrymr5b2k33o4Y/A4lLCSNH1oGAu7yjQQtSUfwvmSWgDqCFH4GVAwbZdjw6LwZRzDDBGmYIjINjKcJRiMa+nhIh3rRGOjCWLcFf2gQBxx+DBYfcxjc5QsF2LLbFN1CWeoo6ghqcCxH2ANW9PDCpWJBt0mWxwQGwiiBz0A5U6c4iyBxZ9AozoJdiht8+bf00mBDJrBxE+A3Q/znqkOxamMDhw4sQSOJMJYG6Cm5cDMbm0aauLVsIHnWoXjmB86Ft2ypgDlhHFkK2S7y6ACE7fWM/q0dtwMQdvCMil5LabbUQk0KOY5ll8dFMjUtBMoLRgEELvRJIjsm+q8HI2P4/X99GZOf+28cNNqC5bhowQArnwkQEg0QqEN4vACB+e0sMQQg3L3hfmxYPohTv/UVZPuvQGinSPkaz3MXYRB2NZGi9NhIVckqmx6JuDBLpZKA9wlTDBIMDAoDlW8BG/0hTiSI2sxOiKWuMuNK8qoWUvc6YhEysEqGJbHCMhD3MRrblrBT9C8gYOURHMuCz7syiGA0Q/mOsuuhYruIWy0kUYLEsURjIN4cloOamWFT1MSD4Rgov5s/fwmqe++GaP4AehYuxd5PPgzuIfsCfV0qKloWwjRFK2GPCcVosBEVux6qZkiZ5OjCMESp7KkSSYWXplVBTEsn7AQIYSZA4KXMrLJIklTAQYPsjZmhN47xpQOPxor7RnBI/xJhF4ajOvrLPkqmi79uGMdtPTYGX/OPOPLMN8IYnAcjTqVqZ5sAwhynA3fw0tv5+m0YgQ5A2IZB2p5vaQMEnf+1dT8GsbtlisEyEWn/fCrAHQYGLpZhBMf3kQUB7rzyKqy/6DKsuOtBOKUyInZuyxykGiAokWJe1TBtKWpfWv4qd6MzezGwRl1WL2oiogyOX8LaTQ/i/qEenPatLyM7ZBVCm+JKlSul468ysdGHn8Nk70OnGFTUkNfbZY4s/TJgtSL8x0GHY9k963H44ulljh5LTCMVbKVVcrvMcaqxzva8P4rHZkrBSRQTIDtoNu9CigbbCBNMamcBvsbgwnvFSQyYcaIEsJwbbUQs3TmZruA1ye5cWSNLIyZJZejeCBwvcVAEzDgVgCrlchQZkongvRVHIqyV4lzLhOX6gGMLgJ0MW5gIG+KT4MOW/g1MF5QrXdKhcWTTJmxojGPcSNDdvxA9u69AbY8FqB64EnscdzQqe+0hpZeJnCetongNyt5ZwAG9FmIDQStApaukvBr0HBXHbqsSx9keg4fd1j+xs7ytAIHP/ngUwbANDMYpvn7k07Ho1gdwUHUREtvE5mAS/SUPFcfHvevHcNfCKla+501Y9eLnIS75sEXEQKCly3PlMmZhEHbAs/rEjmjnaNtjBDoAYXuM6qM4Zg4QaFwr+WTqC6JY+d/bFlLHQkRBosH8r6UofAnYzPOLGAH1m2/DnWe/Dz3XXI9K7wBi00WWUu7IcrdENcNh7pjiNQKRvB5adAJqZZDucbJuqJ2jBEKtlPfZrlZ2lobsWpxyCes2bcIDfV046pMXoP/kExA6Kg/OIJSxooE56plF6Y9iXB7zW6etvFM+CLw+oczldVU+Jg2wWcMfxPj3Jx2B5fdswJMX7SmmVBGDbxzLTtWJ1EFF+Eew9hBeEo/5nLfxgxLgdeMsmSOTLIASGop3gHg9qHuIWgKmF3hPieJffDCUhwavJp9fkavlU687dqr8tKLxCQDEHZEpLspbBBQoxiFKIsRMWdjsJujI2IRxJKW2rKQg6LB8F165JIAimGzCERbDgO94yiGU88DmT5aBTWPj2BK0MIIQjbKDrhVLsfjQg1Hdd0+seMkLYHWXRNzIc4tC1fWUdtJS4cBeBG3/BCXC43UKgMnvwxwl6HtEFwhN+QHowDmFmnM0qH4zZzFUfxG7brYyoKaf//lJhj+//I1ofu/nOLAyhNg1MJw0pPV7t+fjwbEa1u45hKMv+zDKhx+ExLZhE9yy7DmXGRTAevt65uzCtvFG77xtpxmBDkDYwVPBZ1O6NqYKIEjX5DgRn3oif5a0cRGWWmbunEScpjo7yn9IFz+4Abe99d1wrvolevrmo87cNMvJxDefdrZ5C12GRAaEYiOnHBCoKEHwIQFDBwueDwECgwJ3m6yrt3wfGzZsxoa+Mg79yHkYev7JCF1bgpIqZkiE6uX5zvlPESCIMp/mUCrTLq1uNQhKZdGlf7UFO0jw7wcfgWX3rMPhS/YCAga4WFwpHduGGSQSECnqmwIIc7+qqgoDZXaVB3mOb96Nj1l7FcxVPODfct6iGVBMFEFO3rqbYFM6JObphULwaB9Hv8b3WXIvKV2DsDCW8vDgParqW1lcQ1Mm1alRzI3Yq8FhDoQMRIa0GaqKCsuGxddgwNEpqQa7FDJXbpkYadSxYWIcoyylLFnY/+RnobrfXtj7+ONgrdobcNhTwpTvH47ZQyLBUKmqDMR0CoTnowv8pnyb9TVK+kQ3IJOxEn4p74WiPqncmqZEDXM24/qLyAI1WE4q7qgZFsQG7nzDWZj41o+xj9eH0EwwbrRQMSFdO+8fn8Cmg1biuC9+AuGey5Gww2OUwDHt9vwUMXs7ozBnFzbnq0HnCx/nCHQAwuMcwMf7ccUg0DaWrn5qgSf1KoGNCydTDNqCVl6XRZ8sANe8FFkUw6xHuOXMc2Fd8UPMG1iIWszgxxpylrUBdmLCTqbocVm8dUWDKoUs9GnIg4XeMRGMlGPVBjh0DNlZ05lt8/rN2NRfwaEffg8Gnn8ymg5L7fhd/E8qOgSdJX68Q/ToP99e8JQjpSJUZwcI7FhoBQkuO/hwLLnrQTxt2f5IGy00oxCZ68J0HJVjJ1nTtvKdRlM8+vN7PJ/Q90LudZW7DQte1AAh3+ELPBNgR4DA1srqGnJAQQAhYFNfTv63YiKm75rzU1ZFjwpoko0gSKA2IZbKG+UG6rAnhGkLQBQho+Ij4DiugF/e3wYdEylwYOfRRLWdLvk2TNuQcafmoBlECA2gYQJ3jK2D0dWDFYc/GYufeiTsw56EysplsOdVMepa2DI5if5yN6pkJnR3SWoWQvEWhphDUY6DmM+VgcQzJPDGGfUZZB9UiW7RcXCH9T7W/kVJzGZMKVray6A3TLH29HOx+Rs/wh5mNxIzRtNO0EXTLMfGbZs3YfzYQ3Hi5Z9BMK9HKqDIILAlt3Jgm25F3QEIj+dB/Pv4bAcg7OB5lp2gPgeJP9N2wHqnqIO1CgL6PbI7phYhhh1b+MvZH0Dwxa9j4cB8ca4L4gCmwTw0a+VtWLFqr5uxbFIEaErBLjBDqGe9XOjIo/CDIZRwOVK19S0HiBxDdoUj64YxPK8bB3/oXaie9mxM0qTGsOCTrSBAEMp7BzAI+XzK5ajgpCR5pqRa2mkUaY/JFIMpDMFnDz8G/X+5CycuOQBGPUA9DsXgh2AoCyMF3HTF2Oyhc25uJM5b+xYpajsKTIDcJ/mb5LzpjqiaJU0DFDnboCUm+YHzzyvmRaGMaY2+xPJZWSIzNSDNnKQMUvl0WAzGwoZNmfNIsNVaGhWoFCgmY6WASgaHmggyN2TOxIPBktJNgg+yVuz7sL5Zx4YsRLp0PlaeeAwGTnwaFj5pX2D+IJI0brMWhu1I1QOv2UpNuJxuggOaSFkmYt/CRBohjCmuzFBxXDFoIqtCdmMqms6hgCa/hTRASGMlCqVPBVNhfivG2refjwe+eiV2yypwPVYsRSiz+slzcf3mB5E990Q8/fMfldJRClcFIJgWDLI8swAEPRVbvTY3d3PnW3b2EegAhJ1ghrbqTl+g/FQIn225Yoe9BGmSwo5s3HfJZ/DXj34G82wfPV3daIUtIIsEIPipAys2kbIXAd32dNgUPz66MnLBN3UQYI8BLTDkwioMggCEFDUnRUStgW1hYv0IxgeqOPDf3onK80/GuMO6eJa6mbBNiv+U4c7MRWnOhrsAEMSZlyI9nk9O0wvnTS7FhBmm+MZzToP1qz/gaYMr4TRjBFmCyLMRM1WTxCrvLlmdPGA8dF+L7XmNbZHkDDA5sw/XbH25yB7I5WsNhTAFmpGayYkoSSfLHPmvqbRGMVzKuRAkiLOh0iiIYx9LMSXwE5bpT9BwSdowqmAn96Au7aXngS29GhIpzww55HIcpWshy9BVqqDRaKERhUgqZQwbCda2JjDa6+LwU/8Ruz3jePTtuRzpUD8Sh6kUC80wRtn24ZLLiJXuhKXD/BPZGZoMvrSfRgZfGAR9DbpPxI5mEKiFESAm+Q8TbiPG2ne8D2u//F0sN7rQVXIBK4abxqinEW5J6lh++muxzzlnoGWrElUrTuFRNaxTQDNTDB2AsD2f1l3/2B2AsMvOoeqUx52bFVtofe/HuOas8+BuGMY+S5YgCkPESSANez04sBNLysq4q1DmMkqfYLBe3khVXbtEFS7Uegeod16liKmFBDU7QeiasG0btfUjGOvtwoEXvgOVFz8XEx5b9FookUqme+NOChAo7ZC2ycySa9bEDDL8+l/PxPi3f4xD/SH4IdV4NhoWW2unMoZ5rp7XpSo+VGrmYRpkbpc7q7gpL353OyUwY8Ob08jqnAud/AraAgUBpr+mFCy55kK9Of8OKbdkVQfBpTb3kaIH1XBU9CfipaQ1DrxPTTICUl6grH9j0SmwLFPpXng8lmxSzyDOjtTW6BSIzS6RtIemAyRFd56LwLGwrjmOLUaICcuEvWQennTc07HiH06Avd+eSAa6MRGG8J0S7NiAyeZGkmtgnwhV/SHsgmGqtAjhEG2N5QZR7aZzgDAbeNouk5sfNE/vpJkIlMnekU3xmykePOcC3Pml72CZ0YVqyYVpRrCzBGtHN+OB+VUc/4kPwTvp6QjIOpCBiVN5XtuYp3DixY3Hdr2ezsF32RHoAIRdduq41iZ6p2bBuOVOfO81b0b655vxtN1WIQlaaMVNxGYCz3BhpaoFMFMMBAO5Z5nlAAAgAElEQVQi2+PCLQtiKr0UuGDKnk8DBDu1hJr1I+awU9TdFAE3I+wS+OAWjHaXccAF70DlZc/DpM8dC+viTbhZIi6PSug1twPcXvQegkHYGiAwxZDitvMuwP1f+hb2iSqoEBh1lVCjMVDGJkPagljrQkmlF8sd5/YKt/62djpBB/liQMu1CsVP5YG+LU4kQChkgwQA6JRK8fPy+wJQIAhgmM87JCl2RcEvimxZpSAdLwUA6EZLTEUQBMgY6jQFtQgioLRUnwmxEaeeQaW4WNpJK+HeShWe6aJWr2O8UUfmuyjP78PGxjjYXbQyMB/BUD8OfPGp2POVL0I60C1ujnILshKF97etejcQDNM3gs6kyl8ihUFtBEGEnav+VVpu2tjNxWTnACGDiGXJZpmGja4gw5ZzL8JtX7wCS4wKej0HphHDMjP8acN92LxqGU77ny8gWbVSDKpMNt2KE7jUB+XiTF21JPNSYCbn4rI637HrjUAHIOwMc7YtT2pbUTR9CyDFelSFTwb4f689HdH3r8ZRA4tRhoVG1kLDoucyDXNUlQFMG6EoHEmnUpXORTFFQmteCtiUykGVt6WWLNAlDRAajvLe930fk/dvxHiljKVvfx0WveU1CiCYFipkEGh/J4Y1c69BmA0gSCCTnLgivFlCKgCGKQamHVoJ7vvQJbjjM1/B0kkDg14X3EoJDTNBiERVA+QRjsGOlR5SUqdp8zm8h4oBOv/aafqAWc5lJkgoAoScVcjfU2QJ8mqW/JBFgDCtNHIWEDjzvTwGgVWu5eCcKEMmdXSeB11DlQeHsnWmLkF6TSQmvIQm3w6c1ECYJhI0YwZ7tjOuemjFEe6/fx2aMDFqG5j/1MNw9EXvhb1iIVDKWTMDFqsveHtKGkMDHt6qSYo4jKQ816I9tPhJq/Oa8xZQ+iYmgGnyWg0mXEz0hgY2nPU+rP2fK7HU6kYPjcuyEJZn4lfr1iA9/hic/N//ibivisSyhLXJQaAUNT3Ez7YsP3N4i3e+aicagQ5A2BkmY1ue0NkAQpop8xgups0If/7wJ3H/pZ/HalQwVK6iloUYd1irHsOzbDgRqxcshJYl9LgtpZUs4WOOmakGLs5iwqtAApsvpSxzZGoiQ9PJUDMjlMplhBtG8CAyDL3pZdjn3DMx6dPUSQEEK2cQ5FhzSyK0v6/AIMwECEmcwKKqWzUVgNFKcM/7P4RbP3M59gh9zC9XYXi2dNmkSp/Kd8FUOnpKKajkyOf+5imyBfz2RwIH+RnOTIcU2YMiEJiZMnkoBqEIEIrnMZNlmD5C+Z2lUhriydDWQ6i0BEsy6fCoAAXaDEI5tZHUmmLfXPJ9eNWKGAVNJi1saYwBto2hgSGMDY+h3gpQL7m4PZrEU9/5Rix/1fNh9FWU+DGz4FHAyDbXbIUtjpQKNNKTwaZnAP/MBhC25Tl9Im4J/T1siNVIE7RE02OhL8hw1+vPxMj3f4Hd/X6UaFZlJGimAa4d24DFZ7wKqz/wbqQVuqhawtzw/mCzJlXGOfvPXF3WEzE0nWPM7Qh0AMLcjvejf0KLfPHMJ5w17jwic6lhgsYvf4dfvfpM7LW5hYWlXkS+gVEvRiNooMvxpBNfzB2YTZdFLsCJtAAmi8AFUQIpW+gK/WjA0AyCJwAhFYBQN2P4NL4ZruHuRh09r3kBVn/w3cIgJJaNEo2FNBXf3pXuiDHeBoBAHwRWXhAg3P3eD+Kmj/8n9nX6saS7H60kRD0N4ZRpGxwqU58pAYKipR9FgH6ihiDfgc/Mi8+WSpBbo/DG/JyL5zIz0LdfyysbtvHEZwKXad/R1jdMncwUY6HMtfIiGpZiRnSF1BUXikkA4ok6evwyqqWSMGaNRhOtOEFkG3CqZbTSSHLtfC/ns16rYzSLca+fYt+Xn4plLzkF5QNXocV+D4YtQEB6WUkvC90kSdqZ65u3XVtUuJK5Et3mACFO0cwy1BGLZ8RAkOFXJz0P7u9vxT69S2C3QgE5W1o13FUxcNhlF6L6nGciEQZEsWXSgVW6sGqAMAti7wCEbbzJ/w7f1gEIO8OkP9wT+jAAgS8xlyt9Gqgn2DiKq5/9Eiy89UEs83qRliyM+SmacQsVx0YpzBDFGULXUQtHlgpAIJMgDo6036XCXFr8ij2fZhBUO+CmnaLlZHAcG+ZIA/dGLVT++XlYfdF5qPvUNtjw6ZPPNVYr5jV+mftRfhiAICkG2b1SpMleAgnWnHchbv7kf+Hg0nzMr1TRCJpoIIJb8RE1WkJNK/Mp3RhDokoeTObu8iTgz+gz8FDgYDaAIDvzvLR2luMIACkEk5niRn4+BxX58dtpjyKAlYoG9ZMLIHMGJtc3iMMnKxjEIVIdlz4b9G1Q6QcyUEorw0oHNpqiMZj6GjIOBiKW6NoGSpUy6uMTyKIItMeulrulmdlN96/F+oqNwROfgj1efCoGnnYUkq6yODKycoFskrg0aBGlZMXa1zHVDVNdyRylzPQzT0FmgBT1NJbS4oEoxbcPOhyL/roF+/WvgBHEoh25d2IEk3stwTFX/DuyPZYi1K6hTBNyHHnfCu5pl0hPv187AGHunt9d7Zs6AGFnmLHHCBBUuSJ995UozA9T/Pa0VyP98a+xun8F6nELkx5ryOlmE8KPuPZZCGy2kVZCRZf6BV2SJu5yXKAN0rxKZCgphkiBh8DJELnagne0ifVGAutFJ2P1xeej4duIDUs30lEAYYeCA/nygg+CCC9N2U0lTBnQqEf7IBhBihvOOhf3/dcVOKg0H1UwZ50idChqM5GEoVC8yj66UHe6M9w7xQ3uI6Q82vqCAvNR/B1vphwQzDxUWytQsGWWkKnv3Tzo56eTV30UKyQUQNDhXfs2sCOlQ00A2TBtGy0dK8W3QdkyEWKwMVQcBYiTGJZtw6GTomEiShNxIqXRUtl0EAWB1PyXu7qRtgKEtSYmkeG+LMLEigXY+xUvxN4vPgXGvF4R/rXY50BMnHg86kq0S6lcl1Zr6osqFG1u35nPGYQoRSsli5DAdm30tEJ8Y+8DsddwgJUDuyMLErQM4OaRdbCPWo1jv/dlxFUPkfhLKEfW2GJzNVf6cnQAwvadtr/Fo3cAws40qzN544eKsHqdJUDggktr28kkRk9mYOP5l+Ivl34Oh/XthjAKMG4FqPR1oTk5gXLmwNIiRfHvp4NckkqlghIrqt0bFdBS0cASMFYx0EnRyKQhU0yjJGQo1RLcFzXQeu7xOPqyi9EoKYBAVTjryi2WWe2IsZ3GuEw5KVKkWAQI4uTHanuWggUprj39LGz4nytxsD+ISpjB9GwxhQqZi2a/AU3ZTmtCJdc326Rtvwsvagm2KrGcwQjI2elJKL63yDjkIXu29EPxKopXKf/Wx51KLah3qP+qF3PviCkGQcdcfV4MYgIQxFhJMQ2xpY27pJnUVKnllGYi93HU38Z7lfcbxbSsN6GI1DJRC1soeb42SDIQZAbuCCawrsfDk974Euz3ltciLZdEBEgND0GHlDxS/d++Al5NIS2iGYTtfl+3UwyZOErSqdJyLHQ1WvjfvQ7EqrEYS3uWIk4MbImauCucxPIXnYJ9Lvs3adzF5IITZyK6ZKdPt+RLk62tAIKe/K18WLbf7ds58i42Ah2AsDNN2KMGCEpkFyQJRuIA82wPzo+uwU/f+E4sHk8wWK6gljTgd5dRm5xEr1dGGrGuWlO47KtApTgb3bDUjHbKtOSVroX8Q/dBoMTu08jQshJEViamNv2JgxtHNmDsmUfg2V/+LBpdPmLuxECQsLMBBNUXQEyRuEvVDALL6QxaAgcJrj3zbKz77+9gtTuIPiZJHBO1hHbLrJIXpYcy/VG2jErcJlUM6rW5+GkHdr37nsboa7Ffkf6fKTDMz/HhSh+39TraYsTCB6RsUQOEIuCQMFvogln8DppxMfgzeNGnI2M1TS6YFRCnm00R4Ol2z+pu1KkGaVltIGH780xakiFKEtglH60wEGahapVhtlIkvoc1rTHcZjaw+k2vwEHnvg2Ja6GVpZLasCxH0hPSuVInMaaPx2MX3U5xJ9swwnodSJNMGl+xNNOk0LgR4Lt7Hoh9JhLM716A1PJwd30CEwv7cey5Z8B66XNQNxP4piNdHDkmLdqt+x7c2VIMM9JV2x34bMOld96yc41AByDsXPPxqM5GqfOpG8gwErTQZ3vwJxP89l/egg1X/ghPHloCNANpr0tlthXTd161puGuKzJIQdIkBuhpKYAgrYN1eiHRZYoUKZKuD4xYyv64CC90u3DD6HrcuXp3vOIHV6DpewgzljhSJa7EXjt2wZkqU+MOkT9Sqsi8bMJeEcoBkJwyBZ43vfsDuO2yL2O1O4Cl3b1iUDPWagGuBdtV7Y2lR4au8JAMuO6dUQy8RYw3mz/B1I6+bUX0CHM+dUSp3WdayFDOgGyYpOaf02tKF0rpzsnfcwdOrYXBGniWwhLIZLJTpshPlW1qF0RdJF8sfyxqD6bYBxUgiwBDXePUWE9VJUxdliQJVGHMVsZSOXBQLAPPW+lh8p+ZLEmud8gbUrV7icxgS/JzpFujw9RSmMK1XMS2LTn76xtb8M9fvgz+c09EVHYxkoYITBODThlugQcRUNg+mD6rXIqQn2ehVFPuM/5Hgm8+LhpY0CSq4MTZvkjtMDl1b6nPp3EqfVg4t3YaA3+4CVc++8XYox5hcd8QAsfD70bWY+CUZ+Loz30UaZeLJlL4rMKgoZRtYCxuwndLoBvErAxC+4Qf1dLTefPfyQh0AMIuPNE5qctgP5kkKInbWoZbPvxxXHvxpTh2cAn6YtaNEwzQZz6DD1u86akWb1kZ6hQdZhnmNZQvQl0DBO7KIlP5s3p8MwGFlYj1KxfwIbuMP4+twxoBCN8SgBDTmtlQAEHizw4d24cACNypxmQ4TDHKkQqQKMaaCy7BDZd8Fgc7fVhaZRVDhFoYSpMbx/eQJRRiqC2XqkpniRkrPfQszELvP1qAoISiMwetQHHntL5W/ZNK5zXEGqyIDkAHG1IlyrmQLIemPSRCUIShjklhHt9fTBnk2gGJcfqapq7joQCCdGuYls7IL6PNHuhAVAQheaUC8Wf+bzkvzShIY7IZwyHKGIoai50otaNjJN02pzpU8r3ScpojkQBl14djuxiv1bC2MYaNi3px7Llnouc5JyLs78IkcWCzhYFKVSSQ2nR8ehapnZOZkV0qzP8UQFApCgWpZ0ocZwog80g9hTY4N7SsliqEKET9e1fh1294N/YKgKGeKkZN4Fdjm7DXW16DQ997NlKXaT72nNAlm66D0bABzy/Bo56oIFKUy5jJWO7YB3aHrhadL599BDoAYRe+M9RapTztmywHo197mGH4yh/hite9GUd7vVhmeAIOamkEj2VgYYpyYqNlGZhwM9RdAoMM8+uptHUOLf4x1B82ecmmUgyRyV2JBSNK0ZdZuLW2BXcdthIv+t7X0CwRIBjSWtaV5jKFXeAOGeNHBghkEsQYJ4qx7pOfx28/cCkOyLqwpNqHZhyhlSaSB/dmAAQyLPSOIECQgDxjV/1Qu9/i+4qBsv3+Qswp0vL561Slc5GnDTFZIbEO1v0hVFGFAjxkFUzm08kAUfjP8K23jwyY7Z2kZlUEJBTmS44qplKqodfDeSNsBWcewn46ByGzAQSeW7GRVF72mGsY8s/k55hbOOdghmCBACNgV2mpziGAUEBWmkjRoZHWzpJGYzWKBbgu7hxej2yfFTjonWei56RjMWJH0gGxp1SBO40dUABL+kPoHqXt4Xo4FkEPzoy36N/OAhDkAqdHaTpOyxyELdxyyaew4WNfxqrQQNX1cH8W4Xo7xrEfeS+WvfQ0qV4gq2RGqk+L6doYDeso+WUBCOKFUEgrtOe1iOY6IGGHrFY765d2AMLOOjPbcF45QODONpLGOoCbAtGda/GzN70dlRvW4AC3ijCL0bQyuJYjhkrl2EbTMTBWMlHTAGGomaErzCS4sGtjwzakHp2LSCVinEkQmixxdISSp6sb87l3HbYnnvfty9GqVhBRcGYqBqH4s2PWnFkAgjY3Ypc806KjHrfigB3FqF9+Ba4+90Ls3bCwuLsPzSRCRPtfI4XLjo6keIVxyCVsebnddMp92oUXvARmjoHaW2onPx1B8qSDxOcC6JC4oXfVeTAUjQjpZw0E2IhI1bybYvjDebOkjC+VgCjMBIEAXxOXS/Y7YApCKQHzlIIwJEI8UDjIIJvzVFsDvqnP6E22vsitdqY58CmAh5wtyZmDnK3gIYoAId9XT2MiCmFUrjNVrczJIPCH4EC1sZ7qVErmSwBhCniujy6/hPGxMdwaT6DrhKfhwHedAXf/FQgdG7btKIDAP0KfsCSARmJKnTC92DFv86m+u53O2kq8qkFzDuT0oE+T8hZSGbRc4LH4PEoTrFYL33n1G1G56loc6lRhBAFuT5toHL4/jvrohSg9aV8RYhIQcg1IjQSZa2KsVUe5RAaB+oziPBcYhA5A2IbV9u/zLR2AsAvPex5guNaQimRIlF3CZANrP/WfuPniy3BM93wEUQtmVwlJKxDBodPK0HItjJdMNFi2iBS9QYbuyIBFExrHkFQDNQjKSZHljwlCtpW3bNjNGP2xiXvCGv6yagj/9PUvoLVsEWL6Jlg2vLxznB7bnQYgaHEhy0KZYki4E2fqJUqQfe9H+L93vBfLNrewqFJFwP24bSNkiRk5Xmnkw401aXlVhS/BiyzCI1ygCPbyPgY67uS9HKYBqULbZR6S78nLB+VvYYtUMySmldirQAABy9lYhWJbAhhoG8ygQm66lcSw6XsR83dK8Megx/REkEaq3bXQ9ro5Nzt+6nJXBlhqGnh9eSdIdR1qdy7nqHe8DyWIzK9vNgZBjltsQa2PmQOEnKrPjz0NTBSCGlNmLIuk7kLcFxMlvOW5JjbQMmIBD7xCOzVQMmz4ho00CHF/0sJNRoB9Xv8y7PevrwGG+mC4royfQAMeU5p1ycC3+05MzRvvg+k7/62Y+5m/0KgnxyAyJQXQoyEJ4ixDzF4KbLveCnHZ056BZbfcg+MHliOqN/G7aAzL3/hy7P2uM5D09dAUXOaYz7CknTwL481J6YTpsUy3wFC10yA5AstRafH/d+G1sXPqT8wIdADCEzOOO/woccglAbKolNMU66+8Gj9/4ztwSOqi7FrwuyqIJhqosKltK0LkWmi6FgIJ5vRD4OcMuDHQcgxhELjYcjfiJKmUS9EkiaWCbDs7mNhS5njj8i7801c/h9b+ewtAcJliIA8+5ybLM6dgFgYh70LIvK4wCKqJEFMMuPqXuPqs8zG0dgQLS91ivkMamr7/FiONDjgi+JTcPoV+6juLpYcPdSMIHa4pXtno6cA4DVzoXhF5fl0dfErcp0SKjFFkelK4bLylQY7pOgjiCFaSia8AhWoMqLU4hOm7CIIQXaYDL2NHxAiGa0sJpxKkql07v5eAkOyBBH4timRwpZhVmRap90h/Cn3tSmCojlNMBxSZhNkAguy4NfgQhqRQnZGnEfL3tN9bGLepYypQIyGcDEGi7lmekaTM7AyRmSGJElH3V9jdlOka30XDtfDH4fsxOtCNk845CwMvOgWgkZJpS3khO5l4ug20tC8v+ECoSgoV/aWnh/qX/DfXkrQ1HQIwVLvrXKBDkJd7mTChIwySnm8eOUxTxFGICiuD1o/gY0cfh1UbxnDMvGVoBiGutVrY/4NnY/eXnoY6jZ5MFy49TuJYAILj2ajVJtFVrshzmRfhtOGMBi5y/3YAwg5fw3fGE+gAhJ1xVh7lOfE5Z80zKeUgpVjRRP0vd+GGd74P1nU3YWlPFUYWww4yWJEsXyz8RmqZCLlL0WVlbmailBqiTwhsQ5gDL2Zgo3gxQ42CRnZrrEUYjGysS1q4ZbcqTrn8MwgO3FuVORo2HIuBN98XPcqLecLe/vAAQTEIaoW04hj4xW/w87Pei97b12N+qQJ4DgzPRcS+DRogyAKue1XkDEIRIOQswWz9EfIdNwOY0OGkkKU51tTWkUGGx7BzxqGw88xBBe2eJRTFsSzqzTBAuacb5Wo31m9YD4Qs9zNR8X25NvoBGCUXrShEr11CNxw0JmuwSq6Y6OQCQfEkICBMNEjgrBsUpmZo2RAgSaOjdgDWQkn5fAEgSEMwHcS3FSC0tQUadPC6coCQpx7yv2emJNTtotJrAhD0NeQAgeAmNNlGmkHcEF8PK0zRbDThVEpwe7sxHDRwz5Yt8PffE4ed8xZU/uHpSGwHE2AbdAIKU/spMAibMFzFVih5p5ok8jBym+j5zaeuDXrE8ZR+GtIcQc6XaQ+aPOUBWq6ZY8CKFMOSNJeZpKhmFvDz6/DZF7wUxxjd2Ks6gAcnx3HH8h4c/IkLsOCowxFbDpgFU6xRAtqIe9wETEyiQoBgs1ZpCrjIPVQACArkbCWBeMKexs6Bds0R6ACEXXPe1Fnr9KdU4scxUqqXHQcel+yRSdz80U/jtk9+HoctXIrm8DDmV/qQRJE0XiIVabKNLuvGTSXwIpngpiYCLl6G0h74iaLQJ90EEx5L7Gx0tTL0twz8tT6O+/ZdiBP+/VLEq/dFQk+BXOEv0XTH2SmqvfYULU8qXVgA3ZI4999nIxsjioCf/go/OONcLH9wEgtKFaSOpQJoksAzbdXBUWr1udCT2lfsgxwnbzg0oz9DXtJGEeDDAwS1p1P59CmFfjH4SUkrd/JpjCQKsXD+Atx37z2YN28eLNfDZL0u/Qm6u7vRPzCAzRs2Ig5bGOjuQULDJzNDMDyGPruMNI5RazTQ1deLZhIj1WyDeF4kqYBCsgQUaBIcMN3E+yOhBkUbZxFI8JoIEHLNQr5bzlMHs4kbiyLFPEZJcJ+hTyjgpvxWnxbgZqY08u/kJBEktBkOExKEKdRk+2NeY8WvYGJiQnprlColNBs1TIxPoNVfxcJXnIrF556JpOJjnG2nDRMVy0HWCKQjqqAyT5VjEgRP7b6VCJBQgT4MdDalONI2TbChapYQ0LE0lWkK9jZhB+oUoWaDeCPZBkWo6nmjP0eQRMiiEF2Jg+HP/w9uu+SzmL95HIvmDeJPw+sw8IYX44DzTgf6BhCnSmPAZ7lBOWWWwuOyEAQCDjz2oMjZrnzN6wCEXXn1n5Nz7wCEORnm7fQlBYDAvHNGpbaluilarQj3fO27+P35H8LyKMMiz5Nujg5L47JYhF2Su4UyRmrZKni6bOYkWicDXSFQ1gBh3Esx5qXyme7QwLzQwH2TE7h3936c8JmLgKcehlT72bNlgTAIOxNAkN4S0wGCBCEpC4uQ/N/P8L9vORurtkSSYmhkETLbEpghNeQsF9Q7ZQn4OdWfL+jThH5qvkWfIKuyrnDXzEA7xdDuV6EAgqjv8xLGtlBRWQ4zOJPpYVCzKJ5stTCvfwDN0TFkUQLLdGGWS6hZGSbsGGsfvB+wEuzVsxRWEgoIYgvwsu1IW256JJAdsT0PUUYKXsU+P05RihRNz91601EAgcJV7prZ/pvW248JIBQ2qDNLQIusy2wix1yLMfNJyoGX0gtMCUbl+KIjUF4X8r9SNpiiUu5GEARimFUqObDSGK2xCawL6nCeeTQO+vRHkC4eQtOiXwhALsaJDRgxJ8iQDp8cC8OccuqU6ghx6zTkOxKWSfJZ1GZjRiwQTzQfOUAgsGIaQ+ygyByJvERXxtBGOqEwNoK3ZQI3nH0xwu9cjZVuGWNJEzegjlUXnI39/+VlyGwXScKqFdWbokmNCd1OmWIJAjjs5KoZhGlFEh2AsJ0W5r+dw3YAwi49l7IvUhQvd7gpc5oJtyvwTRu162/B78+/CJO/vg5HLtkNzbFJcYpjF0e1gNIPQTEI3NEwD8rcrOxqAHQHJko5QPBTjHrcMmaoxhYGQwN/nRjHXQu7cMzHPoDqKScI0OBKbNsMn0xm7xwMgooRquZftfdVzoqSBJFtV4TmVVfjm294Gw6pWVja1YuR1qSI1aSsM4zh8PPyR0m9yCjwn9L5siCYa/9zNuGiAITcd0AlfnNWN09PqNp/BRhELCiCQdVEi3S3NN6htmBsDIMDQ7BH6hLsu7xu1DwbN4xvwN1WDQc/9Rj0LtsNrVvvxOY/XI/FsYXF/YOiXRgNm9LIiPa7Yv5ksqxVBViyB0wt+fRK4L1gKZBAJoH3hJPxPdSs5AxCXvWgKOqpKospPcJs/g4P5xEx2yM5EzTk46WYBhXp2umIgnCSwZqdEIX+584+TVEuV6SioVaroavio1L2gFaAtaPDuLuvhCPOfRsWvPqliBxLPEToQshmUVkrhunYSJ3cbIFjQkGgOguCAzJzAtQlT0LGX/2O7JUYWelmD3KuqgpVf1oLjDXrxUviXBlphOaNt+JHr3wrdl+zBauG5uPG0fUIDt8fB73/7ageebC0rqa/Az/DcwnIEMKAawBhFCphsTY9eyiA0NYg7BhF8S69Cv8tn3wHIOzSs6sBQkbjNNY+k8rmIhjBc1zYw5O49d+/jBs+/hkc0b8ATiuG3YpkR8Qf2ipTb8Ag5BAcaHo70HnlSmhKioFrxiQZBD9DRoCQ2pgXmlhfr+GOeT5WX3g2hl50irAXImSTPgw7VoNQTDHkACGfamUgpIMzL46eBz/5Ob76mjfj0EkLe/QNYnN9TMR9rusjqTdlgSU9nGoQpFTtzB+rfPK0n4J2IF+Q1YZWgQMdO9qVDe26fn0QtRvOAYIhKSHuCfk3gxx3pV2uj7FNm9Gd+Zg3bz42Nxr4S3MUw0t6sYINtJ7zTFgL5qN142246/NfhXXjGvGu4OdHmnVJdvf4JQ0QdAqBuszEkODvsdJDlw8SJOQAQoSriSojVLv66QCBr+eBOg/quXo+Hyf+ne/wc6FjPmT5XVPUZjzUI9oGDarEQ8GqNtOjzkN6NYpvBZ8NNVEMpnEco1Gvwy+58EsODPYzyTL8YcsG4Ogn4/bhwdgAACAASURBVLRvfwVxxUPIXb1pCItkhKR3TEn1qEyVcjFlUJaOkLnIU4AoAYBqNiUsgphYzcj75+ZKeYoqL0PMUlUpQ7IhCrHpJ7/ENW8+F4fUHGm69IdoC/Y88/XY//TXIeypCIqkCJHPv2g0+PxR8ElviCSS1tbUDm2lMcgHvQMKdukosD1PvgMQtufobudjK+NdpgyAFncoRgpPDGFiocdLSYYNXFzefQEG79+CPXoG4Uw2pVqB+eW6Y6Am1DHQTVo5ZehMpUMcd6x+pBgErh91J8UkAUICVDMH/aGFkSjAbVUbK9/xL1j66hcg9dimSQEEvafaziPw0IefDSAUGQQBCLmtAfUbv/s9vvLy12PVhhb2nrcAo0EdmWPB83xk9ZZy1bMsBQhyfwBhWrYuc9wq967L5ZSYTwVH0slkC0TEpkV5KoWhWYNiCaDm14WP4WQnKbr9MlynhE1/XYdSfz/WBDWsGyjjSW9+BfZ44cmwB3vU3roeYvL/rpH8dbDmXmllnQYReqtdSFotCBluM8Wk9AQOd6O6lp6CPs6kVFxot8M8x1/cwefnnf+uKNDLZyh/Tw4SilqEhwMUW4GvWadcCwXzMs6CGE+CtATcDLZpy46egFHaPIsVsurrECYRvO5u3LF+E+7vr+IVV30D6T67iX+IpBlMW1gEIeh0Ck0OZQKh7gzBslA2niKDwOAMdgIVJ0fFYLVFgTm1L6mnqegsmEN0Lep8ea7J5k249QtfwcbPfRMHG924b/MG3L+8B6s/eA6WnvIsRGQOCNgyBSiVpbViLPiVjZQMAnVJuUZCDWBbj9gRJu6wNWpX+OIOQNgVZmmWc1T7V+UMx0BX1/XqVXkhQpP1/Wxa8+BG3PiRT+HOy7+JQweWobeVwg9U2eKEZ2CcPKSRoj+gQI3wIBWKkqkHWiz7BA2pKnGsk8VMgK7UFqOk8TTBjU6MRW96KfZ/62uRlkqyeNIDXq07ymJ2R/zMChBk4VZlirlIkaZBBqsY7r4H33nhq7Dgtgexz8Ai1I0IAVIRd5lN2lDl6vMpgMCrfCiAUNw1SwjK+zzp3SKpelYNKM2Byhkz/jDdk7c9bosfobQffK9qSASEzQCl7io21iZxbxJi84JerD7rDdj9tGcjrTiSHhEjqCiBt2Uc133kE1jzle/g4K4hzIcNn+moKETsAnU7QcPJBCC4CdsvEyQYojfIjZLUjl6lsyTAzLBhLlZ15PM9LY2Qf0bfELPpDLb1PilkdDQQ1SkGnZoRxQdFhBp8KVyV5/+V8JSsguUwuMbCHjTTCH6lgomNk1jrmNjnfWdgtze8RO55NnMqWS7KnCV6gkjwVjv01OKzQsGhFvmSwYgTiPjVVn4Vyo+LUECl3Np0fqGbdO6/pUgG1SuDaazN1/0Rv3jPBVi+ZjN2zzysGduE+f98CnZ795uQzh9CxKohVr8w1WWrzQL/Q7OozMzEQdW2bbFYF1A6RWJ0Shu39Yb7O35fByDsopOvFhLubSxZFOpiG5yhS9oSs4c8NQkhKqmBjd/4Pr7/1nfhKe4QFicO7FaMwAHGPJU64EJOgMB0Ajvp5QBB6GYRM0L5IHA9jWKweVM1MjGRxPh9MoEFr3oBjnzvWUh6yqoMzFGBJPec2xEgQYUMJSLLUwxiuysdARWoEkaBu0E2MhqbwE+e/wqUf3Mz9hlcKLXz9UinasJE8shML4hvgNTrqyDBsc93x7MFRgEGsljn5YCKmqdTX+4nkNPyicmyOjoCEqYprYQy/lG5ff7tJKofQmCkGEsiNPqr+OXoBhx59pux+vTXI3YNKdGjkn5k8ygGhwZRShNkd9yN37z/Uoz88BocVV0AZ6IG13PQsGI0PIijJlklAQhMNVH0JimnotWy8htQlQsqjZRXC+QNm4qP0/YACLNpF9SIKNMmgVpybgogMDrbFJtmqZS1ioAwS6W/hkF3Qd4TpOZtUxwHky0N3JdFuOfwlfinr38e4xULjQzocnx08R4IVZpIhLhM+ZhqPAgQGHw9QXnsEpqJcZWUikrvC3Xf5X4HQgpxbMUNi6WNKnqLtXLuSxDFePCHP8bPzj4HR8Y9SIcbuDmdwNM+/G70vOpUNKgDsXy4lhiPIHPIWChDLGoQ+N2TcQDHsVGSPqsPAxDayGUXXRA7p71dRqADELbLsM7RQUlFkobkoigiqBhBEqIZh3DLPtKghW64iG65HZe/5i3Y/94xHOD2wUlN2TGOuzECxKjYLux6KLskWvayDwPrxxmMGJRINUc20LQTmEmGrsxFKTOxpdXEnVkD7qkn4ikXn4ekpxs07KHSO2cu5xwc6C+eEn9JM4J25l9rDNsTJE553FFOtvCLl70W9k9/h30GhpB5HhpBKDSvHap2O6zS0Ov5tI6DMwHCzNlXr+fBiwCBjEAitLCRKvU7mYzYIjiLpOUxgYed2TCCBN1OCWmthZLpSMVC5BrIhqr47YN3Y42X4NRLPoxlL3weYt8RXYnQ6Zpmb7FSIY0FKA5feTV+dMZ5OHgiw0q/iigMEFGA6AENMxYxpDgMRkxcqSBDACB6A4lAJiJ6ZIiTI3+TiiER9Svtjo6zNK3a3k+DAKwCq1GkrR6OqSBgDFqBMAku+23EiVRwrMsi3LS8Gy/57uWoLR3ERJyiy/ZRSlghpK6GmgYxrDLVs8IiRv6OWgV2TTVYgcBUG0tMKTDV6QR2O6WbI9MbKlXFkkfSEQQHsTTQisMMLu+1jZtx7+e+gLs//0UsaLhw+wfxQ2zCq770aVSPfTJ5JVgp+0wo8yWCDBp5ScMm2ToY4rUgjpv6CXjY57GTbtjet+oud/wOQNjlpkyfsCxUipYWHkGlU8Udr5WGIlrKMmWaYzUCDH//J/jtq9+OQ+0BDPTPw0g4ic3RJHqr3fRWlPawWRRLSVRkKuGZNAdiA6bElOAV2ilYrkVmoeL6aAL4S20LouOPwHEf/yCygR5Yvqu2VzvKc0Uvcno4pPeiMAikfsmu5Ny/BDKl4rBoozzRxA9Oezm6r7ke+w0tQGI5CCL2KtAAQXbN1CCo8S8GpW27hfIaPMXwWEYsnRgZhil8Y1lclEVIaHBT9iRfPjE8hrLpw0sM9cewEBsZxn0Df6ptwOSy+Tju3Ldh6HmnIPBsNLTLo0f9iDaDHmcaIWyhajsoj7fw87eej/Xf/h6O7l6KAYP3SIKJoAGvryIlj1s2b4bjOnA9T3w1igCBYCakXsFS58HrEGMlLdjMqzK2bTy2z7vksShEwWnlkcXeGIIoMmlsmbEVOstHkwyV1MKDcRO3LSzjlK98CuFBe6OeGvAtVwyWHPoaiBOUEilSsEiXRgUQFIMgzpx0LWLg90wBCNQp8MQ8AgT93YrGyq2teS/yc6xcMOGlFkZ+90fc/K73YckDW2hugD+MD+O4z34I8087EXFvCakwSpYcmX0iLFuxXGQzRAJBYEKAyHMWUcQj/HQAwiON0N/d6x2AsAtPud7MKLEdBWU5/csmPHRt40IehXC4Y71/GF876Ok4zOqH77qgOVtoRGAw4XvgWCg5HrIg1qV1aldGgEDamcYwdNXjqsRujmz8xDKw2ya3oHbkQXjmZZfAXDBP7GsNRy1aUyrzORxkvcipFAx/pgCC6uQ31VBHAYQUtgCEAP/7jy/CvOtuxn6DC9BiyZgWEdqJEp1xES4ChNn6KRSvtCjEk4SBfJiMgZhiy+4uo6OjyZ0eYR5L8kyEYShBqKerB62JBtCIMb/ai2azgQkrxJ9qm2AcsA8OfPPrsfS0U1C3MzRsUxT37DNAvwMS6Py6plDqsQAGt5Vg7Lqb8LuLPorGtTfi0MoAKq0IrktXRWCiUYfr2KhUK6g1a1Lx4FiObq2szp8NvNoAIePYKbZCCf7y3fUczneOl2eAgvx/c4Awk+WRuRHmhvc2UbYCO1XYeCCo444hV8p3y886Fk1DGR4hTOE5lmhy8huclSXcsYuJoQAEEwYBgmYQMtdCZBAkqHSXCyV2ZGpDARQlGA5BX4oAtqWMmcxGgg0/+gVuPuMc7FlPMRyluK3bwct/fRWyZf3C6LFsUvwZWPFCzQOvhfeS+DEoTUTEe4lVDHahQco2YIW5n8HON+6MI9ABCDvjrGzjOeVBmAsF/3AnqjzzU6ndpjVuFIfSbMgaD3DnWz6AdVf9AqUkwZKBAThMJ4yOw3UdMUpyHBdmkLTzzAyAklelco6KB+lgo9oci+4hi7C2VcPkIfvhGZ+8BP7yxdIghmmGNkDYqrZqGy/usb4tR025Z74ABK0WZ0Cgza1e3zk+SZbA4eu1EN865QUY/P0t2H9wAZox0zeWlAHydQEIJoGPdinQfgazqeyLvgh5/wWyMeoP1ewpEiNGIlbHDDCqXE5tfknvK4OdVitAT7mKsl3CxMgoYhu4s7UFjT0WYfXp/4qFp56MpKeCkbjJ2j0pZSsblqSQaOoj56EFo7TsTWpNYSbGfnMtLv/Xs3Bk5GM5PYhrDXh+Weh2l5UbZRv1sC59Hug+qCr61PmzBThTUGSYxP2PPgMivMzPvy3Wf6wz+IR8bmYMzG+L6QdXJaoM3ZIeiIGe1ML6qIlbey3s+57TsfyVz0dIEyqyYgzIHE+p7lBHJEDg3DHQSwko5zeKJd1H0SCBNwFgpB04WS6rxKmZMEii9yFjR1fFoAnPNNHj+Yg3juD2j38eW77wNQxNBrg7S7DP61+Ble9/B5KqJ63IKVi12a2T9zp9Kgg2pQpClTRSWxEGoYgUXdUgZfpPByg8Iffa3/JBOgBhV59drlMEBzHpTlOCCJdoBrU0ZT5bmRZZUYbspvvw2ROfgz29Cg5euATp5hGkYxPo6+vDhJlgbHwM/aVuWfpY986djeyKYuZeWRDHhTCGVylJ98DRoIkH4hbGVq3EiR+7GN2r9hTPe9NTvu/5IjqN893e410ACLKAa4DAf0tw1j74ytdO+eMLQGiE+PqzT8PQdbdgv3kLEFAJbtPfPoXDRZjxQYJlzgSoHfNsfRdkBgpqfbVYK8McViNwfkIzkeBCd8TEpojRQBTRLjvFogUL0ag1cO/992P5bitQ7qriL3fcji1miOoBK3HAm16H3mcch7ivG3XN1tDzrwRDFO0q6mnxm9QpJpIukBbPJqsTIlxz6aex6cvfxYpGiu5aiF63ImmjVqOOVjiBrt6K3E/NMFQiOlHcMwCZCHUgEoBAdkrPad53QFHe23uiH/n4eRXIQ73TYMqGAk5TOWMSIPQmFrbEIf5UirHoX16M1We9CUmpLECJ40Cho5SqasEfHxA+F6mUWGagxiCLY2mrTXaIxkpkGFj5oOoY9O4+YR+GRMooaYNNPQLZBysIUXE8jF17Pb75yjdhv1qE7jDBDWaEF3z/Gyg9+QCEtoUo4nxb0qtB6mUpbNWpQQJbTgC/Kw40g9ABCI98w3TesTWGzHhndn52zRHIZ04x1rKAsWxNaHO9K2JQaAQtlCwbZj3B11/6WiR/vAmHVAZQnQzgBCGcsoumY2F8fAwDfrcs7mHurpgDBC54WYogC2FXfLDn02QSY1MSYsOyRTjhoxdj4JADEDsMrGq3skMBgjqBWQGCLPSzAIRvPPfFGLr2ZqzqG0CLi73tCYPAdtCzAYRiEMzV9Xn5XxEkSOBkNYgGCEIpk0HgWTDyKo9dJAR5ogNx4dA737ExniSYsIAHghbGqi6ee/5Z6Dv+WBi9VQSWhXoSw6E7IIFgHLHGFKBzoKkcFzPmSeIUUTOCVXIwFofIXBOljVtw9dvPw+ivrsUzFq8C1o3CaYaoVsoYndgCr+yAbTnZLpqMFMEVAQJDKTUqeacL0VNo10deimhh5lio+FDVEsKAtUWFUy23px52Ah6lI6B3AdtED2QuhtMIvzNq6H3BSTju/ecAPX1IGLwpOEwS6dEh2hRVZKwkmlpXIAqTJIVUzBAg2LZKJdEPQXfrFOvtNJG0UstKQDcKfr6XFQlRBiOIcftHP4urP3QxnjJvOcZadRhPPRRHffojsIf6MR7G8C1PmAjqDOThZ46R4lYRw6p6BUIEtvmm8HGaBmEnAG+75oL793fWHQZhV55zvfhJ4RXXCJZhyeaBddiKSSBNzN0LGw6ZcYrRP9yIrzz/ZVgx1sIR1cXwTRMTQR0N34JjWigFavdHBiE39XFjlr4RdABN1j04KrcduzZG0xT3z+vD0y+5CPOOXi2qeC6KPDVRIojaO2+FOweDXYS7EqgIbLTTHhfoGQxCKgwCxOvgey98FYZ+fQP27O5FI4lh0oQmZxBYLWKpanYZZ51zn8kUSLDQC3BbryBaBlW2SAZB6uZd7jpZHcHgoAKKZ9komR4ak3XlSTCvD/eFTVz9wG2wd9sd//rpj6HrKYdJGikhCGNfBZr4iLs2ae0IcBwkbL4k9AabKyVAEIm5QuK6aLkm7tr8AA4cXIBbr/h/+P6Z5+DYgcWYt6UBd6SGBfMHECNCvVVHgARmiU1+WDrHaha1b2ax6JQIlBenTHokFZFXPMzBVOdf8XAAQTFHOQMyncvi5tugdwDHM45hJxn6TR8jWYzfRKOoPu8EPOvfzpdmSEGYwGMHzLwZEvuWkLHRzcmkxFL7bBBU5gCBAkgyVYpt0WZJRANpjNhIpKQ1YIoCqgdGOXWAW+/F919/Bry71qLHL+NetHDCFy/D4HFHIfN9NChfiFUVRcm1YVLTQoMGQ5k+g+JTDV9SOmIyBzTjuZjD6el81S48Ah2AsAtPnpT451UM3KVyW5ywE2MiXgRKBqcWDC6ADoPIljH87uzzUf/Br3B0eT4c28Rdww/Ant+HXr8Ce7Qlu+uWxV2PKuti4x7a65qUTXsm6lmA2LTg9/Vg7fAwNg4N4KgL34fBE45Cw0rgeZTITTEIRbe47T7cWwEEFYCVaY542k25FcrSncJljGsk+PEr34DKj67BqoFBjLVacPyy5JNdNunh0NLjgZUQMu6qTW8OBorWwTOvUb2mVO5UrVPLQZ8F/kJ8Bhhgwwh+bArVT2HZWBxgvNvFzeEERhYN4ISzz8TKfzwZkc18NnenjpSv0f7XDCMlUHMtBHT+0048lqjcVeVJRkdMx0XqmRiO+V0xepsxfnnpp3DdRz+DU+bviZ6xOmzHhFNyMRk2ERjsDmpJAKKwjmJVU1IkqmRT5R4k/EmJpIAEnYvf7vM8yxe0WRzRBkx/g+pxoX7acwYmZlLQf4IvEiBUIhMbggZ+hxr2+JeX4Cnveitiv4I0M+GWHBGC1iXbwG6JBAm5Q6HmVJTxhUoxGIakGChAZGqCTgSSpGJKkPMhvhcpWmYiqSY6n3qjATZ+6kv4zSWfwyHzFuDesAbrqQfj0PefDX/PZYjl/iGzkyomwzRQZhOtLIJJkCDPO0GJLdwOU1b0gdiWIoYpe8WtB1cAj9p1dH7+jkagAxB28cmW7ALrqSUNqUh9UcSz05yURyt74EYUCrMwEKYY+cFPcNsFn8byv46j27fR8jJsRBMl2OgLVM60aXNXowBCKTLgcYGTOi4To62apBh6hoZw3/AW3F+t4PBzz8GCU49Hs2zCc6mZ548KI3OqQVBfqxdKJdgkgyAZ4NzuVm+oFHlOe+oMZjPFj172epSu+gX2HRjCOD3sPV+Cqy++ADTEUQ2bdJhRboJ51Ml3qYWrnYZV8h4BQkpTpKic7vKjsVqkEtKgiKK1DCO+idvSOoKVy/DUd5yOeccfg9izUedu0bQkMFFQmjQDETXaZQZ/C80sQshgQXGpYcmc5mWe7CURI5W0BanpbsPC+l9fh2ve/2H03LgGR/QtRFCfRBRHMDwXhm+hGQcCYujZQIAgxj4CDPKLz4HSDPHHDniuZto/EyTkjEZhmgr6CMUE5T0yCIK6Mwfrgxb+YNWx6oxXY/UZr0No+8hSEw4Fh46JSalCgXgVuO1Ug+qfIGPdBk/EAak4cgpY4PPEjX7E0lrqE2iKBbQMFkkmKCfA6A9/il+feyEWrptEn1/ChoX92Pudb8TQSU9HWqb0mG2gU6SuLekish89loWyQTMvii0TMVtKDQepYSNmysq2pYvrI/7s+Cl8xFPsvGFuR6ADEOZ2vJ/Qb2tLEKT/ApX2qmQrTFmexsWKCmdLxFITcYR6GmDQsuA9sAlrL/wc6l+7CguocO5ysD6uoWL7qIYsy6L9LlsAK3vfrsiEy50o6Xo7Qy1sSslfV08vHhgfw7pqBQe/7XQseNFJiAfK4v2ufnaGFUfld3WzXZUL1mGZynHufMXsJwCufuWb4H7/x1g1MIQJsTB0xCSo1FTdL1niJ70YJETmWfipKc2DUL6TLaYalGsAz4ONe0gAU+ymdt1096NArSvMpMSx6du4oTWMylNWY//XvQKDxz8NMRkhzxb1OisRPF5FlCENWc5qwvRsEajSAyPKWCapdqweaxt0oynuXFthAHhsQsTGWzGqrQR3XX4Frr/4EzjILKMrjpG0Qths5EQ2IiXYINNBTwx17aqRlEq1iGOh7miQVzsUdRhP6A3/EAcrpnI0fNHnSYAwvboiZ32UZKDQNUpMjix0GyWsi5r4cyXGIe85Ayte9jyEsGGZtoCNzLNQT/OADzgmtQjUFJClkpZNcrMxMBNEcV5Y4hhkis3zU0tEv9R0sG100yCHkcI3MrhbxnHNuRfgri/+F07c7QDc15yEf9LTceB7zoK1eAEi+po4JYRhhNR1MMmtgGGgyzThG2R5eIL6fmeagSJMsX02xb9BxoYEB8+fmwphxAz5/7zLaRHPS3tsClyZXrRt1YlSjjElYhDwnXdJLfx+Lua98x3bfwQ6AGH7j/F2/wa6KFIYxfw6BWQUUvlsU0zlOsvdHAs1I8Vw0kApS7AwNVH77q/wl/MuRe/GUfSy9t4Dqn4ZRj0WgSIZhFADhDIBgjSQofKeZZBsfOPBsBxsnJzAxp5urHrjqzH/Fc9FtrAKw2CR9twTB8WBnvr6lGum0O4hLXVTdq5k+19qADIJqhYp98jEtW84C/jGldizrx+THp0NLaHWuxvKMChgvlp3b6SXQTH3XRTmFXerPCfVREeVBpKVoeahFCvL38SxEGeJpDl6E1MAwANmC9ebDRzx/ndg1YtOA0olRDyI78nYC2PAAM1ckL5QsXKW4zPciLemqpxQpLZa1GXBT6WF9UQUC9CbZ/swHtiMP138Cdzy1f/B8YtWohJlaDWbcJm7pu+FSBNV6JVxtLTltCjylcExf1Suf+4VcPlXTtk+a0AoDILSn+T7ZwVwVIWOCPnI5HDrn6ZwCXpRwl+jBm7uM/CsT16A6onHIKDluO2qShCp4NC6BYJNMgi8weieSCBl2gL4ms0QpmWhVPaE4asldVCWWDFslDIHWWJJpQzZA7IQ5TjF+A+uxjXnfRCLNmxAT18v7ptXxiHnvgO9z3oGknJJqlzIWigmiEJX1TFS2lELUOMNodI/LLsUZa1uAy9NqnSXSd4LdEylP4LcnxogEEgKe0ShI0GsbQtgZedLSRvyntN/BP5rcJCDhuJr233R63zBnIxAByDMyTBvzy9RAiihN/mAUwDHGmmTPvPcJaoWtYENjGQBzDRCbwKU103gD++7FMPf/AH27+pDtbuEyZFRlJ2SpBiYy6bBiyr/UmWO0vtBBJAUZ7lCuw43G3jQd7HiZadh2ekvRbZ8ECkbCzFfOfexoj3QMwGCXJNY87OcjBa1CiBEDks/Isk93/S28xF+6Qos7qqgVrEQSNkgMBCYYjdNgBBLS2sGQyXcU7vnrfsxFGdc9S9QDEJsmKLpqIZ030sRutSKpKAZU1+iPAZuiyaQHnMgDjz/beg+YBVSm4uzxWpF1T6YjEHhi7UGU/n5a3fIfCet1OwzoFNmoJkx1RChmlkohSnC62/Ct9/5bgzcvh6LMgtVz0e3ayMLOApq18jrpHg1sA1p5sUYJCWiMwDC42nE9FifFAEn+sPTQIBOv818nQCBvhbSM4GokR0RDRt+5uDuYBK3LvTx0q98FsnBeyOi5bjhiGMkx5q+BuyAGWmAQKmoEYlSFJlliyV3yOPxOeF7oxSxESI2I9Et0B45iWhoBNBIqUSrjlvW4LrzL8L4T36BJw3Owx/H7kPXC07B8Rd9COnAoGh+WLJYdsgMGAjptUBmwLGVjbLWgiheSzVtEkkpwZB4JWiAIN1WCQRiAQhkEcgS5Dqher2OUrkkR8nZA4IDggi+P2cc2qyDBgx5MdxMkJCzC491Xjuf27Ej0AEIO3b8H/e3q/yp2jmwDE12ENwQ6S2T2PlKuthAE/T/z2AFMfwM2HL1L/Hzt70Xuw03se+ixXjgnnvQ29Mr0Y7BkzslLqSS2zVUVYJJi900g5s6MDILtTjGmjRAz7OOxQHvOx3W3osRBRl8z93hAEF2NsJ8MDCzAoM7p1ScBpnr5+8Dx0Aah+iOTNx93sWof+6/Meg5mOy20SDtnBoYiqxpAIEBn/bMuS9/zhLM3DzngVIYBDHD0QCBbEFkidiQPTESiz4V1IeQ0bDxl3gS8192Cla87XXAskUITEdSCZahgoFNs54Z4CvXfCiIMEMWmrMMGsookaWJGrMoKeCx10QSY/KHP8UV/3w69rHL2GvJIoQT41JnL/ZQOqVAhkqsuMVugU6KyvRnqppj7lHhVH8EBdR4bgIA9KmIq6CyClCATrfUjnhN1IFI2SHvb/oK2LirNYH1B6/AP33tM2gs6EacOXATGz6FoDFZNCC1LQR0kmQ1A1MJDNisRrAstAxD2AFWCEnjq4CiUgqH1TgxtZGwHIIupQSow3Xc/h9fwZ8/dhkO65mHMJjETWYTx3z8Qix89j8gsz2EQSyMBHUQfN7JBDGdkbMAvACyClNcj3JS5E8UEAwowM5KCwbtVqslTBJdNAkECBTyIM/fEQAQLPA1AoSJiQkMDAwIq5CzDsU0hYCMGQxDzjIUUxKPe8HrHGBOR6ADEOZ0uJ/oL8vNgqfKXdNyogAAIABJREFU+HIqWLrMiWBRNWuRoJAkcLkLiBPp9Mguhj874z1Y+9Vv4cRl+8BqNEV9zeDHun1ZyJiykG49rOPnQhqrRj5sJJSS1LSxplWDcfgBOOySc+HuvweiMIPPngw78KetfigAhJY4S2Yos/Utgxq7ItK/XgOE9R/6NMY+9SUMmCZqPRQExgIQBgPlYyAWw6JDUEGFw5KDA1kMZwZtfRK5JXNOxrO6gGmb1DJEwc5SO+aPyxQdkkGojaB60lOx93veCvuAlRiJY3R7ZfkCCXa6iyT/R0EBVXTYFscVOYOCUlKVIlLIRnttWmcryjgLI7gWYLVi/PRVZ2LzVT/DgX0DsrNlkCGoFGDCFDfNd9icSGsU+Tslu8x/5hYg5MyAWCrnwV86Yk71l+Q5SqWK9ORQ88T4TIqeKI/VOWxvbRsumrGBW5M6ul96Mo6+6F0Y92hA5MBLLJRNG2GzBdt1kDqWpIPIlHk8TsgdvYHItjCZptjSqKNsOpjnluA3+DzFyLzc8dAS9oI9G+z/z957wFlWVtni6+SbKld3dYAGmm4RARFQEcMwKn/RGR0dxzTmHDCMo08dlWdCMSCojGlMjDk8E+pTDDCgIkiQnBq6m6Zzqq6qWzec/P+tvb+v6nYTHqh0t3pLi+6uunXvud85dfb61l57rW6O/Orb8If3fhRTl16BY485Cv/nsgsw9k9/j2d+5fNAGMnvkxcEaqXO16RDo0ABM4tslJg6w6Csn2WQ8rRAnMQIfP35PM/gB4G0DTzfmyv4tujzemi32wIQGo2GPM5OMFgGwbYgLJvQCwT6DMI+vOndDy/dBwj3w6LuraeU3HjzYtoPVPe0Mleqk1qCmIXMccBpdjflqDRjbxOULtXNLoprbsW5//YuzPz+93jcwUcCcQtIEvFNKGnaEgWYEem1+u4H7F/muVjHhn4FQRpgfdrGzkMW4vizT0ftYUdpnHGv9/veWhDdPu9m1KOjhSoG7EoSb4GagCSl67u8x6YpBjIHM5/8Kjac9iksDgJ0Bl1MU55WlJjIfRRJgRZTKsULQQsNb9DUZfR+SD2+uxppPMmkRWFGLuVGL8eYiz8/n29H2sGm8Toe9L63Y+m/PBHToUtIQ6mcCA59Gwc8JwNVd6Je3mCuxdKjE537GlXutEYQIaaDmL0L9scZ9rVxJ771T8/C2LqtWDEwLqAgYkJkN0HdWE8joNaFege93sSB26wxSSxd871z0vU8KNiziZkU7iXiLKgW0MxYqMm2Xz1BWMjFS8KAvTKLUU+Bql/DjZPTuKkR4Dnf/TzCRx6NHUVbqPyhsCF5Fhn1KPy9oWmShG5J3BbcNBcw3XUdNAFs2DWJBY1hjPs+3C0xarUQmc/HcIKlQFHxEXTa8Ndsw6bTP4OZ8y5GJYrwu5l1WHvQOF7++Y9h8SMeJpoVXit0cpTtgNEL2KIszhymnacwUYGitb7m4/n7KpclmY4eYSIL/uTkJHbs2IHp6Wls3rxZGIkDDjgAw8PDWLBggbAHBAlBEMg5FmDh8bqnNfv818gs9Mcg9841vzdfpQ8Q9uZq/5lfax4gkL42OfXimUJek/1sSK85cFxUSf+1C2TdLjwGztRIKWZwu8Ctn/wyfvXhj+EhwRAOiEJUOBpF3/0MyCIXswF5ggIR6eaSqYM5Wm6BwK9goKjK3PiWxUN4+Kc+jMETjlNjHQm1vxejVX/mNbkzQNCtJXeNBAjcgVXpNmgAArUWBAgNCjf/61u4/V1nY5ztlSEfs04qBkSLilB8aAgQ2NRVMR6rj9297/4m7ppJUL9/FjQWME5E8EYuO3B5PlUcUqlAxfu1rSkc9sZXYuUbX4HOSB2OF6JLs54wQsgWR0/h33Na5K6/pdeHAAleI4kmWbLQtfIUnayLBbQUbrWx7ts/whUf+SSGd7awrDqIKsdA4wSDUVUioukroWI9FV+KMNGMjppW95/7rN7j85HZ4rHQF8C+R4o5xdmR/gZpidCAGMm98CH6GnEdLDKZIKglXPsQV0xN4o5DFuOlv/kx0vEqpsm00fNDxIUeykR78bQUT0QwqudCBMHU+rhs5UFab5Hvo0EdS1OBuRsRkBYofDJxMeqdBDs+/x1s/MSXMTbZRXeojh811+LoN7wGj3/X/0InoIjSR0VynHWiQKZwerQAluZncWZbUK4hnhO200zrwE4t2N09H7tu3Tr85je/waWXXopbbrkF69evx6ZNm0SUeMQRR2D58uU4/PDD8ahHPQqPfvSjUa/X5fn42mw9EBDwk/9mu4JgYa7dsVfPfv/F7s8V6AOE+3N17+fn1lu8koks2rw7MqiHimrerCSaV4q1izpvGq0C3XYbUa2CIiKoSBEUHrI1m3D5+z+GNd/7KY4fGsNC6dGzZw90A4485qigRD3JxAuBu7NJLxPGYqRsYGfSxZbxGo799BkY/bvjVR0ld+p9IFS8E4NgMxO441NP/IjHJfF7QJd+EXmKRu6i+cXv4ub/+AgmmMMwUsFsmYiGYQHd7bge0seVQba5ZEbJetjjoxcg2N20UvscsaTAD5K+yDMXiIjO7vh0/JE94Gt2bYX/iIfguA+8E9ExhyH3Q+zqdFCr1qXnTfHk3EcPY2G/bNmCeW2CtgGsE2QZk0nSoKh2noo7ZtX3UKFd8/YZXHP2f2HNt36EFYmPxU4o4JBXW1awHeGjYFqhUPUKFMRAyjArPK69mcVAgEBGo2uCqdj35yfZH9EdiMMhQQGvXQIJDvdIf0HYEXRaGAqqmI5T3OQDK17+PCx/5+uR1ly0OIpKYWhWoOFE4qzJ3r38mplMBtFoSF4HUzk1brlLrwmKAAn56KORUP9TIG0EaGdtDOUpps+7AKvfdSZG1m7DcFTHH5IZuI98GE782Onwly/FlFuiGlVQYTushwWwAMEyA5YVsKyC7fnb1sDOnTtRq9XkuuLPnnfeefjCF76Aiy66SNoIJ510Eh70oAehUqkIAFm7di34MxdccIF87XnPex5e9KIXCbNgXyNN0zlQwNeR3/a+kdL9fMff+0/fBwh7f83/bK+oCgTuOUsBCLwZ0cymTDO4ro+M9LFJU6xwJxWXSLsJvAqV1pDI5zLLEeYepv/vBTjnFW/Aw1HBAysDCLq50KVJ1UeHsdBZikHe6DjTHRbYHuaSHTBeNNCMu9gyUsWRn/owRh7/SNm2aYHaBwyCWV1DOqsoTRgEvXlzl0V7XFEMUkwmACFDrXQwdc73cM2bP4BljovBBcOYztoShT1OW6LSk/WQHZsZG5AGz71ouVPUKSkGIoSjpgNo+qpl4EQDPQa4C6f4jP3+iuthSxrjBifBw97xehz4sueiHKhiV5qiGlRlrI1GjLt97OGmayIR5nrRKmY1LBOPJs0llZBBQyycFCG0mfyZZxiCh5mrbsCv3nkaKlfdhuMHl8BrdlDSebrMBDRx6oJvnS0aTmioDZCdmNCWzt764A4+9oC2sd+oZBBPCa4t157Qhr8LMoHBcCXuthlT7QSIyHIxq6RaxU07tqM49kF41OfPRrl8AnHoYFbGPCHBSIzSLpjLQQbBiCAVLLJnoymnvKbyvMRsu4NKVEXpeuJ6yIkGyvvaeYyK66C+Yzu+9tRnY8WNt2OFV8OM6+GaRohHfeh9WPgvT0EzT1BWQ2Hi+HiZz+0pwlYU2AsOetfbtgO4s+eOn60BsgAEB+9973vlay9+8Yvx2Mc+FgcddJAEtvGxfN7Z2Vn5/jXXXIMvfvGLwjQ885nPlJ8bHR2Vl7GtBmEu+gBhb13qe/11+gBhry/5n/cFNaeJAIHlz0GF3CcBAm9mpEHZazV5QKRZWdR77eVkVIrFaccMVp39OVz+0U/jEY1xLPYqiClwIh1aD+B0OqjQtY/jXVUXu+pAnpYYb0dodmJsG6th5dnvx/DJj+ZQtumE9mTQ/3nf9v/z2axsrhcg6KS6Flf65XOnRQDFvn+VEwbnXYzr3vBeDGybxPDYoNghO6w+Uy1dT0n0056zCA7vRc6ZpiAqqOBTEQxwcmLK1w5FL0DInVxsnSugKVKASyfXY+wpT8DDP3463IXD6HJ0VWbetc3RyyDcm5a/EtCcSlAzH7kwCHo4AkrRHnUEkgoJhJ0Ya77+A1xx2sdxWNPFQWEdM+0ZDA03kCUxXPaiSac7hRhqyf/EhprPZ6HI//M0/VkewHXt+goQuN61FBiMS1RFtUcxJhCHrtiHMzmR55LnoehkMgrsRT42zE5jU+jghDe9Cgtf+zIUjQhtYgeGYTGjxPXNdaMsFAEnl5FroD4RegZEC5Tl6NJsKoxQGC0Qpw6qnk41uOu34Lz3vR+3fv0cPG9iJcIkx7XTM1j0wmfhkHe+Fc7ShZhKUtR90vbSLdztwxoYsTjvuWvvHTe0I4ZsG7AdcP755+N1r3sdpqam8IEPfADPf/7z51iDuzI7IljYunUrzjjjDHzlK18RFuGss86S90gGgb8/fN45H4U+g/BnuZ73pyfpA4T96Wzc12MxvXUKBul94Dl0znNQxgQLvjrhycy6Mv5SGKVgFeqsppbwmG3OYqhWw+Q1N+DC17wZjevX4pjaOGpFiGbcwsCiUaTtJrJmE0E1QBw5mPQzeF1gSVxHJyuweayGA896F4af/BhwiytSKVIU/NiLu0m7hLsDBB0vYyQvqzJtg+k8SUq4K72GApXSRfGHW3DLKe8EblqDoVoFbs1HNFDBzIatkuzImz13iaKv4FiYaAvn9ft3dfoEIBgGga9LBoG73V0sZtyZGgbBmhB5eYZKViKsVbBqZhKrhit40gdPxdAzmcPgKwvRa6x/Dzk8e3Yh+G8erbFLEAMp/oe6DM6m5PR5cHKZqPApVO2WOP9/vQubvvo9nLT4gRJFHHdmZIQ1oFlSQRth7f+Ldl5c+fiHtdi+rxf0H/d42haLZbGvo6eVlO6fJaKMQsRSTL/aYYGO4bXqXgUNBIgnZ9FhOuNoFVdNb8UBT3wsHvrh98BbOqbMCNfbsCKi5yx59lTHwt8jl9MEYirENp7qEfJCVf9s3zh+iIR/sjWV5aiQZdjWxuVn/Rd+89mP4fEjS3Cg52A6jrFr0QRWfPC9GH78I7GFMe2lh1orxdBoXZk+WdP5X6TeX6leoNo7YUBgYIWEFCG+//3vx2c+8xl8+ctfxtOf/nQRJ77jHe8QDQFZA35abcFTnvIUPO1pT8OiRYvQbDbx8pe/HN///vfx8Y9/HK997WvnPBIsQLECyD/uDPZ/an9dgT5A2F/PzL05LjPaxT6yBQjsT1NIRSGaZNCHnli6MjtBU+WAkJMNTHmDOrKRYubQgb9rGhu+9yNcdtpZOGzKwcHeELqtFoKhClrJLNOHNazJSTCdJQi7LpZjDB3Hwe3DPg762Lsw8uS/QxnoTp12svsaIJhtne74pO9BkZ4m74lOQ/iXQnftF/8Bl73+f6N62wYsbgwgpVOBV8o4qO+S2NcCIcZUxnK41wvhLk+ZESayT86f5s6V2pApT/XpBAhM+ePzsdCy0KDTRb1axRQKnLf9NhzxohfgkWd9AKhzPp1ZPGpYY+uFHRro1QD0fs9itF7xorhvErhIJrSCpZgtB5fMCvMpCrhxhplL/oBfvuUDcK5bjScc8WA0N25CnsUIK6E6RBpHSt+I/ujkqKOHew8V8jqjKJH5FjwfnFqIJFwMMqJLZqEV5EhpGZy5GCx9LPAHkLVTbI5nsXUwwJZFAzj2Vc/Hgc/9Z6BRVa8HmZBQAXDg+sLciKU5WRczMUBWSuj+MtdpBuoyGONM0yTXQ5rl0pqolx7iTZO44VNfwY3nfAOPHJ/AROTgtvW3YJ2T4qiXvRKHvO5VaC0YwiQKDAYR3F1dNIZqKEn9yem+M0DYExzYa9Du6ln8OYlw7rnn4lnPehbe85734K1vfatoEb71rW/hZS97mbAIFCXaYs9pBgoWH/GIRwgoIEjgvx//+Mdj1apVAizYkrCsA9sNd8Vm3JtbWP8x+/cK9AHC/n1+7vnozB2fN8aM1mkSHKMUOCcZSu6SOcpFsSKFcWUuu1navUp/NmM/1kEWqiI7jLtw79iMa0//JCa/ez6O9sewoNLA5Ow2tBEjGqmhg64Y+1QbDXjNHAM7S2xLOli7sIIjPvdRjDz+eGltULTGsTwpTnuvVvSslxEnml2j1UMQGHACQV1oOTHALnyBqushv/w6XP6W9wNX3YSVg2PopG200w4GBwdEaCY5Sdwn0u+e74uoyrrU8ZWNRkExBG14Nd5XHO2kzaATC2z7zHL+3nFRSelK6SKj6C/w0GjUMLN9B3tBqAwN4crmNmxdtAAnffLDWPSY48VwiWCHM+z2dXoXWAGMWQaLiezX5JscYVBTHHPJyI/b4qOSS2ZPcA6SFbbEbed8Bxee/gksa3Vx1NBiVD0Hk9OT8v4rYaRJoa7GGgsoNWLFezLI6aXC7fu4L4+3J1qLlKdCRONuadeZZkndkAwC0HZSVIKKrHdn43YcNLAIuevhDsS4PJvGQ9/0Kjzo1S9AMVyVWGx73vheaBjG64f4mLoNPa18r4UYTgnVLkCQtt4UTBaYLRLMdGYxENYw4tcQr9mKG8/6PKZ+8EssyT2Es03URqu4ubsDwyefiCPe8u8IDl+JXQSjlUjElW5aIIpcOBzFMB92jNGCvt4bhF1TObcmfZGtAAKYN77xjfj5z3+OM888E894xjPkx9asWYOVK1cKU/C9731v7qkIJt72treJUJGA4pRTTpHr5bTTTsMHP/hBeQ6yCAQGlrHonWDoGyP9JReV3Y+9DxD+Cs6ltpPNgJdR2dPHleE80oP3lYJtscOc56hRnMUbUEYxmYM80BFAL09Ry1I0L7gcl777TEysncZBbg1l3ka3jFHUHKRBjma3iTSOMRYNYUE5JKEyaxdWcdxnP4KBRx0jlGgUVOVmSTp830gVdT0kq0+wkwro2B8WDwJqM9ifpvcAGQS65K3bjMtf/w60Lvo9jh1dik5rBu0iweDwIJJuhjLViRC+J+4u9Qn1ArI3Rbuz1OptDGvMrL4tnCxcceCK4K1S0rRJ/fDpL8BikKepCBFZwDsDdfxi0xqEj30kXvjtc5BHxotBFPJGFLjH5MZuxWOuz2DiJuW4FCAIGDDmSZ5he+R9ESAwREhish24O2Zw5Uc/hSvP+SqO8kawfHhUzKWarVlUPF/BgdlF2mFKIat6rsk9f83+XBa88hqOB5/sAMf6rBES7YR9rnOpwkSyIqWPAUTwZzJht3a6Oa7OpjB+8uNw3Ftfh+rhB6OkvbTnyTSJ+DsYgMCFssJQbVdpv07GPNliMdMSBA2JxDeX6LZnMeCG8HZ2ccMnviQi2MWxpi8OjQ3jkk03wzv6cDz0PW9B7e8egSyM0KFIldCaUxf0cAjV+OjuPu6EvY2AVo7R2CNv374dxx57LI4//nh8+tOfxsKFC+XpfvGLX+BJT3oS2E744Q9/OHe+uKYEBh/5yEfw6le/Wv5k64EtiMWLFwuT8N3vfnfuurdtDHuMfYDwV1BUzFvoA4S/8HNp6WV7Y7biOaGzebfniJTxjme/WHMa1EnQJV1KeZVEznJjnCHKYrg7Z7HpO+fh0g9/DhNTXSz2PQzWIzgV2vO20SliEfYNVYYQ+QO4Zmoz1o5F+MfPfhJjJxwLVxz6KF4C2KbdNwBBT6yUf+7eZV4fYpUrAMGnC2SBjLQA2RPe7yebuOrN78TGH/wMjxk7BPFsE0XoCAMj1DIzKWTGXEGHtC32SLczuMDMCxjwIEBhfmctgUcszIxQLjy1v+bESBZjttvG8MQ4GlEFu7buBCo1XL5jEzYsGsEpP/suyhVLUBJcSN9fx+j2ZAx2G3GUgm/BgUELnOe3oNKYCbFgihhfwBRbDoW4DdJ5r8Kvr9uCGz/2efz+K9/AEUOjWDm2GLu2bhWDoIFaDWmazIUB6btV0NRbLNTMS+f07ce9BQpzAOwuhKHUljAPIZTkxkJaZvQjoNaD45ss2tz9BxJbTtajjk7g48LNq1F9+JH4/97xNgyecAxmvAJhpSZsTo0+FSYmnCyBald0qdnOkAFj4//Ad8NRVQYgaUJogTLlREiBqFPiio9+Fhu/9j2cgAYwOQWvGqIYH8Ivt9yKh7/pdVjxmhejPRChCCsyQopZuh16AnDIStGNeU8gMGeIdGfkpb4f5gok9c/2wNKlS6WdwPFG+0FQQC3CU5/6VHz729+WMUiej+uvv16AAf0R3v3ud+M1r3nNnMkSn4+swyWXXIKhoSF5qj39D/oA4S+8qPQcfh8g/IWfSwsQdJusEw1kE1gQg9LVwCZ+z9OAHQoa5YZGOpY7fHbG+XUKFpHCYbxvlsObSnDRqR/CRV/6DJ4ycSRWDA2jMzOFdtGGP0Qa1sOWqVms29XEprDE8ic/Ho879e2oHXKwAgRR/O8TfaKeUVMl5wGCK7oMtgTkw+f8fil5CBKjRLvhdowb3/1h3PiFb+LvRpfBZbJdxUUzoSOEixCBtHCkkhrBo4zTG52BvOyc1EHHT+c/1LjHkg4EJp5kLBQc+kDEscc8Q9fJkUcefNLmSYG0W2DKKbGm4WPla16AB73xFUDFU1tnMaJS4GNoEo2QFlV9D7tAkCQiN71anNI3DIKKN3mtiLW2AQiiNyQ9z/zBgiwHRwYddG9ag1+88z3Y+utL8KhFhyJqteHFKaqVUDIu+PS0Hp7TRBggwJ1srwPgngDBgiy7Pvf6V9IERnGskBkhrKeFk0u8MkOvqCNgoaTvRb1wUMR0V/SxPc9wWXM9Fpz4aJz4hldj7NHHo6jX0KXREcWZUSgMjrgRyv85oUEXQgVQmsqpmhJ5t2JF7RqzMmofMjjMt9i8E7/90NlY992f4ZAkx4MaQ6gGLjZ2mriitQvLn/vPeMipb4G7bDE6xuGwQkZvliJjwK376jFhEhZ2EyZax8TexTLR1vxSms+HMVEzQA8D+hlwbNGKF6+44gqccMIJOPLII/HsZz9bzhHBxO9//3vcfPPN0mZ4yUteIhoEnjMCgYMPPli8E371q18JE2EnKu4uDvpen8v+A/fLFegDhP3ytNy3g5JCZG4OvKGw6PEmzfha8c83N2h6I0hoEHc4FFWxSLGQlJ7s9rMyReFk8BnzTP75jh344Mn/hCPbwPELF6O1YSNKP8esl2Pt1A6s7raxs9LAA55wIp71v9+O+uFHsmWNsEoRAo9ATXD3yY7CAATeyPVIWASNyyTpV4+KfRoFqTtk0U1QjTOs+9hncNlZn8Nx4QgaTNDzciQBKXlHAps4iUBBn1hai2rfzKf3YgFjFGTBghon6QPseKK47zk+ckYJC7KLxRK7OjaAtbu2IolTLBochx9Dpheu7kzijhUTeMUPvgmMD6MkquA8vtGcWCxCgKCv1QsQdNdrWSaec1Hai6hCi5yYNRUETTq+xzn/lBMOAiQL5M0ZDEY1bL/4cvz8be/CxOZpHBENo1oUyNIUCYuiBP6Y5McetsC2GuxInAUEllGw/95tdHOPX4G7a1foczgoXYKgHKmTixFSyQkEhhuxJTTTFSvtMKigXQlw6exW/K6zE6f9z0/hHXW4+Fvkrg8vCJGkTEwMFV/yvYjY0dGkTJPvQJBNVko1JhQEE+yZEKMkQRnnCGa6+OWb/ze2/+xC/N3CA9Bevw6NqMDQ2Agu23IHbh6p41U//gHyox6AbWkXnh9ihAwCxcWtHDH9EoaqchC8zgwU3G1V9pxksOFgsiaCH5XB4agii/xLX/pSAQj2Y/Xq1VixYoUUfhZ9q1cggCBooGcCWwqcYiC7QDHjIYccIpMRv/vd78QTIY5j+Xl+zX7sk9/3+3bL7D/6Xq5AHyDcy4XaPx9mhHjcwYrxj6YvkmIlSOBuV1gE+b5ONlC0SPc7hg2LYE2sg42zoIiuSiRGkV0pPdz6ze/iV6edgYM6GZa4PtzIQbceYLZRw9LHnohDnvgEhIevBIYGkQhv7iOskD0w0XlzVj33bQV71dl7/uQ9i9n00bJTF0ZF3SZZLgUsZXyPNInS8c8cVJ+XQpWHcYrJ7/wIl73vLBy4M8ZEvSE36qwWysSDnzPngkI0k54pDDDXd77fboudDWiScm0AgrINas1LsEGAUDqBABTEMQJaOQ1G2JbR/9JBzY0wkAVSPK6Z2YbrR4GnfvRMLDr5RJShI4FBLB7KCOmOtxcg2HXTY5hnNHhdkBkQIRujo8sCrhgjepI7wGokbRCxfyZwoMFWB66ToZE5WPP1H2LDZ7+G0Y3bMVIC1SDUdgTNqKhZ4M4+1+e3O0thEVhMTXaAFbfZ8yyjoz074Lu7WmzbwrIS/HnRQND+I6SfA3kwZXj8wpEAqgV+FVEzkZHGVUUT6w8cxb/815nACcchpYBXjI1i1Cp11CshZlttVBp1TXjMTAqk5J6rdQQ9Dahp4DQJxxop5oz8SDUKcY5k1TpcdMbZWP39H+OksYMxRlOqeAZ+HVg/vRNbBis4/E2vxeLXvBJbAw87uh2MV6oYTD24nQRRtQKnQqfGwow32gg2e22b1taei9S7fj1MFlkBMggECGwxMIyJxZ6thGOOOQYnn3wyzj77bDGLopnSZz/7WdEgvOAFL5CJB4IIe10TKJBFoImSTX20CY99gHDf7nF/CY/uA4S/hLN0t8doJHGS76xCPK31BAhKaetUgzqx8UYvUw3i226odbmRuHAlCkB3RrzZc/cR8PFJjk3n/hTuzl1YNDhMLhwYHQQGB4AVy4F6VdT3hCpJN0cYhDr3Lb1tFgUjEpyzCzCMglQ1FXhJ00O0ALIvl6LENkkm/Wab/iOmtbqTskJMs1udY/J1GeYU6BqErTS60sHc8RvffoKHOTq+FKMkv5ugddX1uPw9ZwC/ux5HDI4LXTzrZHArgewS2WtPE7Zi9Dmr7BmbqQXZPtu/U2XG82F2gOK8Z0YZWUiChO+FtLQjNr1MU/Ry0C+jAAAgAElEQVTF9jhDGnlwg0Bep+bQHjfAlk4La70MAyc9Gie+7+1IFg2hDCPZJYvpj7yOel1oW4nFRV0PMhZBA2ICx4PsjwUgMObX0OQ5S7enLAB31BoNJEp1gqpKrYo47iAqKFqcxraf/gKbf/JzZJdcgzGKXdlW8nxUqjXp16dxIvRzyJ2848isPen7oFqBS6tm42rJY+cUB0WBFDqqGaGaUM2BRLbL/EB6/CpKVFDEtgatn3leOM7r1HykRSoUOvGvl7uo+RU4TMnMS2ylx8Nxh2P8GSdj4nn/jCx00GaSY1RF3EnAUc0KA4iYY8L3T7dFMg8G65KhcAMPWZrJ7wgFjUmewElzDHkR0ErQuvpaXHXOV7Hu/F9j0UyKQ9waxpwAYeRja9HEbehg6dOeiMPedyqK8VFs4Up4PgZKFzUec1rACV3xb4jzBGHA1ZnXmczLN+5ikHSOxSplbazL4q5du0SkSDDwuc99DuPj43KdXnjhheKkSJEipxishTMZB+Yv0DvhXe96l2gQCAI4/rhkyRI88YlPxE9/+tO587OnUVKfQfiLLiq7HXwfIPz1nMu5dzLXAzZfmaMiDe0+/31raDN/A5rTNBiAwV0dgYXM/gt1aUCJNpwBLzCz9ORGiTLIYqj+QPLnOG8vYkk15eGcuLTOTfCR9Mzl6Tl/P6/YThk1baR9arzDcTI1o5EQnp73JmIxAwzsbt0y7fLcps0h8+vSggESFhcJG9Kdd51sS9KB005wzWf/G78/7RN4mD+KhW4Ap+KhI54IOtrou54yMyljfHP4HDk0QIhTIjIXLwfoSJQzCw5BW0LA5DrS+qnQdCDLpSAHnq8+/kWOlPG6AmoceSxV8vyTN92ZIkd3yTiOfM+b4T/2Ecg5jRLoSB4zJfh+6iy2MYt/jIKeBp6POAwwRcvgohRVfZWghPHDrKLi+aQyUpVfejrML+tZyLQKmY4gDJHFsRRaxh2jO4vmVVfjttPOhnvdKiRJiqFKFUNRDUmciBg09AOqQud8FtwwkGujnWaIRQvioOoGGPACOGmKgsI+z4Xnq0YiyygjVVBbiSpodzs6WkfwGgYIolBslDtxjE7cFgMnJy2QtWPUGwOojY5j45Zt2NidRTowgqX/8Dgc+vx/RvVhR6GsB+iksYBbZiYwCp3rE/qhMCGdPBOzIwIqye7opIi5827U5OLjZIS2GnIBTdWZGDsv+A1uPOcctFfdjENHhpBvn8ZQXsGgO4ztzWnckk2j9rjjcdw7/g21444WoWRHXpOgTfM1BNMZkE94yzbGPc8x3PUNzIIrFm+2DuicSPaAI4rPfe5z5YcY1MQwpic84Qn4+te/LqwCWQGCgec85zn4wQ9+gFe+8pXCLvB53vzmN+MTn/gELr74YpmIsO01gj/7c1aweG/Fp3+Ft9+/qrfUBwh/VafzT3sztvTL3sS4LooAqwdYiDmO7Lxz47evbgcud0KGkiZtzg8VcJlgI9mFGXjB3dfc88z3xpUqtzsjUeHNzRLKV004jvaHuUNWbd6can5OPW+2Ugbt2GeRpxCqXbOaCGeUOCkQcidZcPytwLbfXI7LzvgvNC+5GgviHEsGh1D3fVGTU4QnO9ck1bYF7W5ZYFjQJD1PxVyFw5FSKfVSaKTwkw4PIzSiCGFSIO505Ge5O2eWRjuJZedOylwAgoQhaXuA7ZFumWGDm2P0+U/DA9/4KngLJxCb3XasFBIGCldaJcIBBJpwmDAPgMChdCSyODCZGmQYhGUw0wbS6SbrYUyAuLJ5ShDhS8Qx/Q44MUDAQ1voStJC+5I/YOp3V+CS75+Lzq3rcFRtAcbdCH5CgyBHGIRWuylZD6hGaKWp6ERrzPtwPCTtWIyoSroHUrri0amSSEz1K+pKqOO5XhAIMEizFN00hhewnRUiIbDjmCUZLLIG1QZalRC3lS3cPLkdCx/+EDzkH5+KpU/4e4TLD0BGkyeO/XbbkrhIG2W2jQq24fxAGRTDplG/Q6ZI2LBuKqCEjpNsPVGbEeYOglvXY91PLsBN3/gOsg3rsXSoisHQh5+QwQvR6pS4vTOL5NAlOO4tp2DRU05CXq8g80PRefD6pLMpLc8FmvF3w8SA/6m7cVu8abPM7IUnP/nJ4mdAgSG/9g//8A/CFnzjG9+QiGfbLiCI+OUvfynTDMxg4Egk3RSpNbjjjjsEqBF4EBhQo8D2hE13/NPuQv2f3p9WoA8Q9qezsY+OpVdfZ8en1JKZm0hlEHRPSV7dkZtrIkOCrP/qLqhNBmNChEB6tQQR/C6p2zkBldm1W6ZCX08/VIhlxGFsiZhd7e7LovkB9iaqx8Cib45Q/YPnhJHW1U/2yDJip68iGgECBWHbKdjkrjeB55UIOhmaV9+ETT+/CLf+/EJsv/YaHFYbxyGNEQxGFaG6425XilYYVZCmOdIkkfZFGJFOZhHLpPiLAZIQJqqEp3mVy5614wuYkLCkIpOIZxZzFkHZfZnBBNlnO0BAwgElViWT2P7AZTjpzI9g7OEPwXY6CMIVar3uhajRTkHASwGELhJJGFR9QcjBSIZ+xrlkajgB10FBjAYEq8hQTYBMHLSwNWw96OuTrZEevMvNd4ZKpw2n3cWG3/8Bt/6f/4up/7kC9W3TWNEYxWDhIOAakUUJXMykbTTp7BdUMD40Bs/zhcZmsQ8aFYmejjPt6RMoUt/BoxFL526CWr2OKkcqixSznZa6h7ouGhUfoeuKM6LrhNjabeOq9nbsmhjBY095OQ46+fEYOWgZ0iqLeygAhw6HJMACghjxhSiQ0HLagKWIz5cQEOXiTyHWWMxl8CN04wT8fpAXaF50Ga78zy+idcW1WJh5GK5XUKG9edxFmeRwogo2Fik2NwIcc8rLcOi//jPygQoK+lhEFTkzFIKSFdF2i7bdeC3JaOyfmG/Aa5SFnB4GH/rQh6SVQHbgP/7jP6QV87Of/UzEhkx0ZPG3Rf/Xv/61CBAPPfRQzMzMiBbht7/9rSQ8cvLB5jsQgJCB4s9au+U/FdTso9tg/2XvYgX6AOFv8bKwiGCemZdV0F0T2wBm3p9aL5MlYIz7TVvBjFNKL1vLuJQToydwcoULdJST7AJT6K1Hv1oOG0bBiOtk48QCagq5EgZmLlC+ZgcBtAettMb8SJ1lEfRhOsUhO1BjaCNtCTNKZp0ZCCp4c86yFBXfRas1g7AaIWRBpphxpoMtv7oIa8+7SABD57Z1QDyLQURYNrwA4wNDsvul6x3V8vSVYNuAO1H2ptks4Kfr+/Ajdv4dJOzFdxNEXoiwVkWSczfclV2rUwkgNLwx/OHmXgolrYO1ymNbPotbwgLHv/n1WPSK52Jb3cMMmQk/wKDjQ1I7ZfKArQk1CdIEy0AAAudZqW1gL91lr1vYILvAPUBO9BL6vTCjD0QmWgbf80WTkKYZqqGPvDOLKlsCXMvN23HHT8/HH772XXRuWI3BVoLFfoSl1TqGOToYkBmgtqRAs92VMcoy8sA0bWZPyAhhV6cAKDAkiCKwIkAN3ECKEqcMKKyMSIdXIgSMXk66mErauHnXTkz6HqaH6hg94Rg85s2vw/BRDyBdgYQBZgGTSjxk3QxRJRS9DtkJsgQxMxvcXEACrZpHEMKn2RgZo8AVAEeNBJ/BLz3RYdzxk5/h0v/8IrBqLR68YAlGqzXMtlsiVByI6vK7c9v0dtwx7GHpM/8Rj3zbG+AtHEFHkh99EWUSYFILQ6BI8CUsAgECY6V5yiXv4U+7STGZkXHP1113Hd70pjeJhwFHGBncNDg4KE9umQMCCQoVra7g2muvlccyGpoAg46MBBEEBWQR+MnWhP393dP74k878v5P7+sV6AOEfX0G9sXr3wVAkH033fVkV+apIZAFCFJtjaJaVO4KCFj8aFvM3Y7Yuwodzl0qxXkcJTSiwfnqLrQ8d0kU04m2QZTXvAPKiIVQ3tKGlb57D7dxJ4W7ihrnhGwSl6z0g7Yv1O2uV+zGXr/QxdRJmH2ztgZS+GRGwAKRSTFkwWcUMAsV2iXSX1+KG358Hq6/+PfIdk1jYViFO9tCMjWFoTDCkF9BjRMc7Ed7AeqkkLkTZ4E2+gIei+cHiPwK2p0YSZYiL3NRznNZWwmjo7THL4BGVPTchQNhWkqbgS2H2+JppMc9EMd86Sz4DzgQd7RnUQ2rqIsxlYPAC2RkMs1LdJDIc1VojiXjjY7oBbh95iQHQYSIRc1Si39Cj3+FsEM5RIvAKQH26GXUUwdghIFx3RKdVkeAggjqml1cetYnseqXF2Fx4aLcsBm1VgeDHOP0HDQGaij9ACkyea9ZkQhwoqCW5k9BTrpdP0VfUjqoc6IkS9EhM8NQEMfF9OwMJqenRLfQGYqwpgpUjzgMj3zx8zHxuBOBoQGxBe9k1Ilwjen4mMOjIJPv1/eQFZlcx2kASXrk+QgLF8NuhDLJ0O52ZT0atRpcXtDdGO2bV+PWL30Vt//y13Dv2IQjJxZjdKCB7Vu3olapwY9Z6APMuA5+PbkaC57y93jiJ05HccACxHw7rotqGej1b0ZuKYoUUbEEegF5ovoQ6jHmBDf38V5h7ZZ53XFygZkM9Dg49dRThQ047LDDhFFg3LMVKApPWBQCxr72ta/h9NNPl7/TD4GsgzVH4nMSKPSCi16QcB8Ptf/w/XQF+gBhPz0x9+th3QNAuEsGwTjIyQidmTzQBoLufHgnUzLYOMzlVKWrsI79c+n1S19VoQBvgKJSEACi3rgmtmDehIbFVIyc7IdWLVUsKD/A3bV1OZh7mIni5Y5cpxj0NcXoxij8xV1SDluBDItCnHZRqdWk6KR5itHBYWQ0zQkCeCl5ecNgkCXYMYm1F16MX5/7Y+y4YzVq3OE3OzICyE+0utKfbtTr8ANfRIzyNrNC2i1hEImiP0liKaqLBgcRlSVarVkFE+JZoIWZxSzMNIAoYMqjH2Bb1saV2IUTv/5JDD3p79Fh37x0JTaYOzrGDNNoicWbRY/hS1xvMkP0DOB0iDaEjN+TRBabdTLnRwqopFCqeJGFNXNzYRCkaBuvqA5Fi4ELn/XMKEOF16FgNS2w438uwvlf/xbi9RvhTe5AONNGkGSoBgEafohaXqKW5Qi6ibBXbLFUvEhGb7O8ELvhlOzMQB2tssCutIsW2QwZ1wXSyIU7OISJYw7H0S94BoaOPw7wQ3ntggCjWlU+SZIq1eBII7jZ9rH+AsopkfnhazqBh7hMEefUcgCD1FQ0E3Q3TGLXxZfi6i9+Ea3rVuGw2igm6hzvbSEOcpnG8Joxxuvj2N5s4ca0hfKhK3D0m1+GiX98HOLQQ5fto4LPGcJhOFaewYk44Kpf12kbAoRU46TpL/AnMgj8HbOtAGoGONXAlgHbCOvXrxc9woMf/GABCtQScEJhy5Yt8ivFEUc6MNJkicyCDX+y/gdkEuw469xv6r4JX7lfb5l/q0/eBwh/i2f+bloMSu9rGZd++Rytr4ukI3v6d6YT8n8pdzmm8AqTYCq68eBB6fpyY7aiQN78CB7oVCddApUMaPEn5WtTDa0VtHlBGYc0zICKDXePvzXTb6bMWaGXKQhG3yDqOD4vg6xMyA8Bj7Qh2I+ngRToptc1x8Ydv4cwiqQHbac4ZGfPzROfz0mBVhvZ7evR3rwD0xu2YN11N2Db2nWI2y250ZdJIhMPMvmQZOi027IrrbNIlsBQN8Wg5DI40orgbD6nF9Qvgb3uUkACWxg0OUqCAhc3b8fES5+Bh3/0dJSVGvLShZfkSClQ9AJhEURn0bPQBAfKuhhvBgP8jKRDd9UmV0DOfapzJFT6K0DSyspCztPWzRlKlKNRq6CaOihk11vCj3wFC+yjs4ef5ZJQWa5fjzWXXIrbrrwKk2vWA80WKt0Eo06AOp9rapcKKYMIWV6inSQSuewNDqDp5ZhxS7QjoDYyhmWHHY4HPvQ4LDz8AXAPXQ4EBcoaRxTJYtBfmc6JuQBUZpFQAElAwUkSTmLwvdDWOBQfEB0NpQiR54uMAt0qizJDREC0dRcmL7gEq7/zU2y85DKMZCkOCgYwnAfCgKQB2xMJAk7DFD6mmh2sSxPED1mBh7/9dRh8wqMRh0DbpVYkFzanUTK6mxeSp+ZlQqKZxE9JjUyllUYdy5+SdrbnNAOZAttOWLt2Lc444wzcfvvtogURFrAoBCRQl3DiiScKczAwMDB3lyQApd6AbTDRhsTx3ARDn0H46ysmfYDw13dO/+h3ZMn+u3oCFa6pkRJ3lBzJUgkCRXfKNRMgSImPdKxP/u9xN1YgkZ296gCi0pVeLgutdBaMp704+NnRQ/7JHbQgE71Hzu161Rp/t43VXDKhAT9mkzvHWkiiohFc0lHRMgKGwVaDIZ+MB/skaiyl8Y102XPkPVBxzu+x9VAtfSngmZMaSYTS7ty5ot1C2e5IVHbS6SJrd5B3MvgpkM60MLX+DgReiXq9hmLN7bj9R79AfdsUljWGpcUzUybymqT7qcpna4Hx3HI4FLfVXFw/tRG/87t464W/AFYepiJNHh4NmETjoeyIUAfs53hkUwj6FPjpDtqsrQWMxqtibsPKNeA0BtV8BCwyE8rWEYFhCdo5ddkSKRmh7LFGSz9/HkgaoSOBF42FqIVIc7izHSSTM2jv2IWkOQuPvhJJgvamzULh+wSV1HHEMdxKhPriRXBGBpFHAfx6HfWxEVTGR8SDg0wRj41/8pjoChoULhzRhjKzgq0wjkoaNksuVbJfggkNi6BGY0WskylxuyPsD2Zm0Fp9O2774U9w849+goEtM1heG8JoECHsFghSxoXniOmTEXHvT+MpH7e1ZrBjYgzHvP11WPKMJ0vc+iwfR4dSz0XoeqjQT2KOUtOpFRHXEsDKCVAvC0mqFLHmH/dhW2y2+Euby8SF290/rZhppkTGjwCAugT6HVC3YNsUckR7hG/1PmevQLEvUvzjztX++FN9gLA/npX7+ZjuEgjYwmrc7uwsvK0dYlzEtoLx9K8WjNhl/z6Dz94s74Kyy6dij8Y5qmdgweUNo80dh1vAd+lzz1wDU1Alx4AFSDUFEl1NN0fWWrmJq4ucsA1m56vHb+lvpYftcRqDYfm36hD0ZiutDUspm0LYS5BIcWcxFNW4jnbKps4BOswkEGMfHXkjlSy7fSkJOj/Bx5OiFjaCa0RKm/bDkuTI4sr1coA4Azj2x6oPoHPplfjtu8/A0LrtOHxoHFm3ixknQ07jIe6FCzo4aly0vAu2LAJgQ3M7fju9FU869R1Y/sY3oKgFEk5EECDtBC4go6gpFA3sxIJOe8h9nptXFiOhvBWBybFbsailZFhY5VgYD64WzImn7SW+d7Z5uGePhHHSlEu1ddY1oQiQkwByiolVcgooicUkicgiRJkQAA2O+Kf1qCZA4fkgzV4JZbdtC5W0tnhtEEiZCGz6EvB4OA0gglGhQ7SwFalAVrihLxkNoq2lEZKjqY2isclStU9udtG95Grc/PMLsO2yK9BdvwFh1sV4YwATYQNRK4UfF6i4IWanplCvVcRZcWfRxWTk4o7BEEe99uVY/tynI6mE8KMqcp/tBZoXMXzJlXAwGwkqLIcAHbP+toUmZ1wlvn/qR68zaa9HAQGB9cGwrYJebQEfaw2X9vQ2sM9pQYh93J96rP2f339WoA8Q9p9zsdeOZI8Og76uoZC5AxRBgNmi20JLgEALW9q/iuGOQ3ObQmbjpzduwy+++X20Zpp41gv+FYOHLKWJvRSWktQ4kx25OyeGYLERuTrjhMkw8MW5S6Ji3JeqwlGzFnSHKjHEnEWXgi3JQqpsFwreTknM95ItUhB63fozyc7SjjlSoGZ2wtYfylgf80hYAHmvltJFhoAeBh6LIV+XG3EWRL2XS8QvaXjjfS91jT8sroKOjoLyexR+ghHCntLZEj+cwE9T7Pz1ZTjvjadi+ZY2jqgNo4gTzNIuWHa8rgjmxCLaRAuzL552WjL/v6bTwubxETz7S5+H/6ijMePlaJIC9nwM+RT7lRJv7YXqjijR3uZ9Sb9b7LcJenjKdZfK0k7DJpmkoOiQY5eWrSlo463TKUQY9IygSRAFkWQNcsdFJgOWOqJHUKQaBuogTJkzI7N8BMkW2jkzRyHPWd5110ydBj0SaEhFcGV3p1xLmm4JdqFuwhhIWSBHvYJtYUmGAicr0lSeR94b15SGVQQSFCimqYwqcnJAfgGyDFt/ezF++cWvYsG6SfirN2E4ztGoV4Cai07VE3BTmU5RL1zUKTiNM2SdGOFIHavyJq7yWzj6FS/G4S99PpzxUcRkm8IaMgpChKEiKLHuprw29Gsi/DX+B+KCwGubmgYyCPfjnUFMvcxopwUDvV+7t2zAnuzCXTEO9+Pb6D/1/bQCfYBwPy3sX9zTmgIqdrdUe9ubhtlFU0cg/dsyFwFcVaYV6OGfo71pO75z5n/i3G98G8cdeige4IVId03iwcccg5UPegj8iSXwjzgcOGAB0KgwRUr5bcngNYP+7G2zYOSJAJFC8iJ01y0+CjLaqNtQtjqYiSDaB/FZUDpedrnWBdDcVQ1ZoL10GxUsAGhe/sAv88dM8rMUARZQFa0xoUnZEe6QxEFZjkGnJFh7CADk9U3BEptj7szlpq8sCyc02B4QD4VSnRareYFdv70M573+VBy+PcbKwpcd/bSbIjWW2AQHfJ8sJLQzZoELCkZt15B6Ffx4zbV43KnvxtJ/fznSQRdTEhndxVC1hsEwVBDDY5AYZGtWra0bMbgyLIK0UqRAm08CBx6zXAtsEbD4GxZHfpYFmGdIwQKZH5Zzj8Ffhulh+JNdcisv5Ygi9/KxSBzUOllGRMkq+K6ac8qpog5mvv2eUTdiz685xwQ7VtvCa4ZrS18DXptBWsCjRoQC0zCQyG56N7SyLjpJBxUaVgVV+EkB7Ghi8n9+i6u+fy7WXfEHtDeuxwPcYaysj2NRtSGgeAYptrkJOmkiEyt0o2xwLHG2i3qthh1RiQunN2L5i56Fh7/pFBQTo8hD2mQzVEFHhxWlqOfBXOG1bJahoeguwndKrYJLW2xHXCj2+9vJ3bEL9xZg7Pdv8G/0APsA4W/0xN/pbVsGgQXRYe9Wb2KUFwgbKvPr6jqoxYXufgV88ep3kG3ZiV9+7ev45qfOxFE72zhxZIUY6iScJa8OIFg4jmy0hnK4juricdQWL0Bt6QSGDl6KxiEHwhsdkl2dG7BC8EUDpReEdtCJA2kBOIW0Hkw73LjcGXZBNoJqyayeCvo/2cGSsDdUtO5p9X1ZJb+shzAb1FQoU8AP/pfsieyy7ASHqOE16ElGPWU3Sy5bWQoDbeTYrBug2CXToAfAdJfTCiVGPR+7fnsFfvq6/8BxU8DyxEGZpmhGZBCoIdAxSxZMZjawwPE5QtrnTs9isDaE23ZNIz/iMKx4+bMx+vST4Awx6CdAQn8GxxXPA2m1BL5p25g4aOYboERIl0a42pcXgSqZfHUzJHvDaQKHEdTCPmgwFVseArDIJomjJrUpuQgM/YwCQbMUHFs1dIyut66VPpeZaqEGUtgMOxJrYpat2ZW0rWx+B6l4Ha3M6GYpWgK2swhKmMuQIXIdVFwPIScjUrYN1IkyE6RUIqD/A99kkko66S3nnofpK29E57rVaK+9HQvDGlYuPgBOpwuvk6JWMnrbwWzawaxXwGlU0c0yDEQVMaRq75zCrAfcULZxwHOeghPe/m/Il0xgJs8QVeuaxEgBKtsjEtBlLMp5LUp7zRZ/nQFie0YSWSn4ZeuGtt576R61Z5HfSy/bf5n9eAX6AGE/Pjl79dBMcTPzfyqaMoVQ2wx6A5PkQskbYIqfj6LbRUov9koD6cw0zv/MF7DrM9/B0ZVBoZ8r7J+nGTbN7ETHZ2YAMJV2UfgBisEq/AVDGF62GI0lC9FYMIL6gjG4g4MIKiOIqqMIanUE9Sr8Rg3BUB1uI1IWwiQZzq2RGa0SoaQp6NYCSP+tTIXS0SYMaG4ywt6s1fhJ1fyqAZAfM+SDPIexe1RgQTped9fSw+/ROtDrQXf+qkRjMSul6DuYSWmpnGGYs/y/uxI/ee1b8NAp4IFFiKTTQTMqkLBNwZ1wrjbLAtBoTsMWSFFIUQ0TF25QwarpaeCBB2HwhCNRO/owTBx/LMKRYQRDA0C1JsxD6pbSA+8y78H2wsUq2uAx8cCgKI5ASo2y2BShANFjG0DMfHxJfaTYkpHh/NTZPFIwufb/U1ZwXTuhSehCSD8MafnIgijYMzoDtgIcWj/zPRIPChgwY6ksombEQtpi5nwRFJCFEPUHxzalLab222zf+CSnOBEgLIQaEsnrtrtIt09i9o6N6Ny2Bqt++EOsu+ZaFLuaONAfxIqRRWgEEZqtFjpFiog22FmBiBbLCZ0xAXeojhlpAUDG/tbt2omr0x14wAufh0e8523Ih3QcM2eGh6vvq87zFqcI+TWj6SAI4PsQ1kXkL5rroNM8vrBMbDIQwAnJtldvBv0X66+ArkAfIPSvhPkVMII+vdvOM/LW30B248Z5jjf5wPeRZ4lkCtBcyadnwPQsbvn4F3HpOV9GtRXjuEUHo9LKRK8wNDgkve2ZdgvNuIOY5jQhMJsn2DU7gzhNNJGSo27VQTQGhlEbaKA2PAh/ZBDR4jEUowPIxobRDkvUagMYWzQBL6oiajRQHRhAODwIp9FQUZsBBTr4Lv8wNK/5g/IGFiWjcrR0KPMGbAol3zN3xkowaNtAmAgDOqRfr9y3YRg0Woc7Q3la9vmpnGfLwrAQzE3o5qkAhOalV+KHr30jHrI5wwOKQGj1Kb9A4msMt/gfGLfJzHXQEcfKUmyHwbG8OEUnydH2Xaya2gJnwRAOfeixCBcvgLt0ArUVh2B0+UEYWH4IMFAXfYdMMwTMkFCVP/fhLO4ylSLbawVJLF7iZ6HxUTJK6WYEAVrIWdD5Jl2/1OkWxQkqOtV9urSFCA7UmG2QM+wAACAASURBVKrUFo3QD0YgYv4UxsfXx9ozJfyLGWkVDCB/N20mCmRFAKmPZheIXg0CEFjIrQkXvSE2bMG2VavRvP5mxNfchOZNt6G5dh1GGBYVhagODsq55ZgmI72F+ZGWEtmVAlUxqspkRJVvbZZBTtUqtjgJVns5Dn7Bs3H8v70K2eggctoVy7ESnHBigAJVbUGp3kBTTCWSSwLNCBC43tQj6LVCJEKvCpEoymP6H/0V2Dcr0AcI+2bd9+2rWpWi2ZXxD/slHa3q2a8IfWDMiXgTlzs1e+8ekjSWmzmBgia7cddWAFt34sovnINff+0bWNJycGRjEcaLEPmuWQm3oXlQ7OTivU+nOzmMNIUX54gyjZ7uOAU6XinOhkkWo13EaJcZ2sjRdQpMprOo10axYNmByIIQ/uAgKmOjcMeG4Y6NwhtsyKhg4blwowBeFGJ0ZAy1Wh2DjSEBHe5AVdkIJvRZQxrpFOhInB6YKfKSU2AidA1AkPE6E2nNwiXrpgo61UuwgHFnLNMeOuHAnj4ti9t5ihHPR/eKa/DjU/4dD9mS4YCueCtjpuKKEZBLBiYDIpoRcdfslIh9NT+aas0iqkbacy/VwZFK/W6RYTJtY0veRKssMbhsMQYesBKVBxyGcPFi1EZHMbJgEYYOXAIcOIFygKOCRsBJKCBj99peoqOkFC0Zc1TgRk0IDX5UE6KUP3fDWrxVE0JNhiyDuDLq1ITM+Ru5CXUW0os3EdTCLtDSeA5o2akVbUzIxIqJAqfZVM4UTBkHdMGRDqHxCUK4y+djZ2cxuXoNJtevx9TtG5DccDO2XXENnPVbsKQMMOFXECU5Ql7DFEgOVBDXfMxS0JgBg14o4IviSQmQYuuCTAotoHlB+B5uT9tYVS2x/IX/iqP//bXI6hXkTKUsNRTLk5aSgk+ddVHGw3ppKEmlHBU9RyxTdecbg1ov9z/6K7AvVqAPEPbFqu/r17wbgCBKeQMQbLFjWJMa3pidn4yXlXLjY8gOn4pRwHLjY5HgzZQK9Ts24IovfAVXfvnbODKvYYU/iLDZRYMWu06JVkhzGdLmukOP0hK11EGNvv/s7QZA2ghFeMZ+Bg2L0jKFH4bSK2fRZZujG2fopJn01+m1QLc/brkYK9wtc5mEKGm2E4Zo1BriGz88OIz6yIgABDr0RQtHUNaryCMfqPhwqhV4/KxEYipTDSuoD45QRadqxjqBRR2ostXBnnuqf9LBzxgEGZ5c2w9SIgzFzn443ZuRicjNvf42/OKUt+Og1duxLPfFnGcmKkGmnhR5JDkMTJs045+hi6LiI/cdbN81iaWLFiGZaqJodjBab4iocjpuo+mkSAMPRUSWp0C3k6HwAoSDQxhevBTRgUuRL18Mf+kChOPDqAwOoLFwHOGiBcBwA+A5Ncp61aQoI8B1l2tC0ha19BH4sHCKOl9SKMlJUFSgts3cEVvNh+gz5BKiCkE/OFrK4jmX9mmAgwRISfF3pPgHvmog2OLihzaAlLaYXb8ZkzfeBmyaRLZmI+644mpsX70aXrOFqNvFQOFgYqCBsUZDJm9aM9MYqFRRDyNxtCSj5RJoer6wXJx4IIjlJAptJGijXRcBZokdRYxboxwHv+hfsfIlz0WwdAKZEyITbwO2Z1zBh3YqQRgnsXFWJsZ+WCB2zwDBgLF9fc/ov/7f5Ar0AcLf4mm/FwBBd2zqyy4AgZ8UnTHxLk/VApapdVKs1VmPY4qkVZs7t2NBVEW6ZQeu/fSXcOtXvofD3BpWNkYQ79gJp+Ijrgdo0dqez9dJMRrVMOZVRXxHhzsChJmSXLYWFI6qSWgPBWm5TlLQoIl/D5xAGGsVCiZmxJK9bxZjyTWU7S1dBukrnyaZHDcBROwUcKMIM2WMtlsIQ9F2SyQiwlPnwWpUwdjIOPyogjIMUBsfxeDEOIKRIRGttbodjI6P44BlyxBWqjImyJl9ghBUGRBQBcJIAQZtl42zn4xIrroDN5z2CQzcsA712ViKa1x1RZBIBoEtBn5Sh0BhY6dMMZN2MHHgUty+cQPGxsbg0kGx1UaV3Doc1IcGUEYBdkzvQivuYhgBBnIXKUfyXIoVHWxIWtjsp5jygXbgIGw0MHLgUkwcuRJLHrgSo4sXo7HiUIRLFmlAl9AMkAwFgiHRE4iglFts07wx3hEytteboyF6BPOLJsK8ngvQ9BMEXBoRrLmY5tsUPIHs0YhnAymZHIi7wOQOpNu34aILL8DWVaux5bLrUN/exJI0wEQZYtSvoOH6CHicTIpEhraTIg7IYnniPFmPSzSSEl5KDYb6T5QVH13fQWL8LAq2KdpdTIwvwK3bt2Kdm+DQZz0ZR/7bK+AtPwAlr/W4RJ6UCHmehYHRtyxkibRhVOwqJlJGI6OXpRl57F2TPe5J/UmAv8Wb9P7xnvsAYf84D/v8KOZaDEbxLzcve1TSYjA7GatTkKwDKs+NCE9yD/Ru32zOwEsSSTvEHVtxw2e/hCu+9FUcGJc4emyBGOJ0ixTeQA2p66LbSZBTMe5FqFDQxRAY9l4ZWiQBQ9qGEKxC8Zm0OtTkR2blZVdbiEudTBbIWB99G7QVQvdG+gEE9L/nbpQ7OVHXU72fC8DRpEEdJZTWhFH1s6/dbbYEmDDSuZ3EIjakXz8VfnyVVqspLArDcBiElBg72m6aSdgOX1+tH6hSVyV75AcytTFQqaPWybFsYBSdZgsZnSfFuYdGRmy3MLDIOumxuKQSd+xVQ3kdMit8bxwF5Z/84LGwqHdTTvxrgJOGK3niohfARztP0KGCrsJI6hSd2Vl0Oy0BTPQz4Pown4LrWa3UUGsMojE6hsHFS1BbtAgDBx2IcOkE3AMXA4csA8bGTAy3AyelkpEZAj3AwGz25y50uaDMv6xWxBokmTFRGVdotoCpGRTXXIdk4xZsvflmbLrpRsxs2oS4OY203cHihQfCdX0ZDax7AYbKACOZh4Z4K2eynq2oxExQYJaujr4rmRZBN8NA4mAopSGVnvN2GaPrZPCjyIBSB0leIo0CzFY8XLh1LR788hfhMW9/IzDeQOx7mI0TuHGBkYG6Tv1oKvo8RrIg6J5+y/sAYZ/fA/sHcOcV6AOE/lWhO8O7WIc5gGC/2XuTtyZDlLgZiTl33Oo2XAglXOOMe5LD2bID1/z313Djd76HRVNtHFypYSQIsWtyp+y4Rxcuwdbt2yWG94ADDkCn3cLktm2oVipwfE8Kqx9WRJQm7oKeJ+I/cgPCc7AFYchb7gBJvxME8DjY8/cZ85yX0rummNIq6gke9N6t1sos9/atKu3LXasZipSAJ+2t80NcIgtCIqOp59hdlgmA4fNqjsV8XLWRaJjdZQmH46Hsn1ciDNYHJSVx+64paWsQeEjMM4uW8YwkxU9jIlG0k3lJE8ltEDpc0gqlOz7np08ym18jE0TvCqG72UKiKp+ji74rkw1U2jt5ipBrTHEmjYSYMplk4kkhbokcu6MuJM/RhoOO56EdephxSsy4hRTPIgqRiCDRwaKJxViycDEGRkbk+TpJbFJC5+OkBfDJp6PAiQZJBHJ5gU57FjOTuzCzbQfiqWn4rS4WVasYhoeBLEeYJGAEU933UfOZuljKtEtaDSUumyxD2C3hdBJU/VCEna3AQUIwFLhIOSGQZIgcWh67iBJXvC/4PpMyQZzHWHjggZjeuAntToKhZQdhTdzGZVObMfHEv8fTT383iqXjIiTlyKYmlAJZksELxRhDvTvmwLT18rx7MUFfZtC/Ee+PK9AHCPvjWdmHx3QX3QdjcWw9BaQz3HOEagokZZTFyNoJcHyNPglsTbCAN1tY88Mf47cf/TgW7JjBsSMTcKabMv9eGRiSPnSzGyNPcwQ+d7oiaJAbsAAPtgpEC2HCdXgUdIEzynjbj6a+gT1+7oBFxGZyF5R8N6ObZt5ftrACIvj8+v4kr0EMmOzgwzzjYEVlVlBWFJkUJJluMKOTwrywUPI9W3fCPT3sDYCi7S8tnGk7TIEhWQaG/zCoRxIRqbNgXLQVTcpkhKI0Ah+CA2FaRBhoZjGN3wILrjjjyXuk6Y4yQNQQkHXh+nTE5lJ9B2QskCp7QjAyJPCQU0TKaQoWv7xEN03RZggRVfzUUlCgScGgWCqXUnjJGjDS2nNDWVP+jHhFiIDT5FuYlE9y7zqBWAowGBsZEnEfNQHdbgdFlqIWBBgIKyiyGLT3HowqqFErYCglaX3JZE0ujFHp07pJXTnlKjVmWuqqaRyxRPPA64Tglo/SWQLRURSJjJEm3Q7cCsWLVaxOO7ilSHDsa16CE17xQhRjwzJuypFF6jsIOs1wgmZRCJvl7Wba1UuY9ALy3YBBLxDfh/eA/kv3V8CuQB8g9K+F3VbgPgME+QGdQ+d/eMPll6jal56x7yJPEnhpiijNcct3foDr/vNzqK3djAcPL8CYG6Lb7uiN3Q/Rmu3IlENQC9DNuygo/CKNblTrEtlgVOKyi5/zPKCqXV+be3r+XQqnjI+RcWcRVXMjfljfeLolyqSCuVOLqty00BX4qJsCVfZKtegKybidcQwkW2FfW8u5mippnLXO51lBmr6Yrg0BD/vStGCWXnRAsKHFTkq12Cvr62m0taIWHf1jcVIQojkVOsqpU38KauTnTMqVtam2jIhYHXOlyCBQTiCeATpxMMeSGAdGFjwxW+IOn+dC4qEZ2OWgCg8VUhqcLqD2gjtqP5Dz32zNIma7JQol8lrcFM28ok59uBpwZc+p8EDGmdJz4PscXyRYBCKmJqapBDhlmfEbNOcpCqlPyYUl4roza6EbqPdDmhWolK4IDINUmSKaTWWBg1k3RddzxQ6Z//PjDAOcGKEg1AO2eyWua+3C1AFjOOYlL8AJp7wSZcQJE/WPFMdN/iQvBfp98P1RK8FTQN1Dj4fDvWII+gChfzfez1agDxD2sxOyrw/n7gCCTC6oEkHd3/bcEonCTC1y+a00TeQGSQdB2UFmKeosJK0Ym8/7H6z+/FfQvOY6HIQIywbGhA2YbXcRMbrY4aw5zZS4AyYLwN0t+7o04VHLXbEGNsmPMrsvo4c9BjmmeLDfr4Ny+s6s7f5uJIjxLehde72hm/+aWGSrxlNSQvvrNOeZ09/Jj8z5DJvmhVkXw0hYVb7055kgKHkIxqdB7JW1F25fnSCBRy95DAReJnnZshgKHubb+dI+se/TvKFSZu2snyQfb6Orde5elm9OV6jnj88vroM8f1km9tfUZjDZkeyBMC9FiQp9Edie0T6TsCfMb+D5iONEWwc0xepxadQUQPVBoIsjDYRCN0QSs02j4CkIyUQ4SNIE7bgNNyBAmU9u5POLaFbonlKOgeZRXF+OLra8Al3qJx0PUeZgIAWqHDYhS+I76DolZv0CnYqHVpmJIVQ1dzHmRqLVWN3ciZswi/KBK3DsK1+AlU99EsqhhmRRSKOLNsviU0BwZ1I01X/bLJ6maYqfgr2w9vyd2fOXfQ+A0McL+/pu2H/9PkDoXwN3WoE73ZjMjW3u/taLIubr6PzzlEC301HjoNCXiQDu+TguVuftstlF54rr8Lszz8b6Cy7Cg6ujeNDCpWhu3yHWwGGjhk4AxNzdcnKBroEsJgYkiP8+Ex9dBgfRmlaFhbwRsxhEuYryrL5AC6YetIgEbQ3v+TdBjw7azbMJOtpphxT17cmGV3bTCgtkpt/ggt0X0to9WwdB8zh5fgeOb0ZD2SYRRkGrsg5F6nNLsZeCb+2iDTDpeSE7LGDpdPVvmN+vCjAy4M10J8R4x7IjtmHUCzLs03Mag2OTZG+khUIAQ2GmZEJQKuGi5gY62phlaKcx4jQVJiLwKAhVVES6Xdswts1jDKc4BkkHwZSaAPbtmUWho5HMZSD7REaG4sO0pGaDZlS6M5cVMR4UsYzblsISifmTTAs4IhDlyGzEBkJaCBiRMUYGgdHgygG6Xik+GZLsyIjsDNgWd3B9dwoLH3U8Hvb6l2P0MQ9FMRhhOiPC0GMkqKGGga0OtXXQxFCDGs0x2vNpcp3nUq/u5qbTRwT9u/F+tgJ9gLCfnZD94XDuE0AwtWi3zRG98tMUBUVuFOz5odgE0z6WO886qem0QLbqdtzy39/A1f/9TSxt5zhq0QGoAZiZnUaXrQlSx9wZ5g4iGXfXSQXqEZh2mPFTgn+oVdBRyJAAgQ1iKdo2qskChN35EZnjN8cvPWTzbf2a9X7o+RkTY7znDl1fq5dHUJ3A3HiazL/bjAHjieBR5a/9c3HRM0mEfC76H/DxZEaEJZG3o9HKMtGwx050t4lCA2nsdcSHqsvAnPG0OjxaYGMAidVd2J8TXYGEUhnraTOip1kBGgGs7ZtM2yPsA0haoSs+A+IOyCgnY98sh8xxSZPYqKQP3yDbUbmIIsMgnNNtkLVgtgLBgIgtWeyFdGELRr0YLMjxAvpTuEgYky3plA5CHjfbCy59ICRmSkAFN/kEGQQPZZpJ6yPN6XYAePU6bti6Fdfmkzj5xa/EYc95OrxjDkfHiZFELsogFOOu0IukLcTX8HJltzg1wuNTqGISKXUGxyypQXv31GvoA4T94fbXP4bdNiD2TtFflr+ZFdjtPnQfbkr39NA9AQJ7xSVTDOkrz1576Etg0FTSReS6GHQ91NIc/rZduOWcb+H8M/8TB8QJHnPwYXC7Kaanp6Unz6Q/ETuKMY8yEdKBJrXPGXwWKgnwocmTys3ENri30rEhIFS9fthbtnzFtCn4dQsQ5tTndsttfs66K+5ekM2ucberh6+kr2IPZffnVMGcSgF102l/DW3Dgq+lvIF+0KHSsgTyhbkpkvnXkC8b6+Hew7HtCLIoVtPAXbQ+jRF9WmGmMvY6OyH9f5EDzk1HsF1EUKZZFdz9ZyKW5Guw2LLwWuMfVl3RidjsC9n8q4CTLo2y/AIsKG41wWAS1MXkZS32wqqwbUFYI0DKBEpJ+Bb7/8avg5bRRizLtggvBoJUHk+aZwjCilpJE4jwubIcNYI0ppfS66oa4aptm3Bb1cOJr381Dn/xc4GFo0iKRPwT/GpVRZkEH14kEyY+BYq86Lg+gYsuO2hivZ2j7oaoyeTJboTO3Gm5D792fzP3pf4b3f9WoM8g7H/n5H4/oj8WINgDu5t73vzNryjR6bRFaU9vgA7zApgCWY0kzTApUlGMN2TMrIDXirH93J/h/DM+js5tN+Ho+mIsq44goPkMlfqBKuZbSRdO6KFeq6NMEzFYYh84YBEzO96EIjVvnhlgKaatAG/kthc8BxCMh62sh6n6c5R9D3EwjzfMbrpHatBL5+954qy0QNIljb+/PL8xBJprBpi2gPjsWaGgFU2a41DwYov6/CtZBmQeiFgYNA+SFCCo0yUBAoucDZYSQGGKPR/D15FPqvwpBqS+gEXYGkcZHYDkFPgeAteXCYQsSRUomOfiEQrQoO6ERZ+vKWOqOh0iAlLxnOCuO5cocbo28Pj4emQNKFCUj5ypjGqYNZfmrSdN9utZN5YXI9gg0OJxkNGIahVxpIzZouAoZZKhwlFJJ4THkcQCkvK4I29jAxLMLB7Hiuc/C0e9/lUARzeJcIhLfIYnZcjjHJVKTe2mORYpbQXtWfF56AzK6zzPMzT8SDQ3fYBwv9/O+i9wP65AHyDcj4u7vz71Hw0QepGBqOZ3p+y1CHCXx05CpqmAnie0LkfQWJhtoUtyfl+V7RHn+7McG3/yc1z33R9g8qJLcfAMsDIcNtkFJRLfRaug02CJahBKlG8QZ6gVnqjpRfHvuZgNXLTYUjbMAEshtQv205ZZ299X7YEJhu4xt9GCa7rKvW/zLk5qL2HRgzV0wkIKYs9o6F0Y4ohj4xxbsPu6Wh3E/CGY55Q3Mq9VsP+cPyVz0ri5iQirZ6B+QnfbZjrC2CjrO9bETp2iMGoIIwCVCQuzLNZ6WwGPeaxJgrRZDGb4T3v0wpJom8SOkPJc0mqbOhL+aS8v26q3wIbTCWy78HP3IVubj0EMYZIc6Vbp0OQpRYeagWoIpxpJ/DVduMMU8DtkD9i28LAhaWK120LjhGNx1Av/FWMnn4SyWkHJ7wuw0/cs1654eO9hGmLSPe14LbUSRZGj4oaILINgr5ke1mfPy+ieOg/7632kf1x//SvQBwh//ef4fnqHu1dNnbKzAIG7wPmiZ4WBKsMnmaz9Wu7uOGqHLEHdZUpgjnjdBqz9/k+w7qvnYmjtdkwMjsCvBDJiJ9bOnI5IU1RoAkhyIS8FILAYsdPcItVLxmFudFF7xCJwNAVbbvhys1ZfAWoVpM5JtZtX8fdS+laRbgGAlE55+Ly50l0CBUPd28Jq8YEN4OnlBOwz9RaLXmVD74nsfcxd45deBkGZgbn3TW2Bea/6nLs/tvd9K8NghZK7F0fFBspAiJ6AH6LH03WkmM8QJqb4W12HbZFIRqT5IR1NtcciayGMhp7bXl5kbp3MgrNdwhwIJDGiMERQq4i74Uy3i3aRojE4JMcS5C4iLxSB6bodW7AljJGOj2HZ007Cymf+E+oPPJQZzkgke4KOk3wPZuHElkNHZSWEyeCzORGpuRxEICneHJrS2IMN7qffw/7T9lfg/luBPkC4/9b2b/aZrTWyCNlsTSGNkOsNXyyNSXVzgtEpkOUZIjHn4S6vQDk5g6kfnY8bP/8NrLn+WizwB7BsfALodOEmKcYHBuCmdPuL1dTIuNlx9j73PUlCnC/W8yVYRwZ7iXrDEBg3JftIGU3bgyCZnygwFPyc/bEFF3tqAeZLr52asEWll2XYGxeJ1SBI/TbA6a7GIXuPS0GCKdhiVmAmOgwasXMVnB7RfbbRMxg+RkdhLbhQakYzGHTNVQNBZiBHWBQIDAth18OOo84BJPMXyTLYY9HSskCVAlX6JCQpuv9/e98WJMd5nff1dS57AxYXghdQvIKiKIqhZUchzcRyUoqt2E4qtuOUq1xOJQ95SKrynMc85TUPqVRSlao8ppJSYoWRSrKq7MSyFUsiZVOiLqQowiIhgABIALvY20z39CX1nfP/PT2zC3IJLDGDxVkKArA70/33140533/Od77D4/b76C0ty+yNbHuIgMPA0gUE/T7W0gp/+rM3sPHACn7lX/1LPPybv4Lw6JKYH0XdLgqOtaaFN8lJU8MR3y65+Zx4qfM9lDjxD2LE5bIp8i1pw3RdMW6945zO7bjrdg5D4NYRMIJw6xjeJUfwoX68y7vRhftaNAmCmAVRpEiHOdaexZ9fSwJMHYt9MQNyJ8KQavKgRkI75Y0dZN99DS//tz/At7/wZRwdZPjU0ikcF9MbfhgX4glQJSFyV9agXTH78Wmaw9ZI9ctzmQo3XY+rlxkHXpXvMgfNDtWl1X2qXuv2k1e6W6S4GwkveGwHvHZg8zv66azDR/0wta9n78zDeAXT/grTayMu6kXhu0ZcCUAO7AR6rntAaFnjSaEEQcs/dUMQJsos7mR+vT4D0xAc35IqZyoQ0OQo7aEOImxylkcYS1ahWwUodnawuNDHtXKEb2+8hfWlIzj1S8/jhX/zr7H0wEmUvVgyTjFtm0k4pfQVuqmTU5U05jziWkWx0qmimQIhCM4RUv6FSDumemV4nK2M8FE/3Xb8g0bACMJBI3poj7c/guBFYpJiZi7WTYNkWpdtbjLZjkOXikKCtPyZSncq2TuJiLyuba+hW1Q42V9GlAd4939+GX/wb/8d6jffxvOnPob7O32xxN3IB9jhZMleh7kH1KMK/TpEt9Sgw2NzxzmKgJxmf07hFpf88Nfr8cK98W0bCxGng3fjsDhFGqYJwzQ58JvxeSEI/lqnic/0o+s8iFrZmPErBDeXZGi3iopuQYCbnLugGIwxl04I6c7gvdISkMfJ/anRkXhS0KxbRkSrBTePKabKowIJXR05cTOIsTMYINvawUq3j4V+H1cGG/jLq++gOHMaf/Nf/DPc909+V/QJBWdSqB+iPKuidaDPg3vc+Qy1v3hpRVRpRwOfXwoqnQG2ZL8o6nTOmWIByS9jBof2U/GwX5gRhMN+hw/s+vZHEHg66Txg3ZitiSQI3Dw6csCfkxBwt6U7VA7rqTEsco4hRNCJsZXnMvymgxpdqs2DGNlf/Qzf/Q//Gd//4hfxaNzD/UlfdAvsi89KSiADFaHVEdKKqWGXEndpdWYmqJhnsFE/gVZbozNe8sLEpr7sXCO5TumEcC12PAaFdSyRTBzHMYB2KrkpsUzdh3Yr5gcF6nbg3E/2YlegHzdpOOOlvR+K3dkMV3RxP2jaQDWUj+vwU4fTkoZT742LTM2rRH/SFCUgQ6KY1fHlH8Wfzo27szd6Zj+fg0SBXQo10jBClI1QDwboRiEWlxYR9RZweXMbFwc7WOtGWH7+GTz7z38PR577BVT9rlgmD1mWKgsEeYl+nCJNIzZNoNYp1jKXwacAfNWE94sEQSsJShDEwkqcFF2nhs8gtLExonBgn0Z2oNuDgBGE24PzITjL+xOE9oz7domBswakVbz5cHTiM2oQWHrgjitKdDwBUQpDDmdESUs7viYfYqXXQ5kNUV64hJ+++GW8/oUvY/uHr+N0kOKRI8dFl8Dedjr7jWoKFENJGWvE8cOdfA89W+n0hzr4yc1UkBHLOkfBByFfZ5dQ1/go6JZSVPeu60F/vvdmsU0QJuPD2ONgPw+HD963ShDe71z+evzvuvlt3zzNl7eMqwVjJV3jK9XuB6VJkoiXCx9fvZot0cnQZxoiRLVKEZ17xFgNGbiAO9H94WZOaANFUwLqcMeeDRCUGapOjPUgwHeuXsaRJz6Jp37z1/Hgb/89BA+fAth6y8FMiGXIFLswKUgUy2uuM+H69Dol0+TnU7hWT7aiun4O11XBq1WbZT2GKzGodeQuY6v93G97jSEwDwgYQZiHu3BHrGH/GQQKw/gVJ4m0N+ZM94sfQaCjlyUUS5c5RswkUBBW0e4glN/LYYkwDlAlAbJiiE4nRZbtYCFJ2SKiQgAAIABJREFUEGxu4eKfvYxz//1FvP3VP8b9gwAPd5ewxKxBXSNLIwzEtEZ77FnTYPo65XlkCJIbPCQf6dLkrh/oDESBliVkhU6gp5MkNdT5X+PQPjZfavMfuT4/E8Hd22nlhpKUya+bCf77eXR0R6+vvJHuoNFgtA7YXo+QJS+6a34wtnH2tk6aURnbVlOEqqWFcUaB35P7LzBzQJNMNWhUnrpzH2dtODvCzwJpEyVyupijnaVdMkSeskOhwvWddbwzWMPVNMbpz30OD/32b+H4LzyL+t6jyEK219IeOkVNUw7pSghQS9arRkRDL2olQj4dfGa8TbKSBy1J6aCpSd7r2k9904MjBxOv2c/NstcYAnOEgBGEOboZ872U/RMELTHoLkpIAPvftSotwjFPENQA2O1HhSCoAY2fiMc0M3vvOVK5oMqAXvv0V8hrFGfP4cK3X8Xg/3wDb/3ZNzG6+C7OHLkHD6yuYmP9GjZHHPzUVcEZR0gHAbjDpAyBgknOBCrYL8+xxRJkNCC5Pa1mEtzfxzRgkiRogmIy5PpXtLse/H1tB2odVHBjgnDQZMGfzZdPPFloiEFr4NPYe0HJkbbycUjTmPgoOOqZQKGhlGGcGZUnEvpeHW3FkoM4TshIaAZgr/Dnk5GKbmDE54YDoKIUMXfuLC9x2BO3+BwDTbMikoGaRkgBemmKejgEtraQLS3jjRB4c2cdWT/CUy98Bvd+7rN49PnnEH7sIVQpu1sq0aF0gpg1Due4qe5L4vhIEpvqmGj+WSjARI3ID73Sll5/59vkUB/8MRFrv8YqDPP9CWer242AEQR7KvaJwP4JQvuAbpqvGga1fvnXtMNrs1F3P6QlrySq3XhdBgexvXc7R2QFircv48If/V+88uJXcf6Vv8AD+Qh/68GPI+0v4OIbb6AXp0iSBMPhQD7UOaxHJkJSYJakqHupTOhjXcNng73LoJrzABQ1us99IQQ6PMlbKesVyP/76ZKtQNrWF3iCoL/vDhfT4saDJgn+lK3OvSbx37aZ9t0Lkj1p6v2akdFdPy9YAyjbACWIS4ZG7aNJEPg6TyK8qZLswKV7hAgzY8MXsYKf8EhNyYm22swmyRCossDOzjZSemHQ7yCN5RcnPI6KDKtHlpGUFV567118p9fFymc+jWd//e/i4599DosP3gd0YtRhhLyuZapoHMYyQ4GmGToJWwmCkiAKDPUaxobcTonpyiE3zAhMPchjKqkPs8+f7PMfm73MEJgLBIwgzMVtuBMWcXMEQa/MpWdbl7lr1+UjsJ+Y6OYuyA6VbXStFDlbzOqiRCIZBaDeKbD5+ln89Et/iB//ry9h/c1XcB+W8MTqvTh95Bg2N9axNRyIkVIad9APYnQKCho1KAyqEUbdDjLZWJbagldLKVrGAyfSFqnCO0k/S+RWgtBuV/Qteb79b68WSf8ev0tv3/lZEAQPu1+PF11KJkWiJmmAyyRwhEFDfrS8MCYWOqSIgZCiQ1X/q721+ED4KZgs/VB/4Gr77B6oaUBUAAtJR5w38xoY8DVJhCqskWUD0ZkcTRfQ5SCrUSE7/a1sB+c2LmCrGqJ89DGs/Nqv4cw//kc48tQZhN0Ig611dJb6kq0oRBtAQyWWF2Idy6wKCZ3nIeMb2BHRGrLVPLlKbScyBtNMofXDvco4lj24Ez7jbI3TCBhBsGdinwjcIkEQ5VubLtygIC5ZAu72tDQhe0ynTaBiXA7hWuwYg/LhAN0gAv9jRiH/1sv42r//jzj79f+HE1mJx3srePDoKo4sLmMnz3Hl2lUshF2cWFhEfn0DO1ub6CwtYCi6Bdfb7gSJ4sDo6+kMlE1ZgIGPUxj9YKNWAGwZEbV36rv+4XnZnosmuwJIK+W/zxu0r5dNZxH8m3wLZ9v7IC7V3lhIAss9rLuLfsCVhVxKyNOlUvQGxKzdIaLmWL4lUrJArs1DlApVJfMe2B5Ij4w07aJIE2wWGXaqAr2FHo4tr6Dc2MZwbRtxxamNNdZHQ1wptnAtKnDq5z+Jz/zT30P3858HFhcwyDNUdY7+Sh+jYiQW3LxjXAefpTZBkAFQoTp7KkFg9804xHsDKD8KfILYtm/a+xAEIwf7ejTtRXOIgBGEObwp87mkWyAIu4q1NxB2N69jCYACRgacQLQM6oWvbZGava5lF1qHHORTIGaa20374+71+te/iZf+6xdx/RsvYfnqJk53V9ALUxkXPSoKDLMddLsp+ot9DPMcNSdL1oE4+vGXGClJ+yNbGiMZAFU6QyASh4Q98xQ0Sm19THx8AN5rF+nb5PRnUw32H+FN96UNgc2LJ1tRy8dDTw7a2QTRZbhZF+qC2QxWcIQp0GmazNrLtMgAJYmW/FnZXHvQFDUl/CIZUCEi0/qQwU1FGkqL606WIw4T9JIOYrYO7mRY6S1jUFR4txzhYlhgY6WLhU89hr/xO38fx3/1b6Pq9RzR4HTGGFEnkgcmK0sUEYWHHNAcSPtsQ2B86wyJj06eVq2MrzWN3bTHogKP23TU34Mg7MqSGVP4CJ9yO/RHgYARhI8C1UN5zFsgCB+Ax0S2thVZxbJZ6sM6Z8GvQNvOKtkdpmkCqtzFppnmNSV9E4CwDBBsZFj/+jfx4//xJVx69RWElzbw8OoJHEl72Lp6RcYOLy4v6cTCvEBScXCUG63s9A7UJ4yiSFonac7jA5629SlBkPW31u0DrGyUW9/3wVnDpm+UG3fCtTMsB/0ITXQkTAWqNoFoBzWXIGhsp/0sC7IM3/Yp1y8ZHbaX0msiwIhOgyFbBVmS8Y2SrmmUttjMMEitgmZZFYK41pHLUSSloGFW4ujiCk6srKLayXDl3StYz0fY7Hdw/Z5VRE8/gmf+4T/Avb/8HOqji9iMKIatEQ9zdKJAyg/8O6EfUYAouogIKQmCjARXgql20NRCjAkCr1mGTzakz0lUpzUjH5YgGDk46EfajncbEDCCcBtAPhynuHmC0N5Nv5/2oJ1oYNtZOWLnAqfu0Uy3FjEhP+zZhRCxXZIpYenBryhxa0YBj0YZELHHvUQyzFGev4S118/i7P/+Ks5945sIL17FQ/0VrEYdxFUgJjsU2WkAVDW7Cum442aAY2Vaa/GME8wqeBMfDYB6Vf5PzCzIaGJR9nvyoHV8GVwlxELLJ9NfDQlyu32/62+/7iDEixOEpgmGYwW+bqK1zjEupeg8Bc0o8BpVxMm/K3KQQUjMIHiCwK4B7ykgx3EDkGKKBEWoWGEUlijDEsVgKKO80+4ShsMc69vXMaIr5tFVrC90kDz5OE7/1m/g+F9/FuGpE8hDIE9DXJRx0CM8kKbostuhGiFjFihOtRwlawY6jiTwTtL+WxUSbhS3yyCwijQWFOrdmLy7rlK2V4pIH4JdraTGDQ7HJ+DdeBVGEO7Gu37T1zytzLrpA33gG+u8RJnRTyFAzHa22E2ApPESA3CkpQbWsGuOjubHvdg5U+SWY1gUGLGGHcWqURhVyC9cxrWfnsO1P/pT/OjFr6Jz8QpOh10ck7a6EHESI0gjDIuh9OnTMpcEIsgqJCJu446Yts21CBoZoKokEl9+OkbqFD/dIUdi9xxIipxKfwZGJQhq4xu1vAR0EqaDhH9w2QndmXt7gLE5kG+/nCYKbYOjZgc8VTSX7IYzj5J45nb4vF4GdSEkbh6zG4Kth/K33k3tpD+AlFpKN9tCiJOSAdmYu4sS10QhXmqexMyL7OJHlZK7OMA2sw1piHJ7C0kco4hTnN9Yx/nRAOnDD+Cxz76Ae3/j81h88AGk998L0E45icSNcRAEWKOTZjnC0TiRoV8UkRa++0K8L+iyEApBEEMk176os6OoOVDixpIV8dCWXP1qpIkCjQPTIv4H/vu1FxwOBIwgHI77ePiuoqhR54Xs9IKE9eRQDW1aLYXywV6SMJAgUKsQyA5WJkTW9Dqgyz6QhLH49EeMfHmF6voGNt/8Kda+9sf48Re+iPWzb+J4egT9pIOjqysiQAyLAkkBdMoAS2GKajiSkgQYmOIAWVgi426VMx7qWrQNjKJFMZJa90KUIh1VYuGbBrH4MWQl3RxoIBWrBXUTefVPMg+ANEPK/G5ORGPOM351WyvQvvFtgjDRXSGxzaXUXVlE0vxOTsA1lWElJQLtvODvxFP/TjvrwhkgcfaAkCCaX3GOgtghaFeJtKB2Uu1KEB2HtkPyysTryLldUisS5JmWLpIYawGwVo/QW+zhrQvncA7Xcerxp/HM7/8uVn75F5HedwKdkyeAmIyMxkr+XsvtRI5S/DI6YSikTvop6krWzetQO+RIBIhN8JcBX6qf4EMi2Y8WQXBTFJzeZeqflxGEw/d5Y1e0JwJGEOzBmFsEKjG3c7ncUvvmZUqe33K7CY1j0uBtnFXUKMGW+gI3jGc4yNGJU7DLTdIQoxz1zjbw9tv4k//0X/DSi19BfvUynl68D08ePYmjVPHvZOL+SN/HUoSKDErsqKclb4yo20ExUlKQcPdaFECWIylrdMNY1jvIcwyrEmmvj4SvLwqUFFV4giDLLiWwMpBHNHdyqWp1ZPSGRa6O3+oSkKucEhxqKn/317RWtGk/dMcXIyRtSBSI2ZXAUkqdcPyxivzigm6TtWg96qBE0kvQXegLljub28hY0mFGpttDNCoRFQX6SRdBwUJNKIGbXCpJIuRliStbO7gw3MFFFLjSifDXPv938Nzv/w6CZ58Cji4JIQPxIBAUG8qALZ2SyC9aJYtWhWRFjLDGRtD6Wn2hPgOOXXpu5jtO3PhpHb6kRO2GBMHIwdx+XtjCDh4BIwgHj6kd8RYRkO4BzjuQXSd1BlJIlmDPSTpCFPg9RhpmDKTHXmctpNIKGUgg0oY8ftzrDpZfOY38UnVT5DfTkOnuXALY9p+/hPMvfw+XvvUK3vuLV9Fb28KREnj0vvsQMiCWpUyh5LmTKJFgJLbSDKacThkGWOr1kND2dzjEkL+qAp3lJXQWF7CTDTHcGkqpIoo02a01b14l18PAJyMoG9MlXwX3joYqDhz7DzQ0wynvveDQCwzbmobJ2+IolG9KcJhSgSFxVLIikUwrZLspgzCdEhO2CvI9cYjtaoiNcoA6DtCLY3TrEAnFoYiRRh2UwyFGwwxJkiJKEpQkUP0U76xfxXvb68jSGEW3h/ue/hQe+aUXcOSpJ5F88gzq0ycximrJ1DALwBJNj0PAWcJwfgq87yQsJHp8TkgQYlp2+xYERwz4XPBLBYlODyKg0OSCx1e4SQ48QWA5YlxiaJVXbvG5trcbAncaAkYQ7rQ7dhesl5/fQ85VoJMie+Mj3dFJKpskQVrRHElwI5w12VBpjZlq+soZHsnIXZ3Qx53xiI0R/j0Fg34hdes0Ytq8BraG2Hj1NVz83o8w/MlbeO87r+DyD3+A1RI4lS7gWKePjkwfrBGMKrFv7sSJdFTs5EMEcYS4k8rOmyn7QVWgkEmW/EYpmoZulAixUT2AZj1Ew+DMe6iq966MXhgpLYOuY8B7FrRJwI0eC9UwtCOj5NKViLS+GtIl8ylcwC2on+D7tZXTCy/5gkFQIe8EGPJXMUKQj9CvIyzWMZbrWMor/I8dIIM4wJUyw7md67iAATYXI5w48xge/8XnsPLoo7jnE09h6cknge6ilBFGUYnL2xsIOimWun2ERYk+xarMFvA/7vRFK6BEqgwjIQkxjbMcnkJyJPDrc9JIPNw1i1umI5dKiJQU8dkhgZt+fUPExkqEu+Bfol3i3Y6AEYS7/QmYw+tnfMpIEkrdz8bcyUqY1x2gdAH4fnXv1Ofy56JSkF2jlgNkx+maCstCLX4k3cx6tWTTmS4vEccMMJSy1wgkU1ED17ex9aPX8JNvv4zo7fPYOfsWrvz4LIaX3sVK1MHJhWWcXFxCOnLCu6oWolBQa8DZQ50Y6CQYoEJWFaKj4K43YhaDBMOVClRToH+Xa/M+/24GgnZTeDMmFUG2vQomSgyt++kFjhrsmqKL1ujl/1UdKQFRlP5qJhTI6GWOUAqFIIiRkSstUH9ALUiZhAgWOqi7kRCjbKCZkW4co85GGGUZKPV8r8xxqRyhOnYES088hO7TT6D/2Gnc/9QZnPrEE6gWVzCKOWQp4g2XSB31O2JuJFkeah0oFhWzBF35uBtC1zIomeFQgiBGRzIU1Nkny2UrkRAcXORvY+q/rZUrb7XcvLRBdLpEM4f/dGxJhsCBImAE4UDhtIMdBAL8IGaJnv75Kh7XgUpi3es+6EkZWHoQsR2DOj/cXVAge2B811541z3gnQlLHdxEMlBLfllCjiMVOnOaJQJ9p6awURSo3n0P198+j6tvXcDw3Hnkr/0EF773A2yefwfRYAerQYL70hUcibuaVegkyIoco7AW578iDkR5L4GeATcrXEDW2jx7731wUxtgP99BfRb835UMeDLhmxFdfaExklJBolAABnSnSeDfKSXkMQpxRNSBWmJaVDrviFJtkkX570oMktmoKh1lLPdEhaPM0oyqXMWDdD+sMlweXse7+SZ26gBHT9+Ph194HuUnnkTv1EmcfPQhLD32EMKVPrWGcv68oF9CrCJU1n+KEXrdnsRxZgo4VZEmSqOaK1cNCtsrhTCSzIiNMv0vdBkyNJrr972KFExOpwNa2gP/vLZnJdxIZmAE4SD+ddsx7iQEjCDcSXfrLlorCYJSAv29kJKBSugY8FhvVgvmWloK+bu07DFDLp0FTnAn9sC+b9/tvL16X2f2SMcDZYiUwMmuWYYK6a6drXtsp6P+gLMfUu7+BxlGV67h+utv4vy3XkL53lVk5y5j+yc/Q31lHeFgG/0gQB8xVpcWxbExLznlgZMJOV8gkFIHdRLMVnDXLgHPEQN6PLDmL/r/MJKyBSdk8ntCInwbpA6vlvKFD4Jepe9NgPgD9WpglkB3yEGkQksJ9C47ExIwdo7w+iQQR6gK5l8CJAt9dFeWpFSyub2Nne1t0VjkgyFSCgejWsoIwYlldB4+RdEG+mcewslnnsHqmccRHj+OWgSGLLX4gF3L8euMmpIIcZogSIQWCCEkOWhaEOUeaetizqmLzDLQ9ZLvky4FLQ/w7Tqq29EpCk+c4LNNsNq6DF+m8WUV0R74nlMTJN5Fnzh2qXshYATBnou5RKASIxsX8B1J8AI6LlhGR7uMsZYK9HNdDI4Ctr35eYuhOuUx4DBN7vr4GajyIMCwLiX9340DGfnMSX/UCUhACUNxUBwC2Moz6TSgQK8fhliIYoSjElWWSzagvnId+fdfx9qrP8Jb330VgwuXEG5sIRpmCAYDBHmOqCzk+FEYoNvroZMm6KXs3Y81eJMU0EKakyWdGl/WLa2OrvwhsyHUv0BaOl2WQOrt3EZ7g6aWDRNnKMju243dZlAtOR2JWYs0VoOpokIphAAI4gRhxFbMEDvDApeybbyTbeNKPUQVJ1hZPYZ+r4/lhUUcP3mPTEyMji3j1KefRv+5TyN48CTCxY5oCLKqxibvJT0IglhIHTUlnN9YDkYYbQ7kbnb6XYS9SLwYSIzcAE1HnjSLomSOWZDx/aeXArMvTPSQILRjurSSsmzUIpryqDgOQU0F3yv5F2l7lIZM7ZTxX0YS5vLzwRZ1exAwgnB7cLazfEgEWloz/YB3u2YJnG536T/HJektwjtmEdShUNLTMlpYks4uFTHWH8guFbXspKnSJ2EQkxw3oZA7dQYzauV57KKgMx+jSYCidLVw6ZygE6Mz33HahYCBtqhQ/OA1fP8rf4g//8rXsHXuAlarECfiHu6NE0Rr7yEuMskG0KOBY6n7bA1k10CeI4kTLZm43vw4prAxQR1ShulaPcU0yov2QkSs/0vHgXZ0NHMh1FtY0vcU/NFJgGRCr1l1E9WokBkVUgJhKYTiwjLGZhnhUlThQpDjSjdAes9JnHr0ETzy1JP4+M89i+M//3PAiWOsjzRdJQF7OGmFzXkaYYgy1hkYLGMw28P5C0JEeAcqlhgChLGsSvwYhCBI4NZyArsYeC94i1kVEr8C6g2YMQghBI7XzBKDNjFoNonYMDvhv8SoSvtF1B+DZNAlDOinwbXweEYQPuQ/Vnv5oUXACMKhvbWH4MJcLpgf/tqG4OYGS28g0+BOqe589/nhL52P7tK5g1StuwZaJRZjXDQTrZmKkkUG+Zk0TYoZEIN1XEfItocospG0JkZpIm19rIvXPJkkJhikS5TMECQRehRAMpJRWu9/H+TA2XNY+94PkV9+F2t/9QaKrS0Mt7dQ82dZhtF2hoKdENQP8Jj0VHBGRNzdFyxHsNxP4yfnCjhuyXPYuAAoraJ+MJOQhlIwVEOpEHmobYRRT1sQ+UXNQdxNUXZS5FGI3vIqjtz7AI6ceQjHP/E48LHTwPFVoNdVEDnzIKywRV+ISA2MGNB7YLZAZ2iQfNGuSkofdJek1oDZg5o22lr5H8n0zgpxrK/zXYjaokqdibg1OaJWCBngzY/jGGHKDE8lgsaEcxj4bMj/VJfheh12ZRH4DZIDrz1gacV3MTQEwbIHh+BDxC7hVhAwgnAr6Nl7P3oEVBcn6fFGrac5dvfL6xScoNEFI3mJpCF0r+omCzTtg/67+jrNO6uynVMIdffNn0n+gcIGt32VXblMg3IeTn6msyMrclyel5oIOi9Sc+DsfqWzkOUIyQywhTPQ1wyGwNp1bL53FZtra1i/to6t9XVcv7aGnY0t7Gxs4vrVNWxdv4piuIEuQilV0MpZ5yGok6G4ONILIIpEWyDDpbh0ZhQqoJv2sbCyjIVjx4CVRVTLffSOr2Lx2DEsLi9j9dgqjp08geDYKrDQ0+24DF3izp6EiXLKAEHhdA9JjJ0yF4KUxonoNxqhpQOYgZulIZItGYLU3A/XmcHsDElN6AO2E4c6e2ZVG45rBEKciC3/c2xQpkhSl0Bi1noitTiz2zTKaxAmtIuNMMH5Xre6HRqeYCrFj/7fu51hrhAwgjBXt8MW00Zg1+ex/4aP7q2xOPqj8ae66BHke9oWN+5z07bHNkFoRG3um2pFND5iU6JoL07KC63DTp1D3u/Wy1S3d/STYrnLWshu15EJHYPg/s70eJZjlOUi5GMmIR/kyIcUB25Ku6eIMl33BjMDNGoa5cxyRIhi/ool5c/dMMkIWxWTuIO020dnYRHod4BeirDbUc2B5NZdK2FdinAzYIZBOgjorKjtkPSlYJJFxjYzQLuUvmgfRNyn2DYjk5UxOeT4+1gT4L+tEhIdiqQiwQmgJ/9RtJ+B1mtF0Ol+plBqt0VDGXY9O5N8s/UoTbRCvs9K7B+rIXDoETCCcOhv8Z15gdNxYK+r8DLE8c9c/1oT6BkEOKxHvzGOO619ZsNC1BlAo4OOFuLXxCClqUXoplO9FaRrQE7jz6IEwkkKm/kAFBtqWptpc+3zb8dEPabryKDGoFAXQ0nMM+pK0NZ0hW/tbJa95/o0/EranaRC7JxDmZLInT134ZLGl8qK+hDwwCxPUBcQkmQ0+CnrapBiEHaTNVXvoS2lOpZJ16dvbXkbe1w9b3CQN22l/hocwZvO8t+AH4yjffN+1/Hicwr7JQitzMH0M2cVhzvzs8RWffMIGEG4eezsnfOIgI/xbm3jTMB+Pt51sNCH+XK9Fvq+qXO3j+M1EOQRqorw2QPuzvmLpMAX4DWg80uGUWmBXNsVk1jb/5ySXx0Q3ewGp7EQt0EnVPSkxe/tReQpdshO0iGZAec26B0HXWFeAr6P8dPI+BkZsu4xZg1P2i+IezHB/dyq/R7fXmcIGAI3jYARhJuGzt5oCOwfgUYk6VoUm3yG6CRYgvD5cW7RXbthk43QTIW4NbjWjcZq2tENjffKUJwhcTOdUH7mArmcjuUGZzjkWwGle4G/Ku3ukOVQKyEdGvrlSwBKLsaRXeZi7LFD3z869kpDwBCYRwSMIMzjXbE1HToEpgmClA3YRiliS1dY8K2ZLhPgN+bjckeNsvA7drZkajK/+ZrwAdBRzdqA6Vo+xRBRWyNpNCWGUCIecORAjKP0tUoQ1EPCkwOfhdCpiFME4dDdMbsgQ8AQMIJgz4AhcBsQ8EFa2hZpVMTOBiEIujNvZiOIW48L6i2TZeEM7LTwToduaqUsXfSQKoqU3b0MMvJDmpzeQQK95hhkBLYo/tlNQTMhSBeBTsV0PgOuRVDe7TIZ3lHACMJteGDsFIbAHCBgBGEOboIt4Q5GYJ+pdbFWmjZ7cpctMkJlAC2Ro/teYzitNQAaN4UyFnosApQliObAtQh6rWRbTtH4A7hRzi7oi2cRSYG0d+oQJzEi4sREnquVQWgOR0Oq1nWr6+NEIuMOvqG2dEPAEPAIGEGwZ8EQuBUE9iGy05dMEoR26r8RAjYKet8foYoCyfbrqCr5pd9lW5/XLbSk90596Hf9yh008HtxI4M/PQMY5L1DpWgm3XvFh8h1Wkjrohv2NIZp8qKNINzKA2TvNQTmFwEjCPN7b2xldwIC+yQITYnBiRSbwOwbF9y1ihDQBWo5tJtoKWUIN3RJGyt1l+9LFo6D+CHO7WbCZqojXyNdDxxw1TIV2t1KqBc1bvYc2x3oMncThPZ3rQnhTnhwbY2GwAcjYAThgzGyVxgCN0bgQxCE9kFKpvBdW2HboUHNfVzeQGsHTReB5hW40/dywdYR3Q+bbgj50WTbps8qeBviaRJww4v0J25eMFFfmDI2sofFEDAEDgsCRhAOy52065gNAjdJEPzAoPYuvd0ZoExAPR3bO3bvM6CmCW5K5Z5X7gsXSgPahxGi4IZT7RXzXfqgWU67A9MfqClh2Gjk2Tx3dlZD4DYgYAThNoBspzjECOxTnae+fuMvJQjeo5Dfbwn/KAJoOw43LYVjA6XGutkd0k+43IU0hY+1DjwSzwNf4pAWRu1L0HKFf6euqSEizvFw3NWohMUIwiF+pu3SDAGHgBEEexQMgVtBYJ8EQa2IxydyA6IbrQAPMzGywL/UtTCQAJ0LAAAET0lEQVRyzgC7DGSktfgmj/MK45lU3opR5xKwZdHPJ9DWRP+v3rU5BBQ9jj0NPF1pcwXvuDgJ0XjORGMtbcKDW3mK7L2GwFwiYARhLm+LLeqwIdAWJfpdvMbm3TUKvzuXH7VisSoSdeZBm2r42QiSk3Bv8lTBz33wExWa97G1sfFebKsgdiO/V+z36253Sxy2e2bXYwjc7QgYQbjbnwC7/tuCwC6C4GcxtEcXtiYbNxt+EoRWF+Ne06PaHGPaBtkTBB/k29kBFhzasxPaRGAi2TCN0B4uivtMpNwWrO0khoAhcDAIGEE4GBztKIbA+yKwiyBM1fzlzVMEQXQKrlTgD06rZB2rPP6Z+Bm47gf/uuldv5QvKEfwjZDspaRjY/NCXRCXIMTBtzl6d0Y/2dKpHZuOCG+4NJHTsIfBEDAEDgMCRhAOw120a7hzEdBIvOeX/9FejRJCEJpA/r6DJKWMofMVSAimjuYmObaJhWUD7tzHyVZuCBwkAkYQDhJNO5YhMKcI7KV1EJIxoWeY08XbsgwBQ2AmCBhBmAnsdlJDwBAwBAwBQ2C+ETCCMN/3x1ZnCBgChoAhYAjMBAEjCDOB3U5qCBgChoAhYAjMNwJGEOb7/tjqDAFDwBAwBAyBmSBgBGEmsNtJDQFDwBAwBAyB+UbACMJ83x9bnSFgCBgChoAhMBMEjCDMBHY7qSFgCBgChoAhMN8IGEGY7/tjqzMEDAFDwBAwBGaCgBGEmcBuJzUEDAFDwBAwBOYbASMI831/bHWGgCFgCBgChsBMEDCCMBPY7aSGgCFgCBgChsB8I2AEYb7vj63OEDAEDAFDwBCYCQJGEGYCu53UEDAEDAFDwBCYbwSMIMz3/bHVGQKGgCFgCBgCM0HACMJMYLeTGgKGgCFgCBgC842AEYT5vj+2OkPAEDAEDAFDYCYIGEGYCex2UkPAEDAEDAFDYL4RMIIw3/fHVmcIGAKGgCFgCMwEASMIM4HdTmoIGAKGgCFgCMw3AkYQ5vv+2OoMAUPAEDAEDIGZIGAEYSaw20kNAUPAEDAEDIH5RsAIwnzfH1udIWAIGAKGgCEwEwSMIMwEdjupIWAIGAKGgCEw3wgYQZjv+2OrMwQMAUPAEDAEZoKAEYSZwG4nNQQMAUPAEDAE5hsBIwjzfX9sdYaAIWAIGAKGwEwQMIIwE9jtpIaAIWAIGAKGwHwjYARhvu+Prc4QMAQMAUPAEJgJAkYQZgK7ndQQMAQMAUPAEJhvBIwgzPf9sdUZAoaAIWAIGAIzQcAIwkxgt5MaAoaAIWAIGALzjYARhPm+P7Y6Q8AQMAQMAUNgJggYQZgJ7HZSQ8AQMAQMAUNgvhEwgjDf98dWZwgYAoaAIWAIzAQBIwgzgd1OaggYAoaAIWAIzDcCRhDm+/7Y6gwBQ8AQMAQMgZkgYARhJrDbSQ0BQ8AQMAQMgflGwAjCfN8fW50hYAgYAoaAITATBP4/eK6EOb8Klg4AAAAASUVORK5CYII=;" vertex="1" parent="1">
          <mxGeometry x="1963.3899999999999" y="427.79999999999995" width="43.22" height="31" as="geometry" />
        </mxCell>
      </root>
    </mxGraphModel>
  </diagram>
</mxfile>
